<?xml version="1.0" encoding="utf-8"?>
<!-- Generator: Adobe Illustrator 22.1.0, SVG Export Plug-In . SVG Version: 6.00 Build 0)  -->
<svg version="1.1" id="Layer_1" xmlns="http://www.w3.org/2000/svg" xmlns:xlink="http://www.w3.org/1999/xlink" x="0px" y="0px"
	 viewBox="0 0 576 720" style="enable-background:new 0 0 576 720;" xml:space="preserve">
<style type="text/css">
	.st0{fill:none;stroke:#020203;stroke-width:2;stroke-miterlimit:10;}
</style>
<polygon class="st0" points="180.1,281.6 221.9,236.2 262.2,192.5 371.4,250.1 331,294.5 290.2,339.2 "/>
<line class="st0" x1="330" y1="293.7" x2="221.9" y2="236.2"/>
<g>
	<path d="M204.7,267.6c1.5,0,2.6,0.3,3.4,1c0.6,0.6,1,1.4,1,2.5c0,1.4-0.6,2.4-1.5,3s-2.1,0.9-3.5,0.9h-2.9v-0.3
		c1-0.1,1.1-0.1,1.1-1.1v-4.5c0-1-0.1-1-1-1.1v-0.4H204.7z M203.4,273.5c0,0.9,0.4,1.1,1.3,1.1c2.2,0,3.2-1.6,3.2-3.4
		c0-1.2-0.5-2.1-1.3-2.7c-0.5-0.4-1.2-0.5-2.1-0.5c-0.5,0-0.8,0.1-0.9,0.2c-0.1,0.1-0.1,0.2-0.1,0.7L203.4,273.5L203.4,273.5z"/>
	<path d="M216.1,273.2c-0.1,0.4-0.3,1.5-0.4,1.9H210v-0.3c1.1-0.1,1.2-0.2,1.2-1.1v-4.5c0-1-0.1-1.1-1-1.2v-0.3h5.3
		c0,0.3,0.1,1.1,0.1,1.7h-0.4c-0.1-0.5-0.2-0.7-0.4-1c-0.2-0.2-0.5-0.3-1.3-0.3h-0.9c-0.4,0-0.4,0-0.4,0.4v2.6h1.1
		c1,0,1.1-0.1,1.3-0.9h0.4v2.2h-0.4c-0.2-0.8-0.2-0.9-1.3-0.9h-1.1v2.1c0,0.5,0.1,0.8,0.3,0.9s0.7,0.1,1.2,0.1
		c0.9,0,1.2-0.1,1.5-0.4c0.2-0.2,0.4-0.6,0.6-1.1L216.1,273.2z"/>
	<path d="M224.1,273.1c-0.2,0.5-0.5,1.4-0.7,1.8c-0.3,0.1-1.4,0.3-2.2,0.3c-3,0-4.4-2-4.4-3.8c0-2.4,1.9-4,4.7-4
		c1,0,1.8,0.3,2.2,0.3c0.1,0.6,0.2,1.1,0.2,1.8l-0.4,0.1c-0.3-1.3-1.1-1.8-2.4-1.8c-2,0-3.1,1.6-3.1,3.3c0,2.2,1.3,3.6,3.2,3.6
		c1.2,0,1.9-0.6,2.5-1.8L224.1,273.1z"/>
	<path d="M230.8,273.2c-0.1,0.4-0.3,1.5-0.4,1.9h-5.7v-0.3c1.1-0.1,1.2-0.2,1.2-1.1v-4.5c0-1-0.1-1.1-1-1.2v-0.3h5.3
		c0,0.3,0.1,1.1,0.1,1.7h-0.4c-0.1-0.5-0.2-0.7-0.4-1c-0.2-0.2-0.5-0.3-1.3-0.3h-0.9c-0.4,0-0.4,0-0.4,0.4v2.6h1.1
		c1,0,1.1-0.1,1.3-0.9h0.4v2.2h-0.4c-0.2-0.8-0.2-0.9-1.3-0.9h-1.1v2.1c0,0.5,0.1,0.8,0.3,0.9s0.7,0.1,1.2,0.1
		c0.9,0,1.2-0.1,1.5-0.4c0.2-0.2,0.4-0.6,0.6-1.1L230.8,273.2z"/>
	<path d="M238.1,275v-0.3c0.9-0.1,1-0.2,1-1.4v-4.6l0,0l-2.9,6.2H236l-2.6-6.1l0,0l-0.2,3.2c0,0.9,0,1.4,0,1.9s0.3,0.6,1.1,0.7v0.3
		h-2.7v-0.3c0.7-0.1,0.9-0.2,1-0.7c0.1-0.4,0.1-0.9,0.2-2.1l0.2-2.3c0.1-1.5,0-1.5-1-1.6v-0.3h2l2.6,5.6l2.7-5.6h2v0.3
		c-1,0.1-1.1,0.1-1.1,1.3l0.1,4.1c0,1.2,0.1,1.3,1.1,1.4v0.3H238.1z"/>
	<path d="M246,271.1c1.2,0.2,2.1,0.7,2.1,1.8c0,0.8-0.4,1.4-1.1,1.7c-0.6,0.3-1.4,0.5-2.3,0.5H242v-0.3c1-0.1,1.1-0.1,1.1-1.1v-4.5
		c0-1-0.1-1-1-1.1v-0.3h3.1c0.9,0,1.4,0.1,1.8,0.4c0.4,0.3,0.7,0.8,0.7,1.3C247.6,270.4,246.7,270.8,246,271.1L246,271.1z
		 M244.7,270.9c1.3,0,1.8-0.5,1.8-1.4c0-0.8-0.5-1.5-1.5-1.5c-0.3,0-0.5,0.1-0.6,0.1c-0.1,0.1-0.1,0.2-0.1,0.6v2.2L244.7,270.9
		L244.7,270.9z M244.2,273.6c0,0.9,0.2,1.1,1,1.1c0.9,0,1.7-0.5,1.7-1.7c0-1.1-0.8-1.7-2.2-1.7h-0.5V273.6z"/>
	<path d="M255.1,273.2c-0.1,0.4-0.3,1.5-0.4,1.9H249v-0.3c1.1-0.1,1.2-0.2,1.2-1.1v-4.5c0-1-0.1-1.1-1-1.2v-0.3h5.3
		c0,0.3,0.1,1.1,0.1,1.7h-0.4c-0.1-0.5-0.2-0.7-0.4-1c-0.2-0.2-0.5-0.3-1.3-0.3h-0.9c-0.4,0-0.4,0-0.4,0.4v2.6h1.1
		c1,0,1.1-0.1,1.3-0.9h0.4v2.2h-0.4c-0.2-0.8-0.2-0.9-1.3-0.9h-1.1v2.1c0,0.5,0.1,0.8,0.3,0.9s0.7,0.1,1.2,0.1
		c0.9,0,1.2-0.1,1.5-0.4c0.2-0.2,0.4-0.6,0.6-1.1L255.1,273.2z"/>
	<path d="M262.7,275.1c-0.1,0-0.3,0-0.4,0c-0.9,0-1.4-0.3-2-1c-0.4-0.6-0.8-1.2-1.1-1.8c-0.2-0.3-0.4-0.5-1-0.5h-0.3v1.8
		c0,1,0.1,1,1,1.1v0.3h-3.2v-0.3c0.9-0.1,1.1-0.2,1.1-1.1v-4.5c0-1-0.1-1-1-1.1v-0.3h3c0.9,0,1.5,0.1,1.9,0.4
		c0.5,0.3,0.8,0.8,0.8,1.5c0,1-0.6,1.6-1.5,1.9c0.2,0.4,0.7,1.1,1,1.6c0.4,0.6,0.7,0.9,0.9,1.2c0.3,0.3,0.6,0.5,0.8,0.5L262.7,275.1
		z M258.4,271.4c0.6,0,1-0.1,1.3-0.3c0.4-0.3,0.6-0.8,0.6-1.4c0-1.2-0.8-1.7-1.7-1.7c-0.4,0-0.5,0-0.6,0.1s-0.1,0.2-0.1,0.5v2.8
		H258.4z"/>
	<path d="M231.9,283.2v1.2c-0.4,0.3-0.8,1-1.4,1.8c-0.6,0.9-1.1,1.8-1.6,2.8s-0.8,1.9-1,2.7c-0.2,0.5-0.3,1.3-0.6,2.5h-1.6
		c0.4-2.1,1.1-4.3,2.3-6.4c0.7-1.2,1.5-2.3,2.2-3.2H224v-1.4H231.9z"/>
	<path d="M262.5,310.9c0.3-0.7,1-1.4,2-1.9l1.5-0.9c0.7-0.4,1.1-0.7,1.4-1c0.4-0.4,0.6-0.9,0.6-1.5c0-0.7-0.2-1.2-0.6-1.6
		s-0.9-0.6-1.6-0.6c-1,0-1.6,0.4-2,1.1c-0.2,0.4-0.3,0.9-0.3,1.6h-1.4c0-1,0.2-1.8,0.5-2.4c0.6-1.1,1.7-1.6,3.2-1.6
		c1.3,0,2.2,0.3,2.8,1c0.6,0.7,0.9,1.5,0.9,2.3c0,0.9-0.3,1.7-0.9,2.3c-0.4,0.4-1,0.8-2,1.3l-1.1,0.6c-0.5,0.3-0.9,0.5-1.2,0.8
		c-0.5,0.5-0.8,1-1,1.5h6.1v1.3h-7.7C261.9,312.5,262.1,311.6,262.5,310.9z"/>
	<path d="M277.7,304c0.5,0.9,0.8,2.2,0.8,3.8c0,1.5-0.2,2.8-0.7,3.8c-0.7,1.4-1.7,2.1-3.2,2.1c-1.3,0-2.3-0.6-3-1.8
		c-0.5-1-0.8-2.3-0.8-3.9c0-1.3,0.2-2.4,0.5-3.3c0.6-1.7,1.7-2.5,3.3-2.5C276.1,302.3,277.1,302.9,277.7,304z M276.3,311.5
		c0.4-0.6,0.6-1.8,0.6-3.6c0-1.3-0.2-2.3-0.5-3.1s-0.9-1.2-1.8-1.2c-0.8,0-1.4,0.4-1.8,1.2c-0.4,0.8-0.6,1.9-0.6,3.4
		c0,1.1,0.1,2.1,0.4,2.8c0.4,1.1,1,1.6,1.9,1.6C275.3,312.5,275.9,312.1,276.3,311.5z"/>
	<path d="M286.6,304c0.5,0.9,0.8,2.2,0.8,3.8c0,1.5-0.2,2.8-0.7,3.8c-0.7,1.4-1.7,2.1-3.2,2.1c-1.3,0-2.3-0.6-3-1.8
		c-0.5-1-0.8-2.3-0.8-3.9c0-1.3,0.2-2.4,0.5-3.3c0.6-1.7,1.7-2.5,3.3-2.5C285,302.3,286,302.9,286.6,304z M285.2,311.5
		c0.4-0.6,0.6-1.8,0.6-3.6c0-1.3-0.2-2.3-0.5-3.1s-0.9-1.2-1.8-1.2c-0.8,0-1.4,0.4-1.8,1.2c-0.4,0.8-0.6,1.9-0.6,3.4
		c0,1.1,0.1,2.1,0.4,2.8c0.4,1.1,1,1.6,1.9,1.6C284.2,312.5,284.8,312.1,285.2,311.5z"/>
	<path d="M295.5,304c0.5,0.9,0.8,2.2,0.8,3.8c0,1.5-0.2,2.8-0.7,3.8c-0.7,1.4-1.7,2.1-3.2,2.1c-1.3,0-2.3-0.6-3-1.8
		c-0.5-1-0.8-2.3-0.8-3.9c0-1.3,0.2-2.4,0.5-3.3c0.6-1.7,1.7-2.5,3.3-2.5C293.9,302.3,294.9,302.9,295.5,304z M294.1,311.5
		c0.4-0.6,0.6-1.8,0.6-3.6c0-1.3-0.2-2.3-0.5-3.1c-0.3-0.8-0.9-1.2-1.8-1.2c-0.8,0-1.4,0.4-1.8,1.2c-0.4,0.8-0.6,1.9-0.6,3.4
		c0,1.1,0.1,2.1,0.4,2.8c0.4,1.1,1,1.6,1.9,1.6C293.1,312.5,293.7,312.1,294.1,311.5z"/>
</g>
<g>
	<path d="M258.5,217.6c1.9,0,3.3,0.4,4.2,1.2c0.7,0.7,1.2,1.7,1.2,3.1c0,1.7-0.7,3-1.8,3.8c-1.1,0.8-2.6,1.2-4.4,1.2H254v-0.4
		c1.2-0.1,1.4-0.2,1.4-1.4v-5.7c0-1.2-0.1-1.3-1.2-1.4v-0.4H258.5z M256.8,225c0,1.1,0.5,1.4,1.6,1.4c2.7,0,4-2,4-4.2
		c0-1.5-0.6-2.7-1.7-3.4c-0.7-0.4-1.6-0.7-2.6-0.7c-0.7,0-1,0.1-1.2,0.2c-0.1,0.1-0.2,0.3-0.2,0.8V225z"/>
	<path d="M275.2,218c-0.8,0-1.2,0.3-1.3,0.8c0,0.4-0.1,1-0.1,2.3v1.1c0,1.7-0.3,2.9-1.1,3.8c-0.7,0.7-1.7,1-2.7,1
		c-0.9,0-1.7-0.2-2.4-0.7c-0.9-0.7-1.3-1.7-1.3-3.5v-3.4c0-1.3-0.1-1.4-1.3-1.5v-0.4h3.9v0.4c-1.1,0.1-1.3,0.2-1.3,1.5v3.1
		c0,2.4,1,3.6,2.8,3.6c2.1,0,2.8-1.7,2.8-4v-1.1c0-1.3,0-1.9-0.1-2.3c-0.1-0.5-0.4-0.7-1.4-0.8v-0.4h3.5V218z"/>
	<path d="M281.1,221.9c1.5,0.2,2.6,0.8,2.6,2.3c0,1-0.5,1.7-1.4,2.2c-0.8,0.4-1.7,0.6-2.9,0.6H276v-0.4c1.2-0.1,1.3-0.2,1.3-1.4
		v-5.7c0-1.2-0.1-1.3-1.2-1.4v-0.4h3.9c1.1,0,1.7,0.2,2.2,0.5c0.5,0.3,0.8,1,0.8,1.6C283.1,221.1,281.9,221.7,281.1,221.9
		L281.1,221.9z M279.4,221.7c1.6,0,2.2-0.6,2.2-1.8c0-1-0.6-1.8-1.9-1.8c-0.4,0-0.7,0.1-0.8,0.2c-0.1,0.1-0.2,0.3-0.2,0.7v2.8H279.4
		z M278.8,225.1c0,1.1,0.3,1.3,1.2,1.3c1.1,0,2.2-0.6,2.2-2.1c0-1.4-1-2.1-2.8-2.1h-0.6V225.1z"/>
	<path d="M290.6,226.9v-0.4c0.9-0.1,1-0.3,0.8-0.8c-0.2-0.6-0.5-1.3-0.8-2.1h-3.1c-0.2,0.7-0.4,1.2-0.6,1.8c-0.3,0.9-0.2,1,0.9,1.2
		v0.4h-3.2v-0.4c0.9-0.1,1.2-0.2,1.7-1.5l3.1-7.5l0.5-0.1c0.9,2.5,1.9,5.1,2.8,7.6c0.5,1.3,0.7,1.4,1.6,1.5v0.4H290.6z M289.2,219.4
		L289.2,219.4c-0.5,1.2-1,2.4-1.4,3.6h2.7L289.2,219.4z"/>
	<path d="M295.1,226.9v-0.4c1.2-0.1,1.3-0.2,1.3-1.4v-5.6c0-1.2-0.1-1.3-1.3-1.4v-0.4h4v0.4c-1.2,0.1-1.3,0.2-1.3,1.4v5.6
		c0,1.2,0.1,1.3,1.3,1.4v0.4H295.1z"/>
</g>
</svg>
