<?xml version="1.0" encoding="utf-8"?>
<!-- Generator: Adobe Illustrator 22.1.0, SVG Export Plug-In . SVG Version: 6.00 Build 0)  -->
<svg version="1.1" id="Layer_1" xmlns="http://www.w3.org/2000/svg" xmlns:xlink="http://www.w3.org/1999/xlink" x="0px" y="0px"
	 viewBox="0 0 576 720" style="enable-background:new 0 0 576 720;" xml:space="preserve">
<style type="text/css">
	.st0{fill:none;stroke:#020203;stroke-width:2;stroke-miterlimit:10;}
</style>
<ellipse class="st0" cx="301.4" cy="368.9" rx="175" ry="175"/>
<g>
	<path d="M416.6,210h12.8v3.2h-9.1v4.1h8v3.1h-8v7.5h-3.7V210z"/>
	<path d="M437,209.9h4.3l6.4,18h-4.1l-1.2-3.7h-6.6l-1.2,3.7h-3.9L437,209.9z M436.8,221.1h4.6l-2.3-7.1L436.8,221.1z"/>
	<path d="M460.5,209.9h3.9l-6.1,18h-3.6l-6.1-18h4l3.9,13.7L460.5,209.9z"/>
	<path d="M480.5,226.3c-1.4,1.4-3.3,2.1-5.9,2.1s-4.5-0.7-5.9-2.1c-1.8-1.7-2.7-4.2-2.7-7.4c0-3.3,0.9-5.8,2.7-7.4
		c1.4-1.4,3.3-2.1,5.9-2.1s4.5,0.7,5.9,2.1c1.8,1.7,2.7,4.1,2.7,7.4C483.2,222.2,482.3,224.6,480.5,226.3z M478.1,223.6
		c0.9-1.1,1.3-2.7,1.3-4.7c0-2-0.4-3.6-1.3-4.7c-0.9-1.1-2.1-1.7-3.5-1.7s-2.7,0.5-3.6,1.6s-1.3,2.7-1.3,4.7s0.4,3.6,1.3,4.7
		s2.1,1.6,3.6,1.6S477.2,224.7,478.1,223.6z"/>
	<path d="M486,209.9h3.8V221c0,1.2,0.1,2.1,0.4,2.7c0.5,1,1.4,1.5,3,1.5c1.5,0,2.5-0.5,3-1.5c0.3-0.6,0.4-1.5,0.4-2.7v-11.1h3.8V221
		c0,1.9-0.3,3.4-0.9,4.5c-1.1,2-3.2,2.9-6.3,2.9s-5.2-1-6.3-2.9c-0.6-1.1-0.9-2.6-0.9-4.5V209.9z"/>
	<path d="M515.6,210.4c0.7,0.3,1.2,0.7,1.7,1.3c0.4,0.5,0.7,1,0.9,1.5c0.2,0.6,0.3,1.2,0.3,1.9c0,0.9-0.2,1.7-0.6,2.5
		c-0.4,0.8-1.1,1.4-2.1,1.8c0.8,0.3,1.4,0.8,1.8,1.4c0.3,0.6,0.5,1.6,0.5,2.8v1.2c0,0.8,0,1.4,0.1,1.7c0.1,0.5,0.3,0.8,0.7,1v0.5
		h-4.2c-0.1-0.4-0.2-0.7-0.2-1c-0.1-0.5-0.2-1-0.2-1.6l0-1.7c0-1.1-0.2-1.9-0.6-2.3c-0.4-0.4-1.1-0.6-2.1-0.6h-3.7v7.1h-3.7v-18h8.6
		C514,210,515,210.1,515.6,210.4z M507.9,213.1v4.8h4c0.8,0,1.4-0.1,1.8-0.3c0.7-0.3,1.1-1,1.1-2c0-1.1-0.3-1.8-1-2.2
		c-0.4-0.2-1-0.3-1.7-0.3H507.9z"/>
	<path d="M525.6,227.9h-3.7v-18h3.7V227.9z"/>
	<path d="M542.2,209.9v3.2h-5.4v14.8H533v-14.8h-5.4v-3.2H542.2z"/>
	<path d="M557.7,213.1h-9.5v3.8h8.7v3.1h-8.7v4.6h10v3.2h-13.6v-18h13.2V213.1z"/>
</g>
</svg>
