<?xml version="1.0" encoding="utf-8"?>
<!-- Generator: Adobe Illustrator 22.1.0, SVG Export Plug-In . SVG Version: 6.00 Build 0)  -->
<svg version="1.1" id="Layer_1" xmlns="http://www.w3.org/2000/svg" xmlns:xlink="http://www.w3.org/1999/xlink" x="0px" y="0px"
	 viewBox="0 0 576 720" style="enable-background:new 0 0 576 720;" xml:space="preserve">
<style type="text/css">
	.st0{fill:#A3CC7B;stroke:#020203;stroke-width:2;stroke-miterlimit:10;}
</style>
<polygon class="st0" points="310.5,236.1 386.3,236.7 387,404.1 229.6,326.4 "/>
<g>
	<path d="M315.2,249.1c-1-1.2-2.1-2.4-3.4-3.9c-0.3-0.4-0.5-0.4-0.8-0.4v2.5c0,1.2,0.1,1.3,1.3,1.4v0.4h-3.7v-0.4
		c1.1-0.1,1.2-0.2,1.2-1.4v-5.2c0-1.2-0.1-1.3-1.2-1.4v-0.4h3.7v0.4c-1.1,0.1-1.2,0.2-1.2,1.4v2.3c0.3-0.1,0.6-0.3,1-0.6
		c0.8-0.8,1.7-1.7,2.3-2.3c0.4-0.5,0.4-0.6-0.3-0.7l-0.3,0v-0.4h3.4v0.4c-1,0.1-1.4,0.2-2.3,1c-0.6,0.5-1.5,1.4-2.4,2.3
		c1,1.3,2.5,2.9,3.3,3.7c0.7,0.8,1,0.9,1.7,1v0.4H315.2z"/>
	<path d="M327.9,240.7c-1.2,0.1-1.3,0.2-1.3,1.3v5.4c0,1.2,0.1,1.2,1.3,1.3v0.4h-3.8v-0.4c1.2-0.1,1.3-0.2,1.3-1.3v-2.7h-4.8v2.7
		c0,1.1,0.1,1.2,1.3,1.3v0.4h-3.8v-0.4c1.1-0.1,1.2-0.2,1.2-1.3V242c0-1.2-0.1-1.2-1.3-1.3v-0.4h3.7v0.4c-1.1,0.1-1.2,0.2-1.2,1.3
		v2.1h4.8V242c0-1.1-0.1-1.2-1.2-1.3v-0.4h3.8V240.7z"/>
	<path d="M334.4,249.1v-0.4c0.9-0.1,1-0.2,0.8-0.8c-0.2-0.5-0.4-1.2-0.7-2h-3c-0.2,0.6-0.4,1.2-0.6,1.7c-0.3,0.8-0.2,1,0.9,1.1v0.4
		h-3.1v-0.4c0.9-0.1,1.1-0.2,1.6-1.4l2.9-7.1l0.5-0.1c0.9,2.4,1.8,4.8,2.7,7.2c0.4,1.2,0.6,1.3,1.5,1.4v0.4H334.4z M333.1,242
		L333.1,242c-0.5,1.1-0.9,2.3-1.3,3.4h2.5L333.1,242z"/>
	<path d="M345.6,247c-0.1,0.5-0.4,1.8-0.5,2.2h-6.4v-0.4c1.2-0.1,1.3-0.2,1.3-1.4v-5.3c0-1.2-0.1-1.3-1.2-1.3v-0.4h3.8v0.4
		c-1.1,0.1-1.2,0.1-1.2,1.3v5.3c0,0.7,0.1,1,0.3,1.1c0.3,0.1,0.7,0.2,1.3,0.2c0.7,0,1.2-0.1,1.5-0.4c0.3-0.3,0.5-0.7,0.8-1.4
		L345.6,247z"/>
	<path d="M346.3,249.1v-0.4c1.1-0.1,1.3-0.2,1.3-1.3v-5.4c0-1.2-0.1-1.3-1.3-1.3v-0.4h3.8v0.4c-1.1,0.1-1.2,0.2-1.2,1.3v5.4
		c0,1.2,0.1,1.3,1.2,1.3v0.4H346.3z"/>
	<path d="M358,247c-0.1,0.5-0.4,1.8-0.5,2.2h-6.4v-0.4c1.2-0.1,1.3-0.2,1.3-1.4v-5.3c0-1.2-0.1-1.3-1.2-1.3v-0.4h3.8v0.4
		c-1.1,0.1-1.2,0.1-1.2,1.3v5.3c0,0.7,0.1,1,0.3,1.1c0.3,0.1,0.7,0.2,1.3,0.2c0.7,0,1.2-0.1,1.5-0.4c0.3-0.3,0.5-0.7,0.8-1.4
		L358,247z"/>
	<path d="M316.3,271.9v-0.4c1.1-0.1,1.2-0.2,1.2-1.6l0-5.4h-0.1l-3.4,7.4h-0.3l-3.1-7.2h0l-0.2,3.8c-0.1,1.1-0.1,1.7,0,2.2
		c0,0.6,0.4,0.7,1.3,0.8v0.4h-3.3v-0.4c0.8-0.1,1.1-0.3,1.2-0.8c0.1-0.5,0.2-1.1,0.3-2.5l0.2-2.7c0.1-1.8,0-1.8-1.2-2v-0.4h2.4
		l3.1,6.7l3.2-6.7h2.4v0.4c-1.2,0.1-1.3,0.1-1.3,1.5l0.1,4.9c0,1.4,0.1,1.5,1.3,1.6v0.4H316.3z"/>
	<path d="M326,262.9c2.4,0,4.6,1.8,4.6,4.5c0,2.9-2.2,4.7-4.8,4.7c-2.6,0-4.7-1.9-4.7-4.5C321.1,265.2,323,262.9,326,262.9
		L326,262.9z M325.7,263.4c-1.6,0-3,1.3-3,3.8c0,2.5,1.5,4.4,3.5,4.4c1.6,0,3-1.2,3-3.9C329.1,264.9,327.5,263.4,325.7,263.4
		L325.7,263.4z"/>
	<path d="M341.4,263.5c-0.8,0-1.1,0.2-1.2,0.8c0,0.4-0.1,1-0.1,2.3v5.4h-0.4l-6.1-7.1h0l0,3.3c0,1.3,0.1,1.9,0.1,2.3
		c0.1,0.7,0.4,0.9,1.3,0.9v0.4h-3.3v-0.4c0.8-0.1,1.2-0.2,1.2-0.9c0.1-0.4,0.1-1.1,0.1-2.3v-2.9c0-1,0-1.1-0.3-1.4
		c-0.3-0.3-0.6-0.4-1.2-0.5v-0.4h2.1l5.9,6.7h0v-3.2c0-1.3-0.1-1.9-0.1-2.3c-0.1-0.6-0.4-0.8-1.4-0.9v-0.4h3.3V263.5z"/>
	<path d="M347.8,271.9v-0.4c0.9-0.1,1-0.2,0.8-0.8c-0.2-0.5-0.4-1.2-0.7-2h-3c-0.2,0.6-0.4,1.2-0.6,1.7c-0.3,0.8-0.2,1,0.9,1.1v0.4
		H342v-0.4c0.9-0.1,1.1-0.2,1.6-1.4l2.9-7.1l0.5-0.1c0.9,2.4,1.8,4.8,2.7,7.2c0.4,1.2,0.6,1.3,1.5,1.4v0.4H347.8z M346.4,264.8
		L346.4,264.8c-0.5,1.1-0.9,2.3-1.3,3.4h2.5L346.4,264.8z"/>
	<path d="M314,294.7v-0.4c0.9-0.1,1-0.2,0.8-0.8c-0.2-0.5-0.4-1.2-0.7-2h-3c-0.2,0.6-0.4,1.2-0.6,1.7c-0.3,0.8-0.2,1,0.9,1.1v0.4
		h-3.1v-0.4c0.9-0.1,1.1-0.2,1.6-1.4l2.9-7.1l0.5-0.1c0.9,2.4,1.8,4.8,2.7,7.2c0.4,1.2,0.6,1.3,1.5,1.4v0.4H314z M312.6,287.6
		L312.6,287.6c-0.5,1.1-0.9,2.3-1.3,3.4h2.5L312.6,287.6z"/>
	<path d="M328.2,286.3c-1.2,0.1-1.3,0.2-1.3,1.3v5.4c0,1.2,0.1,1.2,1.3,1.3v0.4h-3.8v-0.4c1.2-0.1,1.3-0.2,1.3-1.3v-2.7h-4.8v2.7
		c0,1.1,0.1,1.2,1.3,1.3v0.4h-3.8v-0.4c1.1-0.1,1.2-0.2,1.2-1.3v-5.4c0-1.2-0.1-1.2-1.3-1.3v-0.4h3.7v0.4c-1.1,0.1-1.2,0.2-1.2,1.3
		v2.1h4.8v-2.1c0-1.1-0.1-1.2-1.2-1.3v-0.4h3.8V286.3z"/>
	<path d="M337,294.7v-0.4c1.1-0.1,1.2-0.2,1.2-1.6l0-5.4h-0.1l-3.4,7.4h-0.3l-3.1-7.2h0l-0.2,3.8c-0.1,1.1-0.1,1.7,0,2.2
		c0,0.6,0.4,0.7,1.3,0.8v0.4H329v-0.4c0.8-0.1,1.1-0.3,1.2-0.8c0.1-0.5,0.2-1.1,0.3-2.5l0.2-2.7c0.1-1.8,0-1.8-1.2-2v-0.4h2.4
		l3.1,6.7l3.2-6.7h2.4v0.4c-1.2,0.1-1.3,0.1-1.3,1.5l0.1,4.9c0,1.4,0.1,1.5,1.3,1.6v0.4H337z"/>
	<path d="M347.2,294.7v-0.4c0.9-0.1,1-0.2,0.8-0.8c-0.2-0.5-0.4-1.2-0.7-2h-3c-0.2,0.6-0.4,1.2-0.6,1.7c-0.3,0.8-0.2,1,0.9,1.1v0.4
		h-3.1v-0.4c0.9-0.1,1.1-0.2,1.6-1.4l2.9-7.1l0.5-0.1c0.9,2.4,1.8,4.8,2.7,7.2c0.4,1.2,0.6,1.3,1.5,1.4v0.4H347.2z M345.8,287.6
		L345.8,287.6c-0.5,1.1-0.9,2.3-1.3,3.4h2.5L345.8,287.6z"/>
	<path d="M355.6,285.9c1.8,0,3.1,0.4,4,1.2c0.7,0.7,1.2,1.7,1.2,2.9c0,1.6-0.7,2.8-1.7,3.6c-1.1,0.8-2.5,1.1-4.2,1.1h-3.5v-0.4
		c1.2-0.1,1.3-0.2,1.3-1.3v-5.4c0-1.2-0.1-1.2-1.2-1.3v-0.4H355.6z M354,292.9c0,1.1,0.5,1.3,1.5,1.3c2.6,0,3.8-1.9,3.8-4
		c0-1.4-0.5-2.6-1.6-3.2c-0.6-0.4-1.5-0.6-2.5-0.6c-0.6,0-1,0.1-1.1,0.2c-0.1,0.1-0.2,0.3-0.2,0.8V292.9z"/>
	<path d="M314,317.5v-0.4c0.9-0.1,1-0.2,0.8-0.8c-0.2-0.5-0.4-1.2-0.7-2h-3c-0.2,0.6-0.4,1.2-0.6,1.7c-0.3,0.8-0.2,1,0.9,1.1v0.4
		h-3.1v-0.4c0.9-0.1,1.1-0.2,1.6-1.4l2.9-7.1l0.5-0.1c0.9,2.4,1.8,4.8,2.7,7.2c0.4,1.2,0.6,1.3,1.5,1.4v0.4H314z M312.6,310.4
		L312.6,310.4c-0.5,1.1-0.9,2.3-1.3,3.4h2.5L312.6,310.4z"/>
	<path d="M323,312.8c1.4,0.2,2.5,0.8,2.5,2.1c0,0.9-0.5,1.6-1.3,2.1c-0.7,0.4-1.7,0.5-2.8,0.5h-3.2v-0.4c1.2-0.1,1.3-0.2,1.3-1.3
		v-5.4c0-1.2-0.1-1.2-1.2-1.3v-0.4h3.7c1.1,0,1.7,0.2,2.1,0.5c0.5,0.3,0.8,0.9,0.8,1.5C325,312,323.8,312.6,323,312.8L323,312.8z
		 M321.4,312.6c1.5,0,2.1-0.6,2.1-1.7c0-1-0.5-1.7-1.8-1.7c-0.3,0-0.6,0.1-0.8,0.2c-0.1,0.1-0.2,0.2-0.2,0.7v2.6H321.4z
		 M320.8,315.8c0,1,0.3,1.3,1.1,1.3c1.1,0,2.1-0.6,2.1-2c0-1.4-0.9-2-2.6-2h-0.6V315.8z"/>
	<path d="M330.8,308.7c1.8,0,3.1,0.4,4,1.2c0.7,0.7,1.2,1.7,1.2,2.9c0,1.6-0.7,2.8-1.7,3.6c-1.1,0.8-2.5,1.1-4.2,1.1h-3.5v-0.4
		c1.2-0.1,1.3-0.2,1.3-1.3v-5.4c0-1.2-0.1-1.2-1.2-1.3v-0.4H330.8z M329.2,315.7c0,1.1,0.5,1.3,1.5,1.3c2.6,0,3.8-1.9,3.8-4
		c0-1.4-0.5-2.6-1.6-3.2c-0.6-0.4-1.5-0.6-2.5-0.6c-0.6,0-1,0.1-1.1,0.2c-0.1,0.1-0.2,0.3-0.2,0.8V315.7z"/>
	<path d="M346.7,309.1c-0.8,0-1.2,0.3-1.2,0.8c0,0.4-0.1,0.9-0.1,2.2v1.1c0,1.6-0.3,2.8-1.1,3.6c-0.6,0.7-1.6,1-2.6,1
		c-0.9,0-1.7-0.2-2.3-0.7c-0.9-0.6-1.3-1.7-1.3-3.3v-3.2c0-1.3-0.1-1.3-1.2-1.4v-0.4h3.7v0.4c-1.1,0.1-1.2,0.1-1.2,1.4v3
		c0,2.2,0.9,3.5,2.6,3.5c2,0,2.6-1.6,2.6-3.8v-1c0-1.2,0-1.8-0.1-2.2c-0.1-0.5-0.4-0.7-1.3-0.8v-0.4h3.3V309.1z"/>
	<path d="M354.3,315.4c-0.1,0.5-0.4,1.8-0.5,2.2h-6.4v-0.4c1.2-0.1,1.3-0.2,1.3-1.4v-5.3c0-1.2-0.1-1.3-1.2-1.3v-0.4h3.8v0.4
		c-1.1,0.1-1.2,0.1-1.2,1.3v5.3c0,0.7,0.1,1,0.3,1.1c0.3,0.1,0.7,0.2,1.3,0.2c0.7,0,1.2-0.1,1.5-0.4c0.3-0.3,0.5-0.7,0.8-1.4
		L354.3,315.4z"/>
	<path d="M361.9,315.4c-0.1,0.5-0.4,1.8-0.5,2.2H355v-0.4c1.2-0.1,1.3-0.2,1.3-1.4v-5.3c0-1.2-0.1-1.3-1.2-1.3v-0.4h3.8v0.4
		c-1.1,0.1-1.2,0.1-1.2,1.3v5.3c0,0.7,0.1,1,0.3,1.1c0.3,0.1,0.7,0.2,1.3,0.2c0.7,0,1.2-0.1,1.5-0.4c0.3-0.3,0.5-0.7,0.8-1.4
		L361.9,315.4z"/>
	<path d="M368,317.5v-0.4c0.9-0.1,1-0.2,0.8-0.8c-0.2-0.5-0.4-1.2-0.7-2h-3c-0.2,0.6-0.4,1.2-0.6,1.7c-0.3,0.8-0.2,1,0.9,1.1v0.4
		h-3.1v-0.4c0.9-0.1,1.1-0.2,1.6-1.4l2.9-7.1l0.5-0.1c0.9,2.4,1.8,4.8,2.7,7.2c0.4,1.2,0.6,1.3,1.5,1.4v0.4H368z M366.7,310.4
		L366.7,310.4c-0.5,1.1-0.9,2.3-1.3,3.4h2.5L366.7,310.4z"/>
	<path d="M382.2,309.1c-1.2,0.1-1.3,0.2-1.3,1.3v5.4c0,1.2,0.1,1.2,1.3,1.3v0.4h-3.8v-0.4c1.2-0.1,1.3-0.2,1.3-1.3v-2.7h-4.8v2.7
		c0,1.1,0.1,1.2,1.3,1.3v0.4h-3.8v-0.4c1.1-0.1,1.2-0.2,1.2-1.3v-5.4c0-1.2-0.1-1.2-1.3-1.3v-0.4h3.7v0.4c-1.1,0.1-1.2,0.2-1.2,1.3
		v2.1h4.8v-2.1c0-1.1-0.1-1.2-1.2-1.3v-0.4h3.8V309.1z"/>
	<path d="M314,340.3V340c0.9-0.1,1-0.2,0.8-0.8c-0.2-0.5-0.4-1.2-0.7-2h-3c-0.2,0.6-0.4,1.2-0.6,1.7c-0.3,0.8-0.2,1,0.9,1.1v0.4
		h-3.1V340c0.9-0.1,1.1-0.2,1.6-1.4l2.9-7.1l0.5-0.1c0.9,2.4,1.8,4.8,2.7,7.2c0.4,1.2,0.6,1.3,1.5,1.4v0.4H314z M312.6,333.2
		L312.6,333.2c-0.5,1.1-0.9,2.3-1.3,3.4h2.5L312.6,333.2z"/>
	<path d="M325.2,338.2c-0.1,0.5-0.4,1.8-0.5,2.2h-6.4V340c1.2-0.1,1.3-0.2,1.3-1.4v-5.3c0-1.2-0.1-1.3-1.2-1.3v-0.4h3.8v0.4
		c-1.1,0.1-1.2,0.1-1.2,1.3v5.3c0,0.7,0.1,1,0.3,1.1c0.3,0.1,0.7,0.2,1.3,0.2c0.7,0,1.2-0.1,1.5-0.4c0.3-0.3,0.5-0.7,0.8-1.4
		L325.2,338.2z"/>
	<path d="M325.8,340.3V340c1.1-0.1,1.3-0.2,1.3-1.3v-5.4c0-1.2-0.1-1.3-1.3-1.3v-0.4h3.8v0.4c-1.1,0.1-1.2,0.2-1.2,1.3v5.4
		c0,1.2,0.1,1.3,1.2,1.3v0.4H325.8z"/>
	<path d="M313.4,356.5c-0.2-0.9-0.7-1.9-1.8-1.9c-1,0-1.5,0.7-1.5,1.5c0,1,0.6,1.4,1.8,2c1.2,0.6,2.4,1.2,2.4,2.7
		c0,1.5-1.2,2.6-3.1,2.6c-0.6,0-1-0.1-1.4-0.2c-0.4-0.1-0.5-0.2-0.7-0.3c-0.1-0.3-0.3-1.5-0.4-2.2l0.4-0.1c0.2,0.9,0.9,2.3,2.3,2.3
		c1,0,1.6-0.6,1.6-1.6c0-1-0.7-1.4-1.8-2c-1-0.5-2.3-1.2-2.3-2.7c0-1.4,1.1-2.5,2.9-2.5c0.7,0,1.3,0.2,1.8,0.3
		c0.1,0.5,0.1,1,0.2,1.9L313.4,356.5z"/>
	<path d="M324.8,354.7c-0.8,0-1.2,0.3-1.2,0.8c0,0.4-0.1,0.9-0.1,2.2v1.1c0,1.6-0.3,2.8-1.1,3.6c-0.6,0.7-1.6,1-2.6,1
		c-0.9,0-1.7-0.2-2.3-0.7c-0.9-0.6-1.3-1.7-1.3-3.3v-3.2c0-1.3-0.1-1.3-1.2-1.4v-0.4h3.7v0.4c-1.1,0.1-1.2,0.1-1.2,1.4v3
		c0,2.2,0.9,3.5,2.6,3.5c2,0,2.6-1.6,2.6-3.8v-1c0-1.2,0-1.8-0.1-2.2c-0.1-0.5-0.4-0.7-1.3-0.8v-0.4h3.3V354.7z"/>
	<path d="M333.4,363.1v-0.4c1.1-0.1,1.2-0.2,1.2-1.6l0-5.4h-0.1l-3.4,7.4h-0.3l-3.1-7.2h0l-0.2,3.8c-0.1,1.1-0.1,1.7,0,2.2
		c0,0.6,0.4,0.7,1.3,0.8v0.4h-3.3v-0.4c0.8-0.1,1.1-0.3,1.2-0.8c0.1-0.5,0.2-1.1,0.3-2.5l0.2-2.7c0.1-1.8,0-1.8-1.2-2v-0.4h2.4
		l3.1,6.7l3.2-6.7h2.4v0.4c-1.2,0.1-1.3,0.1-1.3,1.5l0.1,4.9c0,1.4,0.1,1.5,1.3,1.6v0.4H333.4z"/>
	<path d="M343.5,363.1v-0.4c0.9-0.1,1-0.2,0.8-0.8c-0.2-0.5-0.4-1.2-0.7-2h-3c-0.2,0.6-0.4,1.2-0.6,1.7c-0.3,0.8-0.2,1,0.9,1.1v0.4
		h-3.1v-0.4c0.9-0.1,1.1-0.2,1.6-1.4l2.9-7.1l0.5-0.1c0.9,2.4,1.8,4.8,2.7,7.2c0.4,1.2,0.6,1.3,1.5,1.4v0.4H343.5z M342.2,356
		L342.2,356c-0.5,1.1-0.9,2.3-1.3,3.4h2.5L342.2,356z"/>
	<path d="M356.1,354.7c-1,0.1-1.2,0.3-1.7,1.1c-0.6,0.9-1.1,1.7-1.7,2.9c-0.2,0.4-0.2,0.5-0.2,0.9v1.8c0,1.2,0.1,1.3,1.4,1.4v0.4h-4
		v-0.4c1.2-0.1,1.3-0.2,1.3-1.4v-1.7c0-0.3-0.1-0.4-0.3-0.8c-0.4-0.8-1-1.7-1.7-3c-0.5-0.9-0.7-1.1-1.5-1.2v-0.4h3.4v0.4
		c-1,0.1-0.9,0.3-0.7,0.8c0.6,1,1.3,2.2,1.9,3.2c0.5-0.9,1.3-2.2,1.7-3.1c0.3-0.6,0.3-0.8-0.8-0.9v-0.4h3.1V354.7z"/>
	<path d="M362.3,363.1v-0.4c0.9-0.1,1-0.2,0.8-0.8c-0.2-0.5-0.4-1.2-0.7-2h-3c-0.2,0.6-0.4,1.2-0.6,1.7c-0.3,0.8-0.2,1,0.9,1.1v0.4
		h-3.1v-0.4c0.9-0.1,1.1-0.2,1.6-1.4l2.9-7.1l0.5-0.1c0.9,2.4,1.8,4.8,2.7,7.2c0.4,1.2,0.6,1.3,1.5,1.4v0.4H362.3z M360.9,356
		L360.9,356c-0.5,1.1-0.9,2.3-1.3,3.4h2.5L360.9,356z"/>
</g>
</svg>
