<?xml version="1.0" encoding="utf-8"?>
<!-- Generator: Adobe Illustrator 22.1.0, SVG Export Plug-In . SVG Version: 6.00 Build 0)  -->
<svg version="1.1" id="Layer_1" xmlns="http://www.w3.org/2000/svg" xmlns:xlink="http://www.w3.org/1999/xlink" x="0px" y="0px"
	 viewBox="0 0 576 720" style="enable-background:new 0 0 576 720;" xml:space="preserve">
<style type="text/css">
	.st0{fill:#1EC6C1;stroke:#020203;stroke-width:2;stroke-miterlimit:10;}
</style>
<polygon class="st0" points="193.5,211.6 390.1,212.5 307.1,300.7 417.2,359.2 192.7,360.1 "/>
<g>
	<path d="M203.9,220.3c-0.3-1.1-0.8-2.3-2.3-2.3c-1.3,0-1.9,0.9-1.9,1.9c0,1.2,0.8,1.8,2.2,2.5c1.5,0.7,3,1.5,3,3.4
		c0,1.8-1.6,3.3-4,3.3c-0.7,0-1.3-0.1-1.8-0.3c-0.4-0.1-0.7-0.3-0.9-0.4c-0.1-0.3-0.4-1.9-0.5-2.7l0.5-0.2c0.3,1.1,1.1,2.9,2.9,2.9
		c1.3,0,2-0.8,2-2s-0.9-1.8-2.3-2.5c-1.2-0.6-2.9-1.5-2.9-3.4c0-1.7,1.4-3.1,3.7-3.1c0.8,0,1.6,0.2,2.3,0.4c0.1,0.6,0.2,1.3,0.3,2.4
		L203.9,220.3z"/>
	<path d="M212.4,217.3c3.1,0,5.9,2.2,5.9,5.7c0,3.7-2.8,6-6.1,6s-5.9-2.4-5.9-5.7C206.3,220.2,208.6,217.3,212.4,217.3L212.4,217.3z
		 M212.1,218c-2,0-3.8,1.6-3.8,4.9c0,3.2,1.9,5.5,4.4,5.5c2,0,3.8-1.6,3.8-4.9C216.4,219.9,214.4,218,212.1,218L212.1,218z"/>
	<path d="M230.8,225.8c-0.2,0.8-0.7,2.2-1,2.7c-0.5,0.1-2.1,0.5-3.4,0.5c-4.5,0-6.5-3-6.5-5.7c0-3.6,2.9-6,7-6
		c1.5,0,2.8,0.4,3.3,0.5c0.1,1,0.3,1.7,0.4,2.7l-0.5,0.1c-0.5-1.9-1.7-2.6-3.6-2.6c-3,0-4.6,2.4-4.6,5c0,3.2,2,5.4,4.7,5.4
		c1.8,0,2.8-1,3.7-2.7L230.8,225.8z"/>
	<path d="M242.8,225.8c-0.2,0.8-0.7,2.2-1,2.7c-0.5,0.1-2.1,0.5-3.4,0.5c-4.5,0-6.5-3-6.5-5.7c0-3.6,2.9-6,7-6
		c1.5,0,2.8,0.4,3.3,0.5c0.1,1,0.3,1.7,0.4,2.7l-0.5,0.1c-0.5-1.9-1.7-2.6-3.6-2.6c-3,0-4.6,2.4-4.6,5c0,3.2,2,5.4,4.7,5.4
		c1.8,0,2.8-1,3.7-2.7L242.8,225.8z"/>
	<path d="M252.9,226c-0.1,0.6-0.5,2.2-0.6,2.8h-8.6v-0.5c1.6-0.1,1.7-0.3,1.7-1.7v-6.7c0-1.6-0.2-1.6-1.5-1.7v-0.5h7.9
		c0,0.4,0.1,1.6,0.2,2.5l-0.5,0.1c-0.2-0.7-0.4-1.1-0.6-1.5c-0.3-0.4-0.7-0.5-1.9-0.5h-1.3c-0.6,0-0.6,0-0.6,0.6v3.8h1.6
		c1.6,0,1.7-0.1,1.9-1.3h0.5v3.4h-0.5c-0.2-1.3-0.4-1.3-1.9-1.3H247v3.2c0,0.8,0.1,1.2,0.4,1.4c0.3,0.2,1,0.2,1.8,0.2
		c1.3,0,1.8-0.1,2.2-0.6c0.3-0.4,0.6-1,0.9-1.7H252.9z"/>
	<path d="M264.4,228.9c-0.2,0-0.4,0-0.6,0c-1.4-0.1-2.1-0.4-3-1.6c-0.6-0.8-1.2-1.9-1.7-2.7c-0.3-0.5-0.6-0.7-1.5-0.7h-0.5v2.7
		c0,1.4,0.2,1.6,1.6,1.7v0.5H254v-0.5c1.4-0.1,1.6-0.2,1.6-1.7v-6.8c0-1.5-0.2-1.6-1.5-1.7v-0.5h4.5c1.3,0,2.2,0.2,2.8,0.6
		c0.7,0.4,1.2,1.2,1.2,2.2c0,1.5-1,2.4-2.2,2.9c0.3,0.6,1,1.7,1.5,2.5c0.6,0.9,1,1.4,1.4,1.8c0.4,0.5,0.8,0.7,1.2,0.8L264.4,228.9z
		 M257.9,223.3c0.9,0,1.5-0.1,1.9-0.5c0.7-0.5,0.9-1.2,0.9-2.1c0-1.8-1.2-2.5-2.5-2.5c-0.5,0-0.8,0.1-0.9,0.2
		c-0.1,0.1-0.2,0.3-0.2,0.7v4.2L257.9,223.3L257.9,223.3z"/>
	<path d="M203.9,249.1c-0.3-1.1-0.8-2.3-2.3-2.3c-1.3,0-1.9,0.9-1.9,1.9c0,1.2,0.8,1.8,2.2,2.5c1.5,0.7,3,1.5,3,3.4
		c0,1.8-1.6,3.3-4,3.3c-0.7,0-1.3-0.1-1.8-0.3c-0.4-0.1-0.7-0.3-0.9-0.4c-0.1-0.3-0.4-1.9-0.5-2.7l0.5-0.2c0.3,1.1,1.1,2.9,2.9,2.9
		c1.3,0,2-0.8,2-2c0-1.2-0.9-1.8-2.3-2.5c-1.2-0.6-2.9-1.5-2.9-3.4c0-1.7,1.4-3.1,3.7-3.1c0.8,0,1.6,0.2,2.3,0.4
		c0.1,0.6,0.2,1.3,0.3,2.4L203.9,249.1z"/>
	<path d="M214.6,257.5c-1.3-1.5-2.7-3.1-4.3-4.9c-0.4-0.5-0.6-0.6-0.9-0.5v3.2c0,1.5,0.2,1.7,1.6,1.8v0.5h-4.7v-0.5
		c1.3-0.1,1.5-0.2,1.5-1.8v-6.6c0-1.6-0.2-1.7-1.5-1.8v-0.5h4.7v0.5c-1.3,0.1-1.5,0.2-1.5,1.8v3c0.4-0.1,0.8-0.4,1.3-0.8
		c1-1,2.2-2.1,2.9-3c0.5-0.6,0.5-0.8-0.3-0.9H213v-0.5h4.3v0.5c-1.3,0.1-1.8,0.3-2.9,1.3c-0.7,0.7-1.9,1.8-3.1,2.9
		c1.3,1.6,3.2,3.7,4.1,4.7c0.9,1,1.3,1.1,2.1,1.3v0.5h-2.9V257.5z"/>
	<path d="M225.2,257.5V257c1.1-0.2,1.2-0.3,1-1c-0.2-0.7-0.6-1.5-0.9-2.5h-3.8c-0.3,0.8-0.5,1.5-0.8,2.1c-0.4,1-0.2,1.2,1.1,1.4v0.5
		h-3.9V257c1.1-0.2,1.4-0.3,2-1.8l3.7-8.9l0.6-0.2c1.1,3,2.2,6.1,3.4,9.1c0.6,1.5,0.8,1.7,1.9,1.8v0.5H225.2z M223.4,248.5
		L223.4,248.5c-0.6,1.4-1.1,2.9-1.7,4.3h3.2L223.4,248.5z"/>
	<path d="M240,249.2c-0.2-0.9-0.4-1.3-0.6-1.6c-0.3-0.4-0.6-0.5-1.9-0.5h-1.2v8.4c0,1.4,0.2,1.6,1.8,1.7v0.5h-5.2v-0.5
		c1.6-0.1,1.8-0.3,1.8-1.7V247h-1c-1.5,0-1.9,0.2-2.1,0.5c-0.2,0.3-0.4,0.8-0.6,1.6h-0.5c0.1-1.1,0.2-2.2,0.2-3.2h0.4
		c0.3,0.4,0.5,0.4,1,0.4h7.1c0.5,0,0.6-0.1,0.9-0.4h0.4c0,0.8,0.1,2.1,0.2,3.1L240,249.2z"/>
	<path d="M250.7,254.8c-0.1,0.6-0.5,2.2-0.6,2.8h-8.6v-0.5c1.6-0.1,1.7-0.3,1.7-1.7v-6.7c0-1.6-0.2-1.6-1.5-1.7v-0.5h7.9
		c0,0.4,0.1,1.6,0.2,2.5l-0.5,0.1c-0.2-0.7-0.4-1.1-0.6-1.5c-0.3-0.4-0.7-0.5-1.9-0.5h-1.3c-0.6,0-0.6,0-0.6,0.6v3.8h1.6
		c1.6,0,1.7-0.1,1.9-1.3h0.5v3.4h-0.5c-0.2-1.3-0.4-1.3-1.9-1.3h-1.6v3.2c0,0.8,0.1,1.2,0.4,1.4c0.3,0.2,1,0.2,1.8,0.2
		c1.3,0,1.8-0.1,2.2-0.6c0.3-0.4,0.6-1,0.9-1.7L250.7,254.8z"/>
	<path d="M257.7,251.6c1.8,0.2,3.2,1,3.2,2.7c0,1.1-0.6,2-1.7,2.6c-0.9,0.5-2.1,0.7-3.5,0.7h-4v-0.5c1.5-0.1,1.6-0.2,1.6-1.7v-6.8
		c0-1.5-0.1-1.6-1.5-1.7v-0.5h4.6c1.3,0,2.1,0.2,2.7,0.6c0.6,0.4,1,1.2,1,2C260.1,250.6,258.7,251.3,257.7,251.6L257.7,251.6z
		 M255.7,251.3c1.9,0,2.7-0.7,2.7-2.2c0-1.2-0.7-2.2-2.3-2.2c-0.4,0-0.8,0.1-1,0.2c-0.2,0.1-0.2,0.3-0.2,0.8v3.3L255.7,251.3
		L255.7,251.3z M254.9,255.3c0,1.3,0.3,1.6,1.4,1.6c1.4,0,2.6-0.7,2.6-2.5c0-1.7-1.2-2.5-3.3-2.5h-0.7V255.3z"/>
	<path d="M268.5,246.1c3.1,0,5.9,2.2,5.9,5.7c0,3.7-2.8,6-6.1,6c-3.3,0-5.9-2.4-5.9-5.7C262.3,249,264.6,246.1,268.5,246.1
		L268.5,246.1z M268.1,246.8c-2,0-3.8,1.6-3.8,4.9c0,3.2,1.9,5.5,4.4,5.5c2,0,3.8-1.6,3.8-4.9C272.4,248.7,270.4,246.8,268.1,246.8
		L268.1,246.8z"/>
	<path d="M282.7,257.5V257c1.1-0.2,1.2-0.3,1-1c-0.2-0.7-0.6-1.5-0.9-2.5H279c-0.3,0.8-0.5,1.5-0.8,2.1c-0.4,1-0.2,1.2,1.1,1.4v0.5
		h-3.9V257c1.1-0.2,1.4-0.3,2-1.8l3.7-8.9l0.6-0.2c1.1,3,2.2,6.1,3.4,9.1c0.6,1.5,0.8,1.7,1.9,1.8v0.5H282.7z M281,248.5L281,248.5
		c-0.6,1.4-1.1,2.9-1.7,4.3h3.2L281,248.5z"/>
	<path d="M298.6,257.7c-0.2,0-0.4,0-0.6,0c-1.4-0.1-2.1-0.4-3-1.6c-0.6-0.8-1.2-1.9-1.7-2.7c-0.3-0.5-0.6-0.7-1.5-0.7h-0.5v2.7
		c0,1.4,0.2,1.6,1.6,1.7v0.5h-4.7v-0.5c1.4-0.1,1.6-0.2,1.6-1.7v-6.8c0-1.5-0.2-1.6-1.5-1.7v-0.5h4.5c1.3,0,2.2,0.2,2.8,0.6
		c0.7,0.4,1.2,1.2,1.2,2.2c0,1.5-1,2.4-2.2,2.9c0.3,0.6,1,1.7,1.5,2.5c0.6,0.9,1,1.4,1.4,1.8c0.4,0.5,0.8,0.7,1.2,0.8L298.6,257.7z
		 M292.1,252.1c0.9,0,1.5-0.1,1.9-0.5c0.7-0.5,0.9-1.2,0.9-2.1c0-1.8-1.2-2.5-2.5-2.5c-0.5,0-0.8,0.1-0.9,0.2
		c-0.1,0.1-0.2,0.3-0.2,0.7v4.2L292.1,252.1L292.1,252.1z"/>
	<path d="M304.4,246.4c2.2,0,3.9,0.5,5,1.5c0.9,0.8,1.5,2.1,1.5,3.7c0,2-0.8,3.6-2.2,4.6c-1.3,1-3.1,1.4-5.3,1.4H299v-0.5
		c1.5-0.1,1.7-0.2,1.7-1.7v-6.8c0-1.5-0.2-1.5-1.5-1.7v-0.5L304.4,246.4L304.4,246.4z M302.4,255.2c0,1.4,0.6,1.7,1.9,1.7
		c3.3,0,4.8-2.4,4.8-5.1c0-1.8-0.7-3.2-2-4c-0.8-0.5-1.9-0.8-3.1-0.8c-0.8,0-1.2,0.1-1.4,0.2c-0.2,0.1-0.2,0.3-0.2,1L302.4,255.2
		L302.4,255.2z"/>
	<path d="M312.4,257.5V257c1.4-0.1,1.6-0.2,1.6-1.7v-6.8c0-1.5-0.2-1.6-1.6-1.7v-0.5h4.8v0.5c-1.4,0.1-1.6,0.2-1.6,1.7v6.8
		c0,1.5,0.2,1.6,1.6,1.7v0.5H312.4z"/>
	<path d="M330.8,246.9c-1,0-1.4,0.2-1.5,1c-0.1,0.6-0.1,1.3-0.1,2.9v6.9h-0.6l-7.7-8.9l0,0v4.2c0,1.6,0.1,2.4,0.1,2.9
		c0.1,0.9,0.5,1.1,1.7,1.2v0.5h-4.2v-0.5c1-0.1,1.5-0.3,1.5-1.1c0.1-0.5,0.1-1.3,0.1-2.9v-3.7c0-1.3-0.1-1.3-0.4-1.8
		c-0.4-0.4-0.7-0.6-1.6-0.6v-0.5h2.7l7.5,8.5l0,0v-4c0-1.6-0.1-2.4-0.1-2.9c-0.1-0.8-0.5-1-1.7-1.1v-0.5h4.2v0.4H330.8z"/>
	<path d="M343.7,252.8c-1,0.2-1.1,0.2-1.1,1.3v1.4c0,0.6,0,1.1,0.1,1.6c-1.1,0.3-2.6,0.7-4.1,0.7c-4,0-6.7-2.4-6.7-5.8
		c0-3.9,3.3-5.9,6.9-5.9c1.5,0,2.9,0.4,3.5,0.5c0,0.6,0.1,1.5,0.3,2.8l-0.5,0.1c-0.4-2.1-1.8-2.8-3.6-2.8c-2.7,0-4.7,1.9-4.7,5.1
		c0,2.5,1.5,5.4,4.9,5.4c0.6,0,1.1-0.1,1.5-0.3c0.4-0.2,0.6-0.4,0.6-1.1v-1.4c0-1.3-0.1-1.4-1.9-1.5v-0.5h4.6v0.4H343.7z"/>
	<path d="M209.4,275.7c-1.2,0.1-1.4,0.3-2.1,1.9c-0.5,1.1-2.3,5.4-3.7,8.9H203c-1.2-3.1-2.7-6.8-3.7-9.3c-0.5-1.3-0.8-1.5-1.9-1.5
		v-0.5h4.5v0.5c-1.3,0.1-1.3,0.3-1,1.1c0.5,1.2,1.8,4.6,2.9,7.3l0,0c1-2.3,2.2-5.4,2.7-7c0.4-1,0.3-1.2-1.2-1.3v-0.5h4L209.4,275.7
		L209.4,275.7z"/>
	<path d="M210.3,286.3v-0.5c1.4-0.1,1.6-0.2,1.6-1.7v-6.8c0-1.5-0.2-1.6-1.6-1.7v-0.5h4.8v0.5c-1.4,0.1-1.6,0.2-1.6,1.7v6.8
		c0,1.5,0.2,1.6,1.6,1.7v0.5H210.3z"/>
	<path d="M221.7,275.2c2.2,0,3.9,0.5,5,1.5c0.9,0.8,1.5,2.1,1.5,3.7c0,2-0.8,3.6-2.2,4.6c-1.3,1-3.1,1.4-5.3,1.4h-4.4v-0.5
		c1.5-0.1,1.7-0.2,1.7-1.7v-6.8c0-1.5-0.2-1.5-1.5-1.7v-0.5H221.7z M219.6,284c0,1.4,0.6,1.7,1.9,1.7c3.3,0,4.8-2.4,4.8-5.1
		c0-1.8-0.7-3.2-2-4c-0.8-0.5-1.9-0.8-3.1-0.8c-0.8,0-1.2,0.1-1.4,0.2s-0.2,0.3-0.2,1V284z"/>
	<path d="M238.7,283.6c-0.1,0.6-0.5,2.2-0.6,2.8h-8.6v-0.5c1.6-0.1,1.7-0.3,1.7-1.7v-6.7c0-1.6-0.2-1.6-1.5-1.7v-0.5h7.9
		c0,0.4,0.1,1.6,0.2,2.5l-0.5,0.1c-0.2-0.7-0.4-1.1-0.6-1.5c-0.3-0.4-0.7-0.5-1.9-0.5h-1.3c-0.6,0-0.6,0-0.6,0.6v3.8h1.6
		c1.6,0,1.7-0.1,1.9-1.3h0.5v3.4h-0.5c-0.2-1.3-0.4-1.3-1.9-1.3h-1.6v3.2c0,0.8,0.1,1.2,0.4,1.4c0.3,0.2,1,0.2,1.8,0.2
		c1.3,0,1.8-0.1,2.2-0.6c0.3-0.4,0.6-1,0.9-1.7L238.7,283.6z"/>
	<path d="M246,274.9c3.1,0,5.9,2.2,5.9,5.7c0,3.7-2.8,6-6.1,6s-5.9-2.4-5.9-5.7C239.8,277.8,242.2,274.9,246,274.9L246,274.9z
		 M245.6,275.6c-2,0-3.8,1.6-3.8,4.9c0,3.2,1.9,5.5,4.4,5.5c2,0,3.8-1.6,3.8-4.9C249.9,277.5,247.9,275.6,245.6,275.6L245.6,275.6z"
		/>
	<path d="M269.8,281.6c-1,0.2-1.1,0.2-1.1,1.3v1.4c0,0.6,0,1.1,0.1,1.6c-1.1,0.3-2.6,0.7-4.1,0.7c-4,0-6.7-2.4-6.7-5.8
		c0-3.9,3.3-5.9,6.9-5.9c1.5,0,2.9,0.4,3.5,0.5c0,0.6,0.1,1.5,0.3,2.8l-0.5,0.1c-0.4-2.1-1.8-2.8-3.6-2.8c-2.7,0-4.7,1.9-4.7,5.1
		c0,2.5,1.5,5.4,4.9,5.4c0.6,0,1.1-0.1,1.5-0.3c0.4-0.2,0.6-0.4,0.6-1.1v-1.4c0-1.3-0.1-1.4-1.9-1.5v-0.5h4.6v0.4H269.8z"/>
	<path d="M277.8,286.3v-0.5c1.1-0.2,1.2-0.3,1-1s-0.6-1.5-0.9-2.5h-3.8c-0.3,0.8-0.5,1.5-0.8,2.1c-0.4,1-0.2,1.2,1.1,1.4v0.5h-3.9
		v-0.5c1.1-0.2,1.4-0.3,2-1.8l3.7-8.9l0.6-0.2c1.1,3,2.2,6.1,3.4,9.1c0.6,1.5,0.8,1.7,1.9,1.8v0.5H277.8z M276.1,277.3L276.1,277.3
		c-0.6,1.4-1.1,2.9-1.7,4.3h3.2L276.1,277.3z"/>
	<path d="M293.1,286.3v-0.5c1.4-0.1,1.5-0.3,1.5-2.1l-0.1-6.9h-0.1l-4.3,9.3h-0.4l-3.9-9.1l0,0l-0.3,4.8c-0.1,1.4-0.1,2.1,0,2.8
		c0,0.8,0.4,0.9,1.6,1v0.5H283v-0.5c1-0.1,1.3-0.3,1.5-1c0.1-0.6,0.2-1.3,0.3-3.2l0.3-3.4c0.2-2.2,0-2.3-1.5-2.5V275h3l4,8.4l4-8.4
		h3.1v0.5c-1.5,0.1-1.6,0.2-1.6,1.9l0.2,6.2c0.1,1.8,0.1,1.9,1.6,2.1v0.5h-4.8V286.3z"/>
	<path d="M308.1,283.6c-0.1,0.6-0.5,2.2-0.6,2.8h-8.6v-0.5c1.6-0.1,1.7-0.3,1.7-1.7v-6.7c0-1.6-0.2-1.6-1.5-1.7v-0.5h7.9
		c0,0.4,0.1,1.6,0.2,2.5l-0.5,0.1c-0.2-0.7-0.4-1.1-0.6-1.5c-0.3-0.4-0.7-0.5-1.9-0.5h-1.3c-0.6,0-0.6,0-0.6,0.6v3.8h1.6
		c1.6,0,1.7-0.1,1.9-1.3h0.5v3.4h-0.5c-0.2-1.3-0.4-1.3-1.9-1.3h-1.6v3.2c0,0.8,0.1,1.2,0.4,1.4c0.3,0.2,1,0.2,1.8,0.2
		c1.3,0,1.8-0.1,2.2-0.6c0.3-0.4,0.6-1,0.9-1.7L308.1,283.6z"/>
	<path d="M315.2,277.9c-0.3-1.1-0.8-2.3-2.3-2.3c-1.3,0-1.9,0.9-1.9,1.9c0,1.2,0.8,1.8,2.2,2.5c1.5,0.7,3,1.5,3,3.4
		c0,1.8-1.6,3.3-4,3.3c-0.7,0-1.3-0.1-1.8-0.3c-0.4-0.1-0.7-0.3-0.9-0.4c-0.1-0.3-0.4-1.9-0.5-2.7l0.5-0.2c0.3,1.1,1.1,2.9,2.9,2.9
		c1.3,0,2-0.8,2-2s-0.9-1.8-2.3-2.5c-1.2-0.6-2.9-1.5-2.9-3.4c0-1.7,1.4-3.1,3.7-3.1c0.8,0,1.6,0.2,2.3,0.4c0.1,0.6,0.2,1.3,0.3,2.4
		L315.2,277.9z"/>
	<path d="M203,304c2.2,0,3.9,0.5,5,1.5c0.9,0.8,1.5,2.1,1.5,3.7c0,2-0.8,3.6-2.2,4.6c-1.3,1-3.1,1.4-5.3,1.4h-4.4v-0.5
		c1.5-0.1,1.7-0.2,1.7-1.7v-6.8c0-1.5-0.2-1.5-1.5-1.7V304H203z M201,312.8c0,1.4,0.6,1.7,1.9,1.7c3.3,0,4.8-2.4,4.8-5.1
		c0-1.8-0.7-3.2-2-4c-0.8-0.5-1.9-0.8-3.1-0.8c-0.8,0-1.2,0.1-1.4,0.2s-0.2,0.3-0.2,1V312.8z"/>
	<path d="M220.1,312.4c-0.1,0.6-0.5,2.2-0.6,2.8h-8.6v-0.5c1.6-0.1,1.7-0.3,1.7-1.7v-6.7c0-1.6-0.2-1.6-1.5-1.7V304h7.9
		c0,0.4,0.1,1.6,0.2,2.5l-0.5,0.1c-0.2-0.7-0.4-1.1-0.6-1.5c-0.3-0.4-0.7-0.5-1.9-0.5h-1.3c-0.6,0-0.6,0-0.6,0.6v3.8h1.6
		c1.6,0,1.7-0.1,1.9-1.3h0.5v3.4h-0.5c-0.2-1.3-0.4-1.3-1.9-1.3h-1.6v3.2c0,0.8,0.1,1.2,0.4,1.4c0.3,0.2,1,0.2,1.8,0.2
		c1.3,0,1.8-0.1,2.2-0.6c0.3-0.4,0.6-1,0.9-1.7L220.1,312.4z"/>
	<path d="M227.2,306.7c-0.3-1.1-0.8-2.3-2.3-2.3c-1.3,0-1.9,0.9-1.9,1.9c0,1.2,0.8,1.8,2.2,2.5c1.5,0.7,3,1.5,3,3.4
		c0,1.8-1.6,3.3-4,3.3c-0.7,0-1.3-0.1-1.8-0.3c-0.4-0.1-0.7-0.3-0.9-0.4c-0.1-0.3-0.4-1.9-0.5-2.7l0.5-0.2c0.3,1.1,1.1,2.9,2.9,2.9
		c1.3,0,2-0.8,2-2s-0.9-1.8-2.3-2.5c-1.2-0.6-2.9-1.5-2.9-3.4c0-1.7,1.4-3.1,3.7-3.1c0.8,0,1.6,0.2,2.3,0.4c0.1,0.6,0.2,1.3,0.3,2.4
		L227.2,306.7z"/>
	<path d="M229.5,315.1v-0.5c1.4-0.1,1.6-0.2,1.6-1.7v-6.8c0-1.5-0.2-1.6-1.6-1.7V304h4.8v0.5c-1.4,0.1-1.6,0.2-1.6,1.7v6.8
		c0,1.5,0.2,1.6,1.6,1.7v0.5h-4.8V315.1z"/>
	<path d="M247.5,310.4c-1,0.2-1.1,0.2-1.1,1.3v1.4c0,0.6,0,1.1,0.1,1.6c-1.1,0.3-2.6,0.7-4.1,0.7c-4,0-6.7-2.4-6.7-5.8
		c0-3.9,3.3-5.9,6.9-5.9c1.5,0,2.9,0.4,3.5,0.5c0,0.6,0.1,1.5,0.3,2.8l-0.5,0.1c-0.4-2.1-1.8-2.8-3.6-2.8c-2.7,0-4.7,1.9-4.7,5.1
		c0,2.5,1.5,5.4,4.9,5.4c0.6,0,1.1-0.1,1.5-0.3c0.4-0.2,0.6-0.4,0.6-1.1V312c0-1.3-0.1-1.4-1.9-1.5V310h4.6v0.4H247.5z"/>
	<path d="M260.7,304.5c-1,0-1.4,0.2-1.5,1c-0.1,0.6-0.1,1.3-0.1,2.9v6.9h-0.6l-7.7-8.9l0,0v4.2c0,1.6,0.1,2.4,0.1,2.9
		c0.1,0.9,0.5,1.1,1.7,1.2v0.5h-4.2v-0.5c1-0.1,1.5-0.3,1.5-1.1c0.1-0.5,0.1-1.3,0.1-2.9V307c0-1.3-0.1-1.3-0.4-1.8
		c-0.4-0.4-0.7-0.6-1.6-0.6V304h2.7l7.5,8.5l0,0v-4c0-1.6-0.1-2.4-0.1-2.9c-0.1-0.8-0.5-1-1.7-1.1V304h4.2v0.5H260.7z"/>
	<path d="M261.8,315.1v-0.5c1.4-0.1,1.6-0.2,1.6-1.7v-6.8c0-1.5-0.2-1.6-1.6-1.7V304h4.8v0.5c-1.4,0.1-1.6,0.2-1.6,1.7v6.8
		c0,1.5,0.2,1.6,1.6,1.7v0.5h-4.8V315.1z"/>
	<path d="M280.1,304.5c-1,0-1.4,0.2-1.5,1c-0.1,0.6-0.1,1.3-0.1,2.9v6.9H278l-7.7-8.9l0,0v4.2c0,1.6,0.1,2.4,0.1,2.9
		c0.1,0.9,0.5,1.1,1.7,1.2v0.5h-4.2v-0.5c1-0.1,1.5-0.3,1.5-1.1c0.1-0.5,0.1-1.3,0.1-2.9V307c0-1.3-0.1-1.3-0.4-1.8
		c-0.4-0.4-0.7-0.6-1.6-0.6V304h2.7l7.5,8.5l0,0v-4c0-1.6-0.1-2.4-0.1-2.9c-0.1-0.8-0.5-1-1.7-1.1V304h4.2V304.5z"/>
	<path d="M293,310.4c-1,0.2-1.1,0.2-1.1,1.3v1.4c0,0.6,0,1.1,0.1,1.6c-1.1,0.3-2.6,0.7-4.1,0.7c-4,0-6.7-2.4-6.7-5.8
		c0-3.9,3.3-5.9,6.9-5.9c1.5,0,2.9,0.4,3.5,0.5c0,0.6,0.1,1.5,0.3,2.8l-0.5,0.1c-0.4-2.1-1.8-2.8-3.6-2.8c-2.7,0-4.7,1.9-4.7,5.1
		c0,2.5,1.5,5.4,4.9,5.4c0.6,0,1.1-0.1,1.5-0.3c0.4-0.2,0.6-0.4,0.6-1.1V312c0-1.3-0.1-1.4-1.9-1.5V310h4.6v0.4H293z"/>
	<path d="M207.7,343.9v-0.5c1.4-0.1,1.5-0.3,1.5-2.1l-0.1-6.9H209l-4.3,9.3h-0.4l-3.9-9.1l0,0l-0.3,4.8c-0.1,1.4-0.1,2.1,0,2.8
		c0,0.8,0.4,0.9,1.6,1v0.5h-4.1v-0.5c1-0.1,1.3-0.3,1.5-1c0.1-0.6,0.2-1.3,0.3-3.2l0.3-3.4c0.2-2.2,0-2.3-1.5-2.5v-0.5h3l4,8.4
		l4-8.4h3.1v0.5c-1.5,0.1-1.6,0.2-1.6,1.9l0.2,6.2c0.1,1.8,0.1,1.9,1.6,2.1v0.5h-4.8V343.9z"/>
	<path d="M220.5,343.9v-0.5c1.1-0.2,1.2-0.3,1-1s-0.6-1.5-0.9-2.5h-3.8c-0.3,0.8-0.5,1.5-0.8,2.1c-0.4,1-0.2,1.2,1.1,1.4v0.5h-3.9
		v-0.5c1.1-0.2,1.4-0.3,2-1.8l3.7-8.9l0.6-0.2c1.1,3,2.2,6.1,3.4,9.1c0.6,1.5,0.8,1.7,1.9,1.8v0.5H220.5z M218.8,334.9L218.8,334.9
		c-0.6,1.4-1.1,2.9-1.7,4.3h3.2L218.8,334.9z"/>
	<path d="M237.7,339.2c-1,0.2-1.1,0.2-1.1,1.3v1.4c0,0.6,0,1.1,0.1,1.6c-1.1,0.3-2.6,0.7-4.1,0.7c-4,0-6.7-2.4-6.7-5.8
		c0-3.9,3.3-5.9,6.9-5.9c1.5,0,2.9,0.4,3.5,0.5c0,0.6,0.1,1.5,0.3,2.8l-0.5,0.1c-0.4-2.1-1.8-2.8-3.6-2.8c-2.7,0-4.7,1.9-4.7,5.1
		c0,2.5,1.5,5.4,4.9,5.4c0.6,0,1.1-0.1,1.5-0.3c0.4-0.2,0.6-0.4,0.6-1.1v-1.4c0-1.3-0.1-1.4-1.9-1.5v-0.5h4.6v0.4H237.7z"/>
	<path d="M245.7,343.9v-0.5c1.1-0.2,1.2-0.3,1-1s-0.6-1.5-0.9-2.5H242c-0.3,0.8-0.5,1.5-0.8,2.1c-0.4,1-0.2,1.2,1.1,1.4v0.5h-3.9
		v-0.5c1.1-0.2,1.4-0.3,2-1.8l3.7-8.9l0.6-0.2c1.1,3,2.2,6.1,3.4,9.1c0.6,1.5,0.8,1.7,1.9,1.8v0.5H245.7z M244,334.9L244,334.9
		c-0.6,1.4-1.1,2.9-1.7,4.3h3.2L244,334.9z"/>
	<path d="M261.1,340.9c-0.1,0.7-0.4,2.3-0.6,3h-9.3l-0.2-0.3c2.5-3.4,4.9-6.7,7.4-10.2h-3.1c-1.9,0-2.2,0.2-2.5,0.6
		c-0.2,0.3-0.4,0.8-0.6,1.5h-0.5c0.1-1.2,0.2-2.5,0.2-3.2h0.4c0.2,0.4,0.4,0.4,0.9,0.4h7.2l0.1,0.3c-2.5,3.4-4.9,6.7-7.3,10.1
		c0.6,0.1,1.6,0.1,2.8,0.1c2.1,0,2.9-0.1,3.4-0.7c0.4-0.4,0.6-0.9,1-1.8L261.1,340.9z"/>
	<path d="M262,343.9v-0.5c1.4-0.1,1.6-0.2,1.6-1.7V335c0-1.5-0.2-1.6-1.6-1.7v-0.5h4.8v0.5c-1.4,0.1-1.6,0.2-1.6,1.7v6.8
		c0,1.5,0.2,1.6,1.6,1.7v0.5H262V343.9z"/>
	<path d="M280.3,333.3c-1,0-1.4,0.2-1.5,1c-0.1,0.6-0.1,1.3-0.1,2.9v6.9h-0.6l-7.7-8.9l0,0v4.2c0,1.6,0.1,2.4,0.1,2.9
		c0.1,0.9,0.5,1.1,1.7,1.2v0.5H268v-0.5c1-0.1,1.5-0.3,1.5-1.1c0.1-0.5,0.1-1.3,0.1-2.9v-3.7c0-1.3-0.1-1.3-0.4-1.8
		c-0.4-0.4-0.7-0.6-1.6-0.6v-0.5h2.7l7.5,8.5l0,0v-4c0-1.6-0.1-2.4-0.1-2.9c-0.1-0.8-0.5-1-1.7-1.1v-0.5h4.2L280.3,333.3
		L280.3,333.3z"/>
	<path d="M290.4,341.2c-0.1,0.6-0.5,2.2-0.6,2.8h-8.6v-0.5c1.6-0.1,1.7-0.3,1.7-1.7v-6.7c0-1.6-0.2-1.6-1.5-1.7v-0.5h7.9
		c0,0.4,0.1,1.6,0.2,2.5l-0.5,0.1c-0.2-0.7-0.4-1.1-0.6-1.5c-0.3-0.4-0.7-0.5-1.9-0.5h-1.3c-0.6,0-0.6,0-0.6,0.6v3.8h1.6
		c1.6,0,1.7-0.1,1.9-1.3h0.5v3.4h-0.5c-0.2-1.3-0.4-1.3-1.9-1.3h-1.6v3.2c0,0.8,0.1,1.2,0.4,1.4c0.3,0.2,1,0.2,1.8,0.2
		c1.3,0,1.8-0.1,2.2-0.6c0.3-0.4,0.6-1,0.9-1.7L290.4,341.2z"/>
	<path d="M297.5,335.5c-0.3-1.1-0.8-2.3-2.3-2.3c-1.3,0-1.9,0.9-1.9,1.9c0,1.2,0.8,1.8,2.2,2.5c1.5,0.7,3,1.5,3,3.4
		c0,1.8-1.6,3.3-4,3.3c-0.7,0-1.3-0.1-1.8-0.3c-0.4-0.1-0.7-0.3-0.9-0.4c-0.1-0.3-0.4-1.9-0.5-2.7l0.5-0.2c0.3,1.1,1.1,2.9,2.9,2.9
		c1.3,0,2-0.8,2-2s-0.9-1.8-2.3-2.5c-1.2-0.6-2.9-1.5-2.9-3.4c0-1.7,1.4-3.1,3.7-3.1c0.8,0,1.6,0.2,2.3,0.4c0.1,0.6,0.2,1.3,0.3,2.4
		L297.5,335.5z"/>
</g>
</svg>
