<?xml version="1.0" encoding="utf-8"?>
<!-- Generator: Adobe Illustrator 22.1.0, SVG Export Plug-In . SVG Version: 6.00 Build 0)  -->
<svg version="1.1" id="Layer_1" xmlns="http://www.w3.org/2000/svg" xmlns:xlink="http://www.w3.org/1999/xlink" x="0px" y="0px"
	 viewBox="0 0 576 720" style="enable-background:new 0 0 576 720;" xml:space="preserve">
<style type="text/css">
	.st0{fill:none;stroke:#020203;stroke-width:2;stroke-miterlimit:10;}
	.st1{fill:#E5CF00;}
</style>
<path class="st0" d="M254.4,421.8l124.8-123.7l-174.6-0.1C204.5,298.1,197,366.3,254.4,421.8z"/>
<polygon class="st1" points="322.8,343.8 297,333.2 284,340.3 310,351.5 "/>
<path class="st1" d="M299.3,333.8c0,0-1.5-7.2-9.7-8.2c-8.2-1-12.5,6-12.5,6s-2.8,8.3,2.2,12.3s9.8,4,9.8,4s4-1.2,4.8-3.3l13,5.7
	c0,0-3.7,11.5-20.2,10.5s-35-19.7-17.8-40.5c0,0,13.3-15.2,33.2-4.5c0,0,12,5.2,10.7,23.7"/>
<path d="M270.9,339.3l-13,7.1c0,0-11.8-3.8-15.2,8.9c-3.4,12.7,11.5,13.5,11.5,13.5s8.9,0.4,10.1-7.8l-4.5,1.9l-6-10l19.4-10.9
	c0,0,16.4,21.1-8.6,37.5c0,0-23,10.1-33.9-13.4c0,0-6.7-31.5,22.5-33.2C253.3,333,264.6,332.1,270.9,339.3z"/>
</svg>
