<?xml version="1.0" encoding="utf-8"?>
<!-- Generator: Adobe Illustrator 22.1.0, SVG Export Plug-In . SVG Version: 6.00 Build 0)  -->
<svg version="1.1" id="Layer_1" xmlns="http://www.w3.org/2000/svg" xmlns:xlink="http://www.w3.org/1999/xlink" x="0px" y="0px"
	 viewBox="0 0 576 720" style="enable-background:new 0 0 576 720;" xml:space="preserve">
<style type="text/css">
	.st0{fill:#BFDBAD;stroke:#020203;stroke-width:2;stroke-miterlimit:10;}
</style>
<polygon class="st0" points="176.1,299.2 401,298.4 288.5,421.4 "/>
<g>
	<path d="M224.1,313.6c-1.2,0.2-1.4,0.3-1.9,1.8c-0.4,1.1-1.5,4.3-2.9,9h-0.6c-1-2.7-2.2-6-3.1-8.4h0c-1,2.9-2,5.7-2.9,8.4H212
		c-0.9-3.1-1.9-6.1-2.9-9.1c-0.4-1.4-0.7-1.6-1.8-1.7V313h4.4v0.5c-1.3,0.2-1.3,0.3-1.1,1.2c0.7,2.2,1.4,4.5,2.1,6.9h0
		c0.9-2.8,1.9-5.7,2.8-8.5h0.6c1,2.8,2,5.6,3.1,8.5h0c0.8-2.3,1.7-5.6,2-6.7c0.2-1,0.2-1.2-1.2-1.4V313h3.9V313.6z"/>
	<path d="M231.3,312.8c3.1,0,5.9,2.2,5.9,5.7c0,3.7-2.8,6-6.1,6c-3.3,0-5.9-2.4-5.9-5.7C225.1,315.6,227.4,312.8,231.3,312.8
		L231.3,312.8z M230.9,313.4c-2,0-3.8,1.6-3.8,4.9c0,3.2,1.9,5.5,4.4,5.5c2,0,3.8-1.6,3.8-4.9C235.2,315.3,233.2,313.4,230.9,313.4
		L230.9,313.4z"/>
	<path d="M249,324.3c-0.2,0-0.4,0-0.6,0c-1.4-0.1-2.1-0.4-3-1.6c-0.6-0.8-1.2-1.9-1.7-2.7c-0.3-0.5-0.6-0.7-1.5-0.7h-0.5v2.7
		c0,1.4,0.2,1.6,1.6,1.7v0.5h-4.7v-0.5c1.4-0.1,1.6-0.2,1.6-1.7v-6.8c0-1.5-0.2-1.6-1.5-1.7V313h4.5c1.3,0,2.2,0.2,2.8,0.6
		c0.7,0.4,1.2,1.2,1.2,2.2c0,1.5-1,2.4-2.2,2.9c0.3,0.6,1,1.7,1.5,2.5c0.6,0.9,1,1.4,1.4,1.8c0.4,0.5,0.8,0.7,1.2,0.8L249,324.3z
		 M242.5,318.8c0.9,0,1.5-0.1,1.9-0.5c0.7-0.5,0.9-1.2,0.9-2.1c0-1.8-1.2-2.5-2.5-2.5c-0.5,0-0.8,0.1-0.9,0.2
		c-0.1,0.1-0.2,0.3-0.2,0.7v4.2H242.5z"/>
	<path d="M258.1,324.2c-1.3-1.5-2.7-3.1-4.3-4.9c-0.4-0.5-0.6-0.6-0.9-0.5v3.2c0,1.5,0.2,1.7,1.6,1.8v0.5h-4.7v-0.5
		c1.3-0.1,1.5-0.2,1.5-1.8v-6.6c0-1.6-0.2-1.7-1.5-1.8V313h4.7v0.5c-1.3,0.1-1.5,0.2-1.5,1.8v3c0.4-0.1,0.8-0.4,1.3-0.8
		c1-1,2.2-2.1,2.9-3c0.5-0.6,0.5-0.8-0.3-0.9l-0.4,0V313h4.3v0.5c-1.3,0.1-1.8,0.3-2.9,1.3c-0.7,0.7-1.9,1.8-3.1,2.9
		c1.3,1.6,3.2,3.7,4.1,4.7c0.9,1,1.3,1.1,2.1,1.3v0.5H258.1z"/>
	<path d="M261.7,324.2v-0.5c1.4-0.1,1.6-0.2,1.6-1.7v-6.8c0-1.5-0.2-1.6-1.6-1.7V313h4.8v0.5c-1.4,0.1-1.6,0.2-1.6,1.7v6.8
		c0,1.5,0.2,1.6,1.6,1.7v0.5H261.7z"/>
	<path d="M280,313.6c-1,0-1.4,0.2-1.5,1c-0.1,0.6-0.1,1.3-0.1,2.9v6.9h-0.6l-7.7-8.9h0l0,4.2c0,1.6,0.1,2.4,0.1,2.9
		c0.1,0.9,0.5,1.1,1.7,1.2v0.5h-4.2v-0.5c1-0.1,1.5-0.3,1.5-1.1c0.1-0.5,0.1-1.3,0.1-2.9v-3.7c0-1.3-0.1-1.3-0.4-1.8
		c-0.4-0.4-0.7-0.6-1.6-0.6V313h2.7l7.5,8.5h0v-4c0-1.6-0.1-2.4-0.1-2.9c-0.1-0.8-0.5-1-1.7-1.1V313h4.2V313.6z"/>
	<path d="M292.9,319.5c-1,0.2-1.1,0.2-1.1,1.3v1.4c0,0.6,0,1.1,0.1,1.6c-1.1,0.3-2.6,0.7-4.1,0.7c-4,0-6.7-2.4-6.7-5.8
		c0-3.9,3.3-5.9,6.9-5.9c1.5,0,2.9,0.4,3.5,0.5c0,0.6,0.1,1.5,0.3,2.8l-0.5,0.1c-0.4-2.1-1.8-2.8-3.6-2.8c-2.7,0-4.7,1.9-4.7,5.1
		c0,2.5,1.5,5.4,4.9,5.4c0.6,0,1.1-0.1,1.5-0.3c0.4-0.2,0.6-0.4,0.6-1.1V321c0-1.3-0.1-1.4-1.9-1.5V319h4.6V319.5z"/>
	<path d="M305,312.8c3.1,0,5.9,2.2,5.9,5.7c0,3.7-2.8,6-6.1,6c-3.3,0-5.9-2.4-5.9-5.7C298.8,315.6,301.1,312.8,305,312.8L305,312.8z
		 M304.6,313.4c-2,0-3.8,1.6-3.8,4.9c0,3.2,1.9,5.5,4.4,5.5c2,0,3.8-1.6,3.8-4.9C308.9,315.3,306.9,313.4,304.6,313.4L304.6,313.4z"
		/>
	<path d="M324.5,313.6c-1,0-1.4,0.2-1.5,1c-0.1,0.6-0.1,1.3-0.1,2.9v6.9h-0.6l-7.7-8.9h0l0,4.2c0,1.6,0.1,2.4,0.1,2.9
		c0.1,0.9,0.5,1.1,1.7,1.2v0.5h-4.2v-0.5c1-0.1,1.5-0.3,1.5-1.1c0.1-0.5,0.1-1.3,0.1-2.9v-3.7c0-1.3-0.1-1.3-0.4-1.8
		c-0.4-0.4-0.7-0.6-1.6-0.6V313h2.7l7.5,8.5h0v-4c0-1.6-0.1-2.4-0.1-2.9c-0.1-0.8-0.5-1-1.7-1.1V313h4.2V313.6z"/>
	<path d="M339.7,315.8c-0.2-0.9-0.4-1.3-0.6-1.6c-0.3-0.4-0.6-0.5-1.9-0.5h-1.2v8.4c0,1.4,0.2,1.6,1.8,1.7v0.5h-5.2v-0.5
		c1.6-0.1,1.8-0.3,1.8-1.7v-8.4h-1c-1.5,0-1.9,0.2-2.1,0.5c-0.2,0.3-0.4,0.8-0.6,1.6H330c0.1-1.1,0.2-2.2,0.2-3.2h0.4
		c0.3,0.4,0.5,0.4,1,0.4h7.1c0.5,0,0.6-0.1,0.9-0.4h0.4c0,0.8,0.1,2.1,0.2,3.1L339.7,315.8z"/>
	<path d="M353.7,313.6c-1.5,0.1-1.6,0.2-1.6,1.7v6.8c0,1.5,0.2,1.5,1.6,1.7v0.5h-4.9v-0.5c1.5-0.1,1.7-0.2,1.7-1.7v-3.4h-6v3.4
		c0,1.4,0.1,1.5,1.6,1.7v0.5h-4.8v-0.5c1.4-0.1,1.5-0.2,1.5-1.7v-6.8c0-1.5-0.1-1.5-1.6-1.7V313h4.7v0.5c-1.4,0.1-1.5,0.2-1.5,1.7
		v2.7h6v-2.7c0-1.4-0.1-1.5-1.5-1.7V313h4.7V313.6z"/>
	<path d="M355.1,324.2v-0.5c1.4-0.1,1.6-0.2,1.6-1.7v-6.8c0-1.5-0.2-1.6-1.6-1.7V313h4.8v0.5c-1.4,0.1-1.6,0.2-1.6,1.7v6.8
		c0,1.5,0.2,1.6,1.6,1.7v0.5H355.1z"/>
	<path d="M367.3,315.7c-0.3-1.1-0.8-2.3-2.3-2.3c-1.3,0-1.9,0.9-1.9,1.9c0,1.2,0.8,1.8,2.2,2.5c1.5,0.7,3,1.5,3,3.4
		c0,1.8-1.6,3.3-4,3.3c-0.7,0-1.3-0.1-1.8-0.3c-0.4-0.1-0.7-0.3-0.9-0.4c-0.1-0.3-0.4-1.9-0.5-2.7l0.5-0.2c0.3,1.1,1.1,2.9,2.9,2.9
		c1.3,0,2-0.8,2-2c0-1.2-0.9-1.8-2.3-2.5c-1.2-0.6-2.9-1.5-2.9-3.4c0-1.7,1.4-3.1,3.7-3.1c0.8,0,1.6,0.2,2.3,0.4
		c0.1,0.6,0.2,1.3,0.3,2.4L367.3,315.7z"/>
	<path d="M256.4,341.8c1.3,0,2.3,0.2,3,0.7s1.1,1.3,1.1,2.4c0,2.2-1.7,3.3-3.4,3.5c-0.3,0-0.6,0-0.8,0l-1.3-0.3v2.6
		c0,1.5,0.2,1.6,1.7,1.7v0.5h-4.9v-0.5c1.4-0.1,1.5-0.3,1.5-1.7V344c0-1.5-0.2-1.6-1.5-1.7v-0.5H256.4z M255,347.6
		c0.2,0.1,0.7,0.2,1.3,0.2c1.1,0,2.5-0.6,2.5-2.8c0-1.9-1.2-2.6-2.6-2.6c-0.5,0-0.8,0.1-1,0.2s-0.2,0.3-0.2,0.8V347.6z"/>
	<path d="M272.3,353.1c-0.2,0-0.4,0-0.6,0c-1.4-0.1-2.1-0.4-3-1.6c-0.6-0.8-1.2-1.9-1.7-2.7c-0.3-0.5-0.6-0.7-1.5-0.7H265v2.7
		c0,1.4,0.2,1.6,1.6,1.7v0.5h-4.7v-0.5c1.4-0.1,1.6-0.2,1.6-1.7V344c0-1.5-0.2-1.6-1.5-1.7v-0.5h4.5c1.3,0,2.2,0.2,2.8,0.6
		c0.7,0.4,1.2,1.2,1.2,2.2c0,1.5-1,2.4-2.2,2.9c0.3,0.6,1,1.7,1.5,2.5c0.6,0.9,1,1.4,1.4,1.8c0.4,0.5,0.8,0.7,1.2,0.8L272.3,353.1z
		 M265.8,347.6c0.9,0,1.5-0.1,1.9-0.5c0.7-0.5,0.9-1.2,0.9-2.1c0-1.8-1.2-2.5-2.5-2.5c-0.5,0-0.8,0.1-0.9,0.2
		c-0.1,0.1-0.2,0.3-0.2,0.7v4.2H265.8z"/>
	<path d="M279.2,341.6c3.1,0,5.9,2.2,5.9,5.7c0,3.7-2.8,6-6.1,6c-3.3,0-5.9-2.4-5.9-5.7C273,344.4,275.3,341.6,279.2,341.6
		L279.2,341.6z M278.8,342.2c-2,0-3.8,1.6-3.8,4.9c0,3.2,1.9,5.5,4.4,5.5c2,0,3.8-1.6,3.8-4.9C283.1,344.1,281.1,342.2,278.8,342.2
		L278.8,342.2z"/>
	<path d="M291.3,342.4c-1.3,0.1-1.5,0.2-1.5,1.7v6.2c0,2.2-0.3,3.5-1.6,4.6c-0.6,0.6-1.2,0.9-1.7,1l-0.2-0.5c1-0.5,1.5-1.2,1.7-2.2
		c0.2-0.9,0.2-1.9,0.2-3.3V344c0-1.5-0.2-1.6-1.6-1.7v-0.5h4.7V342.4z"/>
	<path d="M301.4,350.2c-0.1,0.6-0.5,2.2-0.6,2.8h-8.6v-0.5c1.6-0.1,1.7-0.3,1.7-1.7v-6.7c0-1.6-0.2-1.6-1.5-1.7v-0.5h7.9
		c0,0.4,0.1,1.6,0.2,2.5l-0.5,0.1c-0.2-0.7-0.4-1.1-0.6-1.5c-0.3-0.4-0.7-0.5-1.9-0.5h-1.3c-0.6,0-0.6,0-0.6,0.6v3.8h1.6
		c1.6,0,1.7-0.1,1.9-1.3h0.5v3.4h-0.5c-0.2-1.3-0.4-1.3-1.9-1.3h-1.6v3.2c0,0.8,0.1,1.2,0.4,1.4c0.3,0.2,1,0.2,1.8,0.2
		c1.3,0,1.8-0.1,2.2-0.6c0.3-0.4,0.6-1,0.9-1.7L301.4,350.2z"/>
	<path d="M313.5,350c-0.2,0.8-0.7,2.2-1,2.7c-0.5,0.1-2.1,0.5-3.4,0.5c-4.5,0-6.5-3-6.5-5.7c0-3.6,2.9-6,7-6c1.5,0,2.8,0.4,3.3,0.5
		c0.1,1,0.3,1.7,0.4,2.7l-0.5,0.1c-0.5-1.9-1.7-2.6-3.6-2.6c-3,0-4.6,2.4-4.6,5c0,3.2,2,5.4,4.7,5.4c1.8,0,2.8-1,3.7-2.7L313.5,350z
		"/>
	<path d="M323.9,344.6c-0.2-0.9-0.4-1.3-0.6-1.6c-0.3-0.4-0.6-0.5-1.9-0.5h-1.2v8.4c0,1.4,0.2,1.6,1.8,1.7v0.5h-5.2v-0.5
		c1.6-0.1,1.8-0.3,1.8-1.7v-8.4h-1c-1.5,0-1.9,0.2-2.1,0.5c-0.2,0.3-0.4,0.8-0.6,1.6h-0.5c0.1-1.1,0.2-2.2,0.2-3.2h0.4
		c0.3,0.4,0.5,0.4,1,0.4h7.1c0.5,0,0.6-0.1,0.9-0.4h0.4c0,0.8,0.1,2.1,0.2,3.1L323.9,344.6z"/>
</g>
</svg>
