<?xml version="1.0" encoding="utf-8"?>
<!-- Generator: Adobe Illustrator 22.1.0, SVG Export Plug-In . SVG Version: 6.00 Build 0)  -->
<svg version="1.1" id="Layer_1" xmlns="http://www.w3.org/2000/svg" xmlns:xlink="http://www.w3.org/1999/xlink" x="0px" y="0px"
	 viewBox="0 0 576 720" style="enable-background:new 0 0 576 720;" xml:space="preserve">
<style type="text/css">
	.st0{fill:#42AC40;stroke:#020203;stroke-width:2;stroke-miterlimit:10;}
</style>
<path class="st0" d="M375.9,297.9l-174.5-0.7L324,422.3C324,422.3,377.2,378.8,375.9,297.9z"/>
<g>
	<path d="M230.7,306.4c0.1-0.7,0.1-1.2,0-1.6c-0.1-0.6-0.5-0.9-1.8-1.4l-1.3-0.5c-0.6-0.2-0.6-0.2-0.8,0.3l-1.5,4.1l1.8,0.7
		c1.6,0.6,1.8,0.5,2.4-0.6l0.5,0.2l-1.3,3.4l-0.5-0.2c0.2-1.3,0.2-1.5-1.4-2.1L225,308l-1.1,3c-0.6,1.5-0.5,1.7,1.1,2.4l-0.2,0.5
		l-5-1.8l0.2-0.5c1.5,0.4,1.7,0.4,2.2-1.2l2.5-6.8c0.6-1.5,0.4-1.7-0.9-2.3l0.2-0.5l8,2.9c-0.2,0.7-0.5,1.8-0.8,2.7L230.7,306.4z"/>
	<path d="M240,306.4c3.1,1.1,5.1,4.5,3.9,8c-1.4,3.8-5.1,5.1-8.4,3.8c-3.3-1.2-5.1-4.7-3.9-8C232.6,307,236.1,305,240,306.4
		L240,306.4z M239.3,306.9c-2-0.7-4.5,0.2-5.7,3.5c-1.2,3.2-0.2,6.3,2.4,7.3c2,0.7,4.4-0.2,5.7-3.6
		C243,310.5,241.7,307.8,239.3,306.9L239.3,306.9z"/>
	<path d="M253.6,324.7c-0.2-0.1-0.4-0.2-0.6-0.3c-1.4-0.6-2-1.3-2.4-2.7c-0.3-1.1-0.5-2.3-0.7-3.4c-0.1-0.6-0.4-0.9-1.3-1.3
		l-0.5-0.2l-1,2.7c-0.5,1.5-0.4,1.7,1,2.3l-0.2,0.5l-4.8-1.8l0.2-0.5c1.5,0.4,1.7,0.3,2.2-1.1l2.5-6.9c0.5-1.5,0.4-1.6-0.9-2.2
		l0.2-0.5l4.6,1.7c1.3,0.5,2.2,1,2.7,1.7c0.6,0.7,0.7,1.7,0.3,2.7c-0.6,1.5-1.9,2.1-3.3,2.1c0.1,0.7,0.4,2.1,0.7,3.1
		c0.3,1.2,0.5,1.8,0.8,2.4c0.3,0.7,0.6,1,1,1.3L253.6,324.7z M249,316.6c0.9,0.3,1.5,0.4,2.1,0.2c0.9-0.3,1.4-0.9,1.7-1.8
		c0.7-1.9-0.3-3-1.6-3.5c-0.5-0.2-0.8-0.2-1-0.2c-0.2,0.1-0.3,0.2-0.5,0.7l-1.6,4.3L249,316.6z"/>
	<path d="M263.8,315.4c2.3,0.8,3.8,1.9,4.6,3.4c0.6,1.2,0.7,2.7,0.1,4.3c-0.8,2.1-2.2,3.3-3.9,3.8c-1.7,0.5-3.7,0.3-5.9-0.5
		l-4.4-1.6l0.2-0.5c1.6,0.5,1.8,0.4,2.3-1.1l2.5-6.9c0.6-1.5,0.4-1.6-0.9-2.2l0.2-0.5L263.8,315.4z M258.4,323.6
		c-0.5,1.4,0,1.9,1.3,2.4c3.3,1.2,5.8-0.6,6.8-3.4c0.7-1.8,0.5-3.5-0.5-4.8c-0.6-0.8-1.6-1.5-2.9-2c-0.8-0.3-1.3-0.3-1.5-0.3
		c-0.2,0.1-0.3,0.3-0.6,0.9L258.4,323.6z"/>
	<path d="M288.3,325c-1.3-0.3-1.6-0.2-2.9,1.1c-0.9,1-4.4,4.6-7.1,7.7l-0.6-0.2c0-3.6-0.2-7.9-0.3-10.8c-0.1-1.5-0.3-1.8-1.3-2.3
		l0.2-0.5l4.5,1.7l-0.2,0.5c-1.3-0.3-1.4-0.2-1.4,0.7c0,1.4,0.1,5.3,0.2,8.5l0,0c1.8-2,4.3-4.7,5.4-6.1c0.7-0.9,0.7-1.1-0.7-1.8
		l0.2-0.5l4.1,1.5L288.3,325z"/>
	<path d="M300.9,332.1c0.1-0.7,0.1-1.2,0-1.6c-0.1-0.6-0.5-0.9-1.8-1.4l-1.3-0.5c-0.6-0.2-0.6-0.2-0.8,0.3l-1.5,4.1l1.8,0.7
		c1.6,0.6,1.8,0.5,2.4-0.6l0.5,0.2l-1.3,3.4l-0.5-0.2c0.2-1.3,0.2-1.5-1.4-2.1l-1.8-0.7l-1.1,3c-0.6,1.5-0.5,1.7,1.1,2.4l-0.2,0.5
		l-5-1.8l0.2-0.5c1.5,0.4,1.7,0.4,2.2-1.2l2.5-6.8c0.6-1.5,0.4-1.7-0.9-2.3l0.2-0.5l8,2.9c-0.2,0.7-0.5,1.8-0.8,2.7L300.9,332.1z"/>
	<path d="M309.8,342c-0.4,0.6-1.3,2.1-1.7,2.6l-8.7-3.2l0.2-0.5c1.7,0.5,1.9,0.4,2.4-1.1l2.5-6.8c0.6-1.6,0.4-1.7-0.9-2.3l0.2-0.5
		l8.1,3c-0.1,0.5-0.5,1.6-0.8,2.6l-0.6-0.1c0.1-0.8,0.1-1.3,0-1.7c-0.1-0.5-0.6-0.8-1.8-1.2l-1.3-0.5c-0.6-0.2-0.6-0.2-0.8,0.3
		l-1.4,3.9l1.6,0.6c1.6,0.6,1.8,0.5,2.4-0.6l0.5,0.2l-1.3,3.4l-0.5-0.2c0.2-1.4,0.1-1.5-1.4-2.1l-1.6-0.6l-1.2,3.2
		c-0.3,0.8-0.4,1.3-0.1,1.6c0.3,0.3,0.9,0.6,1.7,0.9c1.3,0.5,1.9,0.6,2.5,0.2c0.4-0.3,1-0.7,1.5-1.3L309.8,342z"/>
	<path d="M320.4,349.2c-0.2-0.1-0.4-0.2-0.6-0.3c-1.4-0.6-2-1.3-2.4-2.7c-0.3-1.1-0.5-2.3-0.7-3.4c-0.1-0.6-0.4-0.9-1.3-1.3
		l-0.5-0.2l-1,2.7c-0.5,1.5-0.4,1.7,1,2.3l-0.2,0.5l-4.8-1.8l0.2-0.5c1.5,0.4,1.7,0.3,2.2-1.1l2.5-6.9c0.5-1.5,0.4-1.6-0.9-2.2
		l0.2-0.5l4.6,1.7c1.3,0.5,2.2,1,2.7,1.7c0.6,0.7,0.7,1.7,0.3,2.7c-0.6,1.5-1.9,2.1-3.3,2.1c0.1,0.7,0.4,2.1,0.7,3.1
		c0.3,1.2,0.5,1.8,0.8,2.4c0.3,0.7,0.6,1,1,1.3L320.4,349.2z M315.9,341.1c0.9,0.3,1.5,0.4,2.1,0.2c0.9-0.3,1.4-0.9,1.7-1.8
		c0.7-1.9-0.3-3-1.6-3.5c-0.5-0.2-0.8-0.2-1-0.2c-0.2,0.1-0.3,0.2-0.5,0.7l-1.6,4.3L315.9,341.1z"/>
	<path d="M331.7,353.3c-0.2-0.1-0.4-0.2-0.6-0.3c-1.4-0.6-2-1.3-2.4-2.7c-0.3-1.1-0.5-2.3-0.7-3.4c-0.1-0.6-0.4-0.9-1.3-1.3
		l-0.5-0.2l-1,2.7c-0.5,1.5-0.4,1.7,1,2.3l-0.2,0.5l-4.8-1.8l0.2-0.5c1.5,0.4,1.7,0.3,2.2-1.1l2.5-6.9c0.5-1.5,0.4-1.6-0.9-2.2
		l0.2-0.5l4.6,1.7c1.3,0.5,2.2,1,2.7,1.7c0.6,0.7,0.7,1.7,0.3,2.7c-0.6,1.5-1.9,2.1-3.3,2.1c0.1,0.7,0.4,2.1,0.7,3.1
		c0.3,1.2,0.5,1.8,0.8,2.4c0.3,0.7,0.6,1,1,1.3L331.7,353.3z M327.1,345.2c0.9,0.3,1.5,0.4,2.1,0.2c0.9-0.3,1.4-0.9,1.7-1.8
		c0.7-1.9-0.3-3-1.6-3.5c-0.5-0.2-0.8-0.2-1-0.2c-0.2,0.1-0.3,0.2-0.5,0.7l-1.6,4.3L327.1,345.2z"/>
	<path d="M339.5,356l0.2-0.5c1.2,0.3,1.4,0.2,1.4-0.6c0-0.8,0-1.8,0-2.9l-3.8-1.4c-0.6,0.7-1.1,1.3-1.6,1.9
		c-0.8,0.9-0.7,1.2,0.6,1.8l-0.2,0.5l-3.9-1.4l0.2-0.5c1.2,0.2,1.5,0.2,2.7-1.1l7.1-7.7l0.7,0.1c0,3.5,0,7,0.1,10.5
		c0,1.7,0.2,2,1.3,2.6l-0.2,0.5L339.5,356z M341.1,346.2L341.1,346.2c-1.1,1.2-2.2,2.5-3.3,3.7l3.3,1.2L341.1,346.2z"/>
	<path d="M355.6,362.1c-0.2-0.1-0.4-0.2-0.6-0.3c-1.4-0.6-2-1.3-2.4-2.7c-0.3-1.1-0.5-2.3-0.7-3.4c-0.1-0.6-0.4-0.9-1.3-1.3
		l-0.5-0.2l-1,2.7c-0.5,1.5-0.4,1.7,1,2.3l-0.2,0.5l-4.8-1.8l0.2-0.5c1.5,0.4,1.7,0.3,2.2-1.1l2.5-6.9c0.5-1.5,0.4-1.6-0.9-2.2
		l0.2-0.5l4.6,1.7c1.3,0.5,2.2,1,2.7,1.7c0.6,0.7,0.7,1.7,0.3,2.7c-0.6,1.5-1.9,2.1-3.3,2.1c0.1,0.7,0.4,2.1,0.7,3.1
		c0.3,1.2,0.5,1.8,0.8,2.4c0.3,0.7,0.6,1,1,1.3L355.6,362.1z M351,354c0.9,0.3,1.5,0.4,2.1,0.2c0.9-0.3,1.4-0.9,1.7-1.8
		c0.7-1.9-0.3-3-1.6-3.5c-0.5-0.2-0.8-0.2-1-0.2c-0.2,0.1-0.3,0.2-0.5,0.7l-1.6,4.3L351,354z"/>
	<path d="M356.3,362.2l0.2-0.5c1.5,0.4,1.7,0.4,2.2-1.1l2.5-6.9c0.6-1.5,0.4-1.7-1-2.3l0.2-0.5l4.9,1.8l-0.2,0.5
		c-1.5-0.4-1.7-0.4-2.2,1.1l-2.5,6.9c-0.6,1.5-0.4,1.7,1,2.3l-0.2,0.5L356.3,362.2z"/>
</g>
</svg>
