<?xml version="1.0" encoding="utf-8"?>
<!-- Generator: Adobe Illustrator 22.1.0, SVG Export Plug-In . SVG Version: 6.00 Build 0)  -->
<svg version="1.1" id="Layer_1" xmlns="http://www.w3.org/2000/svg" xmlns:xlink="http://www.w3.org/1999/xlink" x="0px" y="0px"
	 viewBox="0 0 576 720" style="enable-background:new 0 0 576 720;" xml:space="preserve">
<style type="text/css">
	.st0{fill:#F3D452;stroke:#020203;stroke-width:2;stroke-miterlimit:10;}
</style>
<path class="st0" d="M226.1,326.7l124.4,124l-0.9-174.6C349.6,276.1,281.3,269,226.1,326.7z"/>
<g>
	<path d="M274.1,310.7c-0.7-0.7-1-1.6-1-2.7c0-1.4,0.5-2.6,1.5-3.6c1-1,2.5-1.5,4.3-1.5c1.8,0,3.2,0.5,4.3,1.4c1,1,1.5,2.1,1.5,3.3
		c0,1.2-0.3,2.1-0.9,2.9c-0.3,0.4-0.9,0.8-1.6,1.2c0.8,0.4,1.4,0.8,1.9,1.2c0.8,0.9,1.3,2,1.3,3.4c0,1.7-0.6,3.1-1.7,4.2
		c-1.1,1.2-2.7,1.7-4.7,1.7c-1.8,0-3.4-0.5-4.7-1.5c-1.3-1-1.9-2.4-1.9-4.3c0-1.1,0.3-2.1,0.8-2.9c0.5-0.8,1.4-1.4,2.4-1.9
		C274.9,311.4,274.4,311.1,274.1,310.7z M281.7,319.3c0.7-0.6,1.1-1.5,1.1-2.7c0-1.2-0.4-2.1-1.1-2.8s-1.7-0.9-2.9-0.9
		c-1.1,0-2.1,0.3-2.8,1c-0.7,0.6-1.1,1.5-1.1,2.7c0,1,0.3,1.8,1,2.6c0.7,0.7,1.7,1.1,3,1.1C280.1,320.2,281,319.9,281.7,319.3z
		 M281.3,309.9c0.6-0.6,0.9-1.3,0.9-2.1c0-0.7-0.3-1.4-0.8-1.9c-0.6-0.6-1.4-0.9-2.6-0.9c-1.1,0-2,0.3-2.5,0.9
		c-0.5,0.6-0.8,1.3-0.8,2.1c0,0.9,0.3,1.6,1,2.1c0.7,0.5,1.4,0.8,2.3,0.8C279.9,310.8,280.7,310.5,281.3,309.9z"/>
	<path d="M299.1,305.9c0.8,1.6,1.3,3.7,1.3,6.4c0,2.6-0.4,4.7-1.1,6.4c-1.1,2.4-2.9,3.6-5.4,3.6c-2.3,0-4-1-5.1-3
		c-0.9-1.6-1.4-3.8-1.4-6.6c0-2.1,0.3-4,0.8-5.5c1-2.9,2.9-4.3,5.6-4.3C296.2,302.9,298,303.9,299.1,305.9z M296.7,318.5
		c0.7-1.1,1.1-3.1,1.1-6.1c0-2.1-0.3-3.9-0.8-5.3c-0.5-1.4-1.6-2.1-3.1-2.1c-1.4,0-2.4,0.7-3.1,2c-0.6,1.3-1,3.2-1,5.8
		c0,1.9,0.2,3.5,0.6,4.6c0.6,1.8,1.7,2.7,3.2,2.7C295,320.1,296,319.6,296.7,318.5z"/>
	<path d="M304.7,317.4c0.1,0.8,0.3,1.4,0.6,1.8c0.6,0.8,1.7,1.1,3.2,1.1c0.9,0,1.7-0.2,2.4-0.6c0.7-0.4,1-1,1-1.8
		c0-0.6-0.3-1.1-0.8-1.4c-0.3-0.2-1-0.4-2.1-0.7l-1.9-0.5c-1.2-0.3-2.1-0.6-2.7-1c-1-0.6-1.6-1.5-1.6-2.7c0-1.3,0.5-2.4,1.5-3.2
		c1-0.8,2.3-1.2,3.9-1.2c2.2,0,3.7,0.6,4.7,1.9c0.6,0.8,0.9,1.6,0.9,2.6h-2.2c0-0.5-0.2-1-0.6-1.5c-0.6-0.6-1.5-0.9-2.9-0.9
		c-0.9,0-1.6,0.2-2.1,0.5c-0.5,0.3-0.7,0.8-0.7,1.4c0,0.6,0.3,1.1,0.9,1.5c0.4,0.2,0.9,0.4,1.6,0.6l1.6,0.4c1.7,0.4,2.9,0.8,3.5,1.2
		c0.9,0.6,1.4,1.6,1.4,2.9c0,1.3-0.5,2.3-1.4,3.3c-1,0.9-2.4,1.4-4.4,1.4c-2.1,0-3.6-0.5-4.5-1.4c-0.9-1-1.4-2.1-1.4-3.5H304.7z"/>
	<path d="M264.5,341.7c1.4,0,2.5,0.2,3.3,0.8s1.3,1.5,1.3,2.7c0,2.5-1.9,3.7-3.8,4c-0.3,0-0.7,0-0.9,0l-1.5-0.4v2.9
		c0,1.6,0.2,1.8,2,1.9v0.6h-5.5v-0.6c1.6-0.1,1.7-0.3,1.7-1.9v-7.6c0-1.7-0.2-1.8-1.6-1.9v-0.6H264.5z M262.9,348.1
		c0.3,0.1,0.8,0.2,1.4,0.2c1.2,0,2.8-0.7,2.8-3.1c0-2.1-1.3-3-2.9-3c-0.5,0-0.9,0.1-1.1,0.2s-0.2,0.3-0.2,0.9V348.1z"/>
	<path d="M277.7,341.4c3.5,0,6.6,2.5,6.6,6.4c0,4.2-3.1,6.7-6.9,6.7c-3.7,0-6.7-2.7-6.7-6.4C270.7,344.6,273.4,341.4,277.7,341.4
		L277.7,341.4z M277.2,342.1c-2.2,0-4.3,1.8-4.3,5.5c0,3.5,2.1,6.2,4.9,6.2c2.2,0,4.2-1.8,4.2-5.5
		C282.1,344.2,279.8,342.1,277.2,342.1L277.2,342.1z"/>
	<path d="M291.1,341.7c1.4,0,2.5,0.2,3.3,0.8s1.3,1.5,1.3,2.7c0,2.5-1.9,3.7-3.8,4c-0.3,0-0.7,0-0.9,0l-1.5-0.4v2.9
		c0,1.6,0.2,1.8,2,1.9v0.6h-5.5v-0.6c1.6-0.1,1.7-0.3,1.7-1.9v-7.6c0-1.7-0.2-1.8-1.6-1.9v-0.6H291.1z M289.5,348.1
		c0.3,0.1,0.8,0.2,1.4,0.2c1.2,0,2.8-0.7,2.8-3.1c0-2.1-1.3-3-2.9-3c-0.5,0-0.9,0.1-1.1,0.2s-0.2,0.3-0.2,0.9V348.1z"/>
	<path d="M302.4,386.8c-0.2,0-0.5,0-0.7,0c-1.6-0.1-2.4-0.5-3.3-1.8c-0.7-0.9-1.3-2.1-1.9-3c-0.4-0.6-0.7-0.8-1.7-0.8h-0.6v3
		c0,1.6,0.2,1.8,1.8,1.9v0.6h-5.3V386c1.6-0.1,1.8-0.3,1.8-1.9v-7.6c0-1.6-0.2-1.8-1.7-1.9v-0.6h5c1.5,0,2.5,0.2,3.2,0.7
		c0.8,0.5,1.3,1.4,1.3,2.5c0,1.7-1.1,2.7-2.5,3.3c0.3,0.6,1.1,1.9,1.7,2.8c0.7,1,1.1,1.6,1.6,2c0.5,0.6,0.9,0.8,1.4,0.9L302.4,386.8
		z M295,380.5c1,0,1.6-0.2,2.1-0.6c0.8-0.6,1.1-1.3,1.1-2.4c0-2.1-1.4-2.8-2.8-2.8c-0.6,0-0.9,0.1-1.1,0.2c-0.1,0.1-0.2,0.3-0.2,0.8
		v4.7H295z"/>
	<path d="M310.1,373.8c3.5,0,6.6,2.5,6.6,6.4c0,4.2-3.1,6.7-6.9,6.7c-3.7,0-6.7-2.7-6.7-6.4C303.2,377,305.8,373.8,310.1,373.8
		L310.1,373.8z M309.6,374.5c-2.2,0-4.3,1.8-4.3,5.5c0,3.5,2.1,6.2,4.9,6.2c2.2,0,4.2-1.8,4.2-5.5
		C314.5,376.6,312.3,374.5,309.6,374.5L309.6,374.5z"/>
	<path d="M330.7,383.3c-0.3,0.9-0.8,2.4-1.1,3.1c-0.6,0.1-2.3,0.6-3.8,0.6c-5.1,0-7.4-3.4-7.4-6.4c0-4.1,3.3-6.7,7.9-6.7
		c1.7,0,3.1,0.5,3.7,0.6c0.2,1.1,0.3,1.9,0.4,3l-0.6,0.1c-0.5-2.1-1.9-3-4-3c-3.4,0-5.2,2.7-5.2,5.6c0,3.6,2.2,6.1,5.3,6.1
		c2,0,3.2-1.1,4.2-3.1L330.7,383.3z"/>
	<path d="M341.3,386.6c-1.5-1.6-3-3.5-4.8-5.5c-0.5-0.6-0.7-0.6-1.1-0.6v3.6c0,1.7,0.2,1.9,1.8,2v0.6h-5.3V386
		c1.5-0.1,1.7-0.3,1.7-2v-7.4c0-1.8-0.2-1.9-1.7-2v-0.6h5.2v0.6c-1.5,0.1-1.7,0.2-1.7,2v3.3c0.5-0.1,0.8-0.4,1.4-0.9
		c1.1-1.1,2.4-2.3,3.2-3.3c0.6-0.7,0.6-0.9-0.4-1l-0.4,0v-0.6h4.9v0.6c-1.5,0.1-2,0.3-3.2,1.4c-0.8,0.7-2.2,2.1-3.4,3.3
		c1.5,1.8,3.6,4.2,4.7,5.3c1,1.1,1.5,1.3,2.4,1.4v0.6H341.3z"/>
</g>
</svg>
