<?xml version="1.0" encoding="utf-8"?>
<!-- Generator: Adobe Illustrator 22.1.0, SVG Export Plug-In . SVG Version: 6.00 Build 0)  -->
<svg version="1.1" id="Layer_1" xmlns="http://www.w3.org/2000/svg" xmlns:xlink="http://www.w3.org/1999/xlink" x="0px" y="0px"
	 viewBox="0 0 576 720" style="enable-background:new 0 0 576 720;" xml:space="preserve">
<style type="text/css">
	.st0{fill:#389919;stroke:#020203;stroke-width:2;stroke-miterlimit:10;}
</style>
<polygon class="st0" points="157.7,218.4 157.4,305.5 354,305.5 353.1,218.1 "/>
<g>
	<path d="M179.6,265c-0.2,1.2-0.8,4.1-1.1,5.3h-16.3l-0.3-0.5c4.3-5.9,8.7-11.8,13-17.9h-5.4c-3.4,0-3.9,0.3-4.4,1.1
		c-0.4,0.5-0.7,1.3-1.1,2.7h-0.9c0.2-2,0.3-4.3,0.4-5.7h0.7c0.4,0.7,0.7,0.8,1.6,0.8h12.7l0.2,0.5c-4.3,5.9-8.6,11.7-12.8,17.7
		c1,0.1,2.9,0.2,4.9,0.2c3.7,0,5.1-0.2,6-1.1c0.6-0.7,1.1-1.6,1.7-3.2L179.6,265z"/>
	<path d="M197,265.5c-0.2,1.1-0.8,3.9-1.1,4.9h-15.1v-0.9c2.8-0.2,3-0.5,3-3v-11.8c0-2.7-0.3-2.8-2.6-3v-0.9h13.9
		c0,0.8,0.2,2.8,0.3,4.5l-0.9,0.1c-0.3-1.3-0.6-1.9-1-2.6c-0.5-0.7-1.3-0.9-3.4-0.9h-2.3c-1,0-1.1,0.1-1.1,1v6.7h2.8
		c2.7,0,3-0.2,3.3-2.3h0.9v5.9h-0.9c-0.4-2.2-0.7-2.4-3.3-2.4h-2.8v5.5c0,1.4,0.2,2.1,0.7,2.5c0.6,0.3,1.7,0.3,3.1,0.3
		c2.2,0,3.2-0.2,3.9-1c0.5-0.6,1.1-1.7,1.6-2.9L197,265.5z"/>
	<path d="M198.7,270.3v-0.9c2.5-0.2,2.8-0.4,2.8-3v-11.8c0-2.6-0.3-2.8-2.8-3v-0.9h8.4v0.9c-2.5,0.2-2.7,0.3-2.7,3v11.8
		c0,2.6,0.3,2.8,2.7,3v0.9H198.7z"/>
	<path d="M218.6,250.8c3.9,0,6.9,0.8,8.8,2.6c1.5,1.5,2.6,3.7,2.6,6.5c0,3.5-1.5,6.2-3.9,8c-2.4,1.7-5.5,2.5-9.3,2.5h-7.6v-0.9
		c2.6-0.2,2.9-0.4,2.9-2.9v-11.9c0-2.6-0.3-2.7-2.6-2.9v-0.9h9.1V250.8z M215.1,266.3c0,2.4,1,2.9,3.3,2.9c5.7,0,8.5-4.2,8.5-8.9
		c0-3.1-1.2-5.6-3.5-7.1c-1.4-0.9-3.3-1.4-5.5-1.4c-1.4,0-2.1,0.2-2.5,0.4c-0.3,0.2-0.4,0.6-0.4,1.7L215.1,266.3L215.1,266.3z"/>
	<path d="M249.2,251.7c-2.4,0.2-2.6,0.4-2.6,3v10.8c0,3.8-0.6,6-2.8,8c-1,1-2.1,1.5-2.9,1.8l-0.4-0.9c1.7-0.8,2.6-2.2,2.9-3.9
		c0.3-1.5,0.3-3.3,0.3-5.8v-9.9c0-2.6-0.3-2.8-2.7-3v-0.9h8.2V251.7z"/>
	<path d="M263.3,270.3v-0.9c1.9-0.3,2.2-0.5,1.8-1.7c-0.4-1.2-1-2.7-1.6-4.4h-6.6c-0.5,1.4-0.9,2.5-1.3,3.7
		c-0.7,1.8-0.4,2.2,1.9,2.4v0.9h-6.8v-0.9c2-0.3,2.4-0.5,3.5-3.2l6.4-15.6l1.1-0.3c2,5.3,3.9,10.6,6,15.9c1,2.6,1.4,3,3.4,3.2v0.9
		H263.3z M260.3,254.5L260.3,254.5c-1,2.5-2,5-2.9,7.5h5.6L260.3,254.5z"/>
	<path d="M283.7,250.4c5.4,0,10.3,3.9,10.3,9.9c0,6.5-4.9,10.5-10.7,10.5c-5.8,0-10.4-4.2-10.4-10C273,255.3,277,250.4,283.7,250.4
		L283.7,250.4z M283,251.5c-3.4,0-6.7,2.8-6.7,8.5c0,5.5,3.3,9.7,7.7,9.7c3.4,0,6.6-2.7,6.6-8.6C290.6,254.8,287.1,251.5,283,251.5
		L283,251.5z"/>
	<path d="M317.7,251.7c-1.8,0.1-2.6,0.6-2.7,1.8c-0.1,0.8-0.2,2.1-0.2,4.8v2.4c0,3.5-0.6,6.2-2.4,8c-1.4,1.5-3.5,2.1-5.6,2.1
		c-1.9,0-3.7-0.4-5-1.5c-1.9-1.4-2.8-3.7-2.8-7.3v-7.2c0-2.8-0.3-2.9-2.7-3.1v-0.9h8.2v0.9c-2.4,0.1-2.7,0.3-2.7,3.1v6.5
		c0,4.9,2.1,7.6,5.8,7.6c4.3,0,5.8-3.5,5.8-8.5v-2.3c0-2.7-0.1-3.9-0.2-4.8c-0.2-1.1-0.9-1.6-3-1.7v-0.9h7.4v1H317.7z"/>
	<path d="M340.8,251.7c-1.7,0.1-2.4,0.4-2.6,1.8c-0.1,1-0.2,2.3-0.2,5.1v12h-1L323.6,255l0,0v7.3c0,2.8,0.1,4.2,0.2,5
		c0.1,1.6,0.8,1.9,3,2.1v0.9h-7.3v-0.9c1.8-0.1,2.5-0.5,2.7-2c0.1-0.9,0.2-2.4,0.2-5.1v-6.4c0-2.2-0.1-2.4-0.7-3.1
		c-0.6-0.7-1.3-1-2.7-1.1v-0.9h4.7l13.1,14.8h0.1v-7c0-2.8-0.1-4.1-0.2-5c-0.1-1.4-0.9-1.8-3.1-1.9v-0.9h7.3v0.9H340.8z"/>
	<path d="M342.7,270.3v-0.9c2.5-0.2,2.8-0.4,2.8-3v-11.8c0-2.6-0.3-2.8-2.8-3v-0.9h8.4v0.9c-2.5,0.2-2.7,0.3-2.7,3v11.8
		c0,2.6,0.3,2.8,2.7,3v0.9H342.7z"/>
</g>
</svg>
