<?xml version="1.0" encoding="utf-8"?>
<!-- Generator: Adobe Illustrator 22.1.0, SVG Export Plug-In . SVG Version: 6.00 Build 0)  -->
<svg version="1.1" id="Layer_1" xmlns="http://www.w3.org/2000/svg" xmlns:xlink="http://www.w3.org/1999/xlink" x="0px" y="0px"
	 viewBox="0 0 576 720" style="enable-background:new 0 0 576 720;" xml:space="preserve">
<style type="text/css">
	.st0{fill:#1E8E5F;stroke:#020203;stroke-width:2;stroke-miterlimit:10;}
</style>
<polygon class="st0" points="246.3,248.6 247.1,472.3 330.5,472.3 331.3,332.8 "/>
<g>
	<path d="M253.8,339.7v-0.5c1.4-0.1,1.6-0.2,1.6-1.7v-6.8c0-1.5-0.2-1.6-1.6-1.7v-0.5h4.8v0.5c-1.4,0.1-1.6,0.2-1.6,1.7v6.8
		c0,1.5,0.2,1.6,1.6,1.7v0.5H253.8z"/>
	<path d="M277.1,329.1c-1.5,0.1-1.6,0.2-1.6,1.7v6.8c0,1.5,0.2,1.5,1.6,1.7v0.5h-4.9v-0.5c1.5-0.1,1.7-0.2,1.7-1.7v-3.4h-6v3.4
		c0,1.4,0.1,1.5,1.6,1.7v0.5h-4.8v-0.5c1.4-0.1,1.5-0.2,1.5-1.7v-6.8c0-1.5-0.1-1.5-1.6-1.7v-0.5h4.7v0.5c-1.4,0.1-1.5,0.2-1.5,1.7
		v2.7h6v-2.7c0-1.4-0.1-1.5-1.5-1.7v-0.5h4.7V329.1z"/>
	<path d="M285.3,339.7v-0.5c1.1-0.2,1.2-0.3,1-1c-0.2-0.7-0.6-1.5-0.9-2.5h-3.8c-0.3,0.8-0.5,1.5-0.8,2.1c-0.4,1-0.2,1.2,1.1,1.4
		v0.5h-3.9v-0.5c1.1-0.2,1.4-0.3,2-1.8l3.7-8.9l0.6-0.2c1.1,3,2.2,6.1,3.4,9.1c0.6,1.5,0.8,1.7,1.9,1.8v0.5H285.3z M283.6,330.7
		L283.6,330.7c-0.6,1.4-1.1,2.9-1.7,4.3h3.2L283.6,330.7z"/>
	<path d="M302.3,329.1c-1.2,0.1-1.4,0.3-2.1,1.9c-0.5,1.1-2.3,5.4-3.7,8.9h-0.6c-1.2-3.1-2.7-6.8-3.7-9.3c-0.5-1.3-0.8-1.5-1.9-1.5
		v-0.5h4.5v0.5c-1.3,0.1-1.3,0.3-1,1.1c0.5,1.2,1.8,4.6,2.9,7.3h0c1-2.3,2.2-5.4,2.7-7c0.4-1,0.3-1.2-1.2-1.3v-0.5h4V329.1z"/>
	<path d="M312.3,337c-0.1,0.6-0.5,2.2-0.6,2.8h-8.6v-0.5c1.6-0.1,1.7-0.3,1.7-1.7v-6.7c0-1.6-0.2-1.6-1.5-1.7v-0.5h7.9
		c0,0.4,0.1,1.6,0.2,2.5l-0.5,0.1c-0.2-0.7-0.4-1.1-0.6-1.5c-0.3-0.4-0.7-0.5-1.9-0.5h-1.3c-0.6,0-0.6,0-0.6,0.6v3.8h1.6
		c1.6,0,1.7-0.1,1.9-1.3h0.5v3.4H310c-0.2-1.3-0.4-1.3-1.9-1.3h-1.6v3.2c0,0.8,0.1,1.2,0.4,1.4c0.3,0.2,1,0.2,1.8,0.2
		c1.3,0,1.8-0.1,2.2-0.6c0.3-0.4,0.6-1,0.9-1.7L312.3,337z"/>
	<path d="M266,357.9c-1,0-1.4,0.2-1.5,1c-0.1,0.6-0.1,1.3-0.1,2.9v6.9h-0.6l-7.7-8.9h0l0,4.2c0,1.6,0.1,2.4,0.1,2.9
		c0.1,0.9,0.5,1.1,1.7,1.2v0.5h-4.2V368c1-0.1,1.5-0.3,1.5-1.1c0.1-0.5,0.1-1.3,0.1-2.9v-3.7c0-1.3-0.1-1.3-0.4-1.8
		c-0.4-0.4-0.7-0.6-1.6-0.6v-0.5h2.7l7.5,8.5h0v-4c0-1.6-0.1-2.4-0.1-2.9c-0.1-0.8-0.5-1-1.7-1.1v-0.5h4.2V357.9z"/>
	<path d="M276.2,365.8c-0.1,0.6-0.5,2.2-0.6,2.8h-8.6V368c1.6-0.1,1.7-0.3,1.7-1.7v-6.7c0-1.6-0.2-1.6-1.5-1.7v-0.5h7.9
		c0,0.4,0.1,1.6,0.2,2.5l-0.5,0.1c-0.2-0.7-0.4-1.1-0.6-1.5c-0.3-0.4-0.7-0.5-1.9-0.5h-1.3c-0.6,0-0.6,0-0.6,0.6v3.8h1.6
		c1.6,0,1.7-0.1,1.9-1.3h0.5v3.4h-0.5c-0.2-1.3-0.4-1.3-1.9-1.3h-1.6v3.2c0,0.8,0.1,1.2,0.4,1.4c0.3,0.2,1,0.2,1.8,0.2
		c1.3,0,1.8-0.1,2.2-0.6c0.3-0.4,0.6-1,0.9-1.7L276.2,365.8z"/>
	<path d="M288.8,357.9c-1.2,0.1-1.4,0.3-2.1,1.9c-0.5,1.1-2.3,5.4-3.7,8.9h-0.6c-1.2-3.1-2.7-6.8-3.7-9.3c-0.5-1.3-0.8-1.5-1.9-1.5
		v-0.5h4.5v0.5c-1.3,0.1-1.3,0.3-1,1.1c0.5,1.2,1.8,4.6,2.9,7.3h0c1-2.3,2.2-5.4,2.7-7c0.4-1,0.3-1.2-1.2-1.3v-0.5h4V357.9z"/>
	<path d="M298.8,365.8c-0.1,0.6-0.5,2.2-0.6,2.8h-8.6V368c1.6-0.1,1.7-0.3,1.7-1.7v-6.7c0-1.6-0.2-1.6-1.5-1.7v-0.5h7.9
		c0,0.4,0.1,1.6,0.2,2.5l-0.5,0.1c-0.2-0.7-0.4-1.1-0.6-1.5c-0.3-0.4-0.7-0.5-1.9-0.5h-1.3c-0.6,0-0.6,0-0.6,0.6v3.8h1.6
		c1.6,0,1.7-0.1,1.9-1.3h0.5v3.4h-0.5c-0.2-1.3-0.4-1.3-1.9-1.3h-1.6v3.2c0,0.8,0.1,1.2,0.4,1.4c0.3,0.2,1,0.2,1.8,0.2
		c1.3,0,1.8-0.1,2.2-0.6c0.3-0.4,0.6-1,0.9-1.7L298.8,365.8z"/>
	<path d="M310.2,368.7c-0.2,0-0.4,0-0.6,0c-1.4-0.1-2.1-0.4-3-1.6c-0.6-0.8-1.2-1.9-1.7-2.7c-0.3-0.5-0.6-0.7-1.5-0.7h-0.5v2.7
		c0,1.4,0.2,1.6,1.6,1.7v0.5h-4.7V368c1.4-0.1,1.6-0.2,1.6-1.7v-6.8c0-1.5-0.2-1.6-1.5-1.7v-0.5h4.5c1.3,0,2.2,0.2,2.8,0.6
		c0.7,0.4,1.2,1.2,1.2,2.2c0,1.5-1,2.4-2.2,2.9c0.3,0.6,1,1.7,1.5,2.5c0.6,0.9,1,1.4,1.4,1.8c0.4,0.5,0.8,0.7,1.2,0.8L310.2,368.7z
		 M303.7,363.1c0.9,0,1.5-0.1,1.9-0.5c0.7-0.5,0.9-1.2,0.9-2.1c0-1.8-1.2-2.5-2.5-2.5c-0.5,0-0.8,0.1-0.9,0.2
		c-0.1,0.1-0.2,0.3-0.2,0.7v4.2H303.7z"/>
	<path d="M259.8,391.3c1.8,0.2,3.2,1,3.2,2.7c0,1.1-0.6,2-1.7,2.6c-0.9,0.5-2.1,0.7-3.5,0.7h-4v-0.5c1.5-0.1,1.6-0.2,1.6-1.7v-6.8
		c0-1.5-0.1-1.6-1.5-1.7v-0.5h4.6c1.3,0,2.1,0.2,2.7,0.6c0.6,0.4,1,1.2,1,2C262.2,390.4,260.8,391,259.8,391.3L259.8,391.3z
		 M257.8,391.1c1.9,0,2.7-0.7,2.7-2.2c0-1.2-0.7-2.2-2.3-2.2c-0.4,0-0.8,0.1-1,0.2c-0.2,0.1-0.2,0.3-0.2,0.8v3.3H257.8z M257,395.1
		c0,1.3,0.3,1.6,1.4,1.6c1.4,0,2.6-0.7,2.6-2.5c0-1.7-1.2-2.5-3.3-2.5H257V395.1z"/>
	<path d="M273.4,394.6c-0.1,0.6-0.5,2.2-0.6,2.8h-8.6v-0.5c1.6-0.1,1.7-0.3,1.7-1.7v-6.7c0-1.6-0.2-1.6-1.5-1.7v-0.5h7.9
		c0,0.4,0.1,1.6,0.2,2.5l-0.5,0.1c-0.2-0.7-0.4-1.1-0.6-1.5c-0.3-0.4-0.7-0.5-1.9-0.5h-1.3c-0.6,0-0.6,0-0.6,0.6v3.8h1.6
		c1.6,0,1.7-0.1,1.9-1.3h0.5v3.4H271c-0.2-1.3-0.4-1.3-1.9-1.3h-1.6v3.2c0,0.8,0.1,1.2,0.4,1.4c0.3,0.2,1,0.2,1.8,0.2
		c1.3,0,1.8-0.1,2.2-0.6c0.3-0.4,0.6-1,0.9-1.7L273.4,394.6z"/>
	<path d="M283.4,394.6c-0.1,0.6-0.5,2.2-0.6,2.8h-8.6v-0.5c1.6-0.1,1.7-0.3,1.7-1.7v-6.7c0-1.6-0.2-1.6-1.5-1.7v-0.5h7.9
		c0,0.4,0.1,1.6,0.2,2.5l-0.5,0.1c-0.2-0.7-0.4-1.1-0.6-1.5c-0.3-0.4-0.7-0.5-1.9-0.5h-1.3c-0.6,0-0.6,0-0.6,0.6v3.8h1.6
		c1.6,0,1.7-0.1,1.9-1.3h0.5v3.4h-0.5c-0.2-1.3-0.4-1.3-1.9-1.3h-1.6v3.2c0,0.8,0.1,1.2,0.4,1.4c0.3,0.2,1,0.2,1.8,0.2
		c1.3,0,1.8-0.1,2.2-0.6c0.3-0.4,0.6-1,0.9-1.7L283.4,394.6z"/>
	<path d="M296.7,386.7c-1,0-1.4,0.2-1.5,1c-0.1,0.6-0.1,1.3-0.1,2.9v6.9h-0.6l-7.7-8.9h0l0,4.2c0,1.6,0.1,2.4,0.1,2.9
		c0.1,0.9,0.5,1.1,1.7,1.2v0.5h-4.2v-0.5c1-0.1,1.5-0.3,1.5-1.1c0.1-0.5,0.1-1.3,0.1-2.9v-3.7c0-1.3-0.1-1.3-0.4-1.8
		c-0.4-0.4-0.7-0.6-1.6-0.6v-0.5h2.7l7.5,8.5h0v-4c0-1.6-0.1-2.4-0.1-2.9c-0.1-0.8-0.5-1-1.7-1.1v-0.5h4.2V386.7z"/>
	<path d="M311.8,389c-0.2-0.9-0.4-1.3-0.6-1.6c-0.3-0.4-0.6-0.5-1.9-0.5h-1.2v8.4c0,1.4,0.2,1.6,1.8,1.7v0.5h-5.2v-0.5
		c1.6-0.1,1.8-0.3,1.8-1.7v-8.4h-1c-1.5,0-1.9,0.2-2.1,0.5c-0.2,0.3-0.4,0.8-0.6,1.6h-0.5c0.1-1.1,0.2-2.2,0.2-3.2h0.4
		c0.3,0.4,0.5,0.4,1,0.4h7.1c0.5,0,0.6-0.1,0.9-0.4h0.4c0,0.8,0.1,2.1,0.2,3.1L311.8,389z"/>
	<path d="M319.7,385.9c3.1,0,5.9,2.2,5.9,5.7c0,3.7-2.8,6-6.1,6c-3.3,0-5.9-2.4-5.9-5.7C313.6,388.8,315.9,385.9,319.7,385.9
		L319.7,385.9z M319.4,386.6c-2,0-3.8,1.6-3.8,4.9c0,3.2,1.9,5.5,4.4,5.5c2,0,3.8-1.6,3.8-4.9C323.7,388.5,321.7,386.6,319.4,386.6
		L319.4,386.6z"/>
	<path d="M260.7,426.1v-0.5c1.1-0.2,1.2-0.3,1-1c-0.2-0.7-0.6-1.5-0.9-2.5H257c-0.3,0.8-0.5,1.5-0.8,2.1c-0.4,1-0.2,1.2,1.1,1.4v0.5
		h-3.9v-0.5c1.1-0.2,1.4-0.3,2-1.8l3.7-8.9l0.6-0.2c1.1,3,2.2,6.1,3.4,9.1c0.6,1.5,0.8,1.7,1.9,1.8v0.5H260.7z M259,417.1L259,417.1
		c-0.6,1.4-1.1,2.9-1.7,4.3h3.2L259,417.1z"/>
	<path d="M281.9,423.2c-0.2,0.8-0.7,2.2-1,2.7c-0.5,0.1-2.1,0.5-3.4,0.5c-4.5,0-6.5-3-6.5-5.7c0-3.6,2.9-6,7-6
		c1.5,0,2.8,0.4,3.3,0.5c0.1,1,0.3,1.7,0.4,2.7L281,418c-0.5-1.9-1.7-2.6-3.6-2.6c-3,0-4.6,2.4-4.6,5c0,3.2,2,5.4,4.7,5.4
		c1.8,0,2.8-1,3.7-2.7L281.9,423.2z"/>
	<path d="M291.6,423.4c-0.1,0.6-0.5,2.2-0.7,2.8h-8.1v-0.5c1.5-0.1,1.7-0.2,1.7-1.7v-6.7c0-1.5-0.1-1.6-1.6-1.7V415h4.7v0.5
		c-1.4,0.1-1.5,0.2-1.5,1.7v6.7c0,0.9,0.1,1.3,0.4,1.4c0.3,0.2,0.9,0.2,1.6,0.2c0.9,0,1.5-0.1,1.9-0.6c0.3-0.3,0.7-0.9,0.9-1.7
		L291.6,423.4z"/>
	<path d="M304.5,415.5c-1,0.1-1.5,0.3-1.5,1c0,0.5-0.1,1.2-0.1,2.7v1.3c0,2-0.3,3.5-1.3,4.6c-0.8,0.8-2,1.2-3.2,1.2
		c-1.1,0-2.1-0.2-2.9-0.8c-1.1-0.8-1.6-2.1-1.6-4.2v-4.1c0-1.6-0.2-1.7-1.5-1.8V415h4.7v0.5c-1.4,0.1-1.5,0.2-1.5,1.8v3.7
		c0,2.8,1.2,4.4,3.3,4.4c2.5,0,3.3-2,3.3-4.8v-1.3c0-1.5,0-2.2-0.1-2.8c-0.1-0.7-0.5-0.9-1.7-1V415h4.2V415.5z"/>
	<path d="M311.5,420.1c1.8,0.2,3.2,1,3.2,2.7c0,1.1-0.6,2-1.7,2.6c-0.9,0.5-2.1,0.7-3.5,0.7h-4v-0.5c1.5-0.1,1.6-0.2,1.6-1.7v-6.8
		c0-1.5-0.1-1.6-1.5-1.7V415h4.6c1.3,0,2.1,0.2,2.7,0.6c0.6,0.4,1,1.2,1,2C314,419.2,312.5,419.8,311.5,420.1L311.5,420.1z
		 M309.5,419.9c1.9,0,2.7-0.7,2.7-2.2c0-1.2-0.7-2.2-2.3-2.2c-0.4,0-0.8,0.1-1,0.2c-0.2,0.1-0.2,0.3-0.2,0.8v3.3H309.5z
		 M308.7,423.9c0,1.3,0.3,1.6,1.4,1.6c1.4,0,2.6-0.7,2.6-2.5c0-1.7-1.2-2.5-3.3-2.5h-0.7V423.9z"/>
</g>
</svg>
