<?xml version="1.0" encoding="utf-8"?>
<!-- Generator: Adobe Illustrator 22.1.0, SVG Export Plug-In . SVG Version: 6.00 Build 0)  -->
<svg version="1.1" id="Layer_1" xmlns="http://www.w3.org/2000/svg" xmlns:xlink="http://www.w3.org/1999/xlink" x="0px" y="0px"
	 viewBox="0 0 576 720" style="enable-background:new 0 0 576 720;" xml:space="preserve">
<style type="text/css">
	.st0{fill:#DE8CEA;stroke:#020203;stroke-width:2;stroke-miterlimit:10;}
</style>
<polygon class="st0" points="171.1,258 354.6,258 355.4,401.3 280.3,401.3 170.2,342.7 "/>
<g>
	<path d="M207,306.5c-0.2,1.2-0.8,4.1-1.1,5.3h-16.3l-0.3-0.5c4.3-5.9,8.7-11.8,13-17.9h-5.4c-3.4,0-3.9,0.3-4.4,1.1
		c-0.4,0.5-0.7,1.3-1.1,2.7h-0.9c0.2-2,0.3-4.3,0.4-5.7h0.7c0.4,0.7,0.7,0.8,1.6,0.8h12.7l0.2,0.5c-4.3,5.9-8.6,11.7-12.8,17.7
		c1,0.1,2.9,0.2,4.9,0.2c3.7,0,5.1-0.2,6-1.1c0.6-0.7,1.1-1.6,1.7-3.2L207,306.5z"/>
	<path d="M224.4,307c-0.2,1.1-0.8,3.9-1.1,4.9h-15.1V311c2.8-0.2,3-0.5,3-3v-11.8c0-2.7-0.3-2.8-2.6-3v-0.9h13.9
		c0,0.8,0.2,2.8,0.3,4.5l-0.9,0.1c-0.3-1.3-0.6-1.9-1-2.6c-0.5-0.7-1.3-0.9-3.4-0.9h-2.3c-1,0-1.1,0.1-1.1,1v6.7h2.8
		c2.7,0,3-0.2,3.3-2.3h0.9v5.9h-0.9c-0.4-2.2-0.7-2.4-3.3-2.4h-2.8v5.5c0,1.4,0.2,2.1,0.7,2.5c0.6,0.3,1.7,0.3,3.1,0.3
		c2.2,0,3.2-0.2,3.9-1c0.5-0.6,1.1-1.7,1.6-2.9L224.4,307z"/>
	<path d="M226.1,311.8v-0.9c2.5-0.2,2.8-0.4,2.8-3v-11.8c0-2.6-0.3-2.8-2.8-3v-0.9h8.4v0.9c-2.5,0.2-2.7,0.3-2.7,3v11.8
		c0,2.6,0.3,2.8,2.7,3v0.9H226.1z"/>
	<path d="M253.3,297.2c-0.3-1.5-0.7-2.3-1-2.8c-0.5-0.7-1-0.9-3.4-0.9h-2.1v14.6c0,2.4,0.3,2.7,3.2,2.9v0.9h-9.1V311
		c2.8-0.2,3.1-0.5,3.1-2.9v-14.6h-1.8c-2.7,0-3.3,0.3-3.7,0.9c-0.4,0.5-0.7,1.4-1,2.8h-0.9c0.1-1.9,0.3-3.9,0.3-5.6h0.7
		c0.5,0.8,0.8,0.8,1.7,0.8h12.4c0.8,0,1.1-0.2,1.6-0.8h0.7c0,1.4,0.2,3.7,0.3,5.5L253.3,297.2z"/>
	<path d="M267.2,291.9c5.4,0,10.3,3.9,10.3,9.9c0,6.5-4.9,10.5-10.7,10.5c-5.8,0-10.4-4.2-10.4-10
		C256.4,296.8,260.5,291.9,267.2,291.9L267.2,291.9z M266.5,293c-3.4,0-6.7,2.8-6.7,8.5c0,5.5,3.3,9.7,7.7,9.7
		c3.4,0,6.6-2.7,6.6-8.6C274,296.3,270.6,293,266.5,293L266.5,293z"/>
	<path d="M290.9,291.9c5.4,0,10.3,3.9,10.3,9.9c0,6.5-4.9,10.5-10.7,10.5c-5.8,0-10.4-4.2-10.4-10
		C280.1,296.8,284.2,291.9,290.9,291.9L290.9,291.9z M290.2,293c-3.4,0-6.7,2.8-6.7,8.5c0,5.5,3.3,9.7,7.7,9.7
		c3.4,0,6.6-2.7,6.6-8.6C297.8,296.3,294.3,293,290.2,293L290.2,293z"/>
	<path d="M325.1,293.2c-1.7,0.1-2.4,0.4-2.6,1.8c-0.1,1-0.2,2.3-0.2,5.1v12h-1l-13.5-15.6l0,0v7.3c0,2.8,0.1,4.2,0.2,5
		c0.1,1.6,0.8,1.9,3,2.1v0.9h-7.3v-0.9c1.8-0.1,2.5-0.5,2.7-2c0.1-0.9,0.2-2.4,0.2-5.1v-6.4c0-2.2-0.1-2.4-0.7-3.1
		c-0.6-0.7-1.3-1-2.7-1.1v-0.9h4.7l13.1,14.8h0.1v-7c0-2.8-0.1-4.1-0.2-5c-0.1-1.4-0.9-1.8-3.1-1.9v-0.9h7.3V293.2z"/>
</g>
</svg>
