<?xml version="1.0" encoding="utf-8"?>
<!-- Generator: Adobe Illustrator 22.1.0, SVG Export Plug-In . SVG Version: 6.00 Build 0)  -->
<svg version="1.1" id="Layer_1" xmlns="http://www.w3.org/2000/svg" xmlns:xlink="http://www.w3.org/1999/xlink" x="0px" y="0px"
	 viewBox="0 0 576 720" style="enable-background:new 0 0 576 720;" xml:space="preserve">
<style type="text/css">
	.st0{fill:#AEACD7;stroke:#020203;stroke-width:2;stroke-miterlimit:10;}
</style>
<polygon class="st0" points="161.1,184.7 162,263.4 319.5,263.4 "/>
<g>
	<path d="M176.6,228.2v-0.5c1.4-0.1,1.5-0.3,1.5-2.1l-0.1-6.9h-0.1l-4.3,9.3h-0.4l-3.9-9.1l0,0l-0.3,4.8c-0.1,1.4-0.1,2.1,0,2.8
		c0,0.8,0.4,0.9,1.6,1v0.5h-4.1v-0.5c1-0.1,1.3-0.3,1.5-1c0.1-0.6,0.2-1.3,0.3-3.2l0.3-3.4c0.2-2.2,0-2.3-1.5-2.5V217h3l4,8.4l4-8.4
		h3.1v0.5c-1.5,0.1-1.6,0.2-1.6,1.9l0.2,6.2c0.1,1.8,0.1,1.9,1.6,2.1v0.5H176.6z"/>
	<path d="M189.4,228.2v-0.5c1.1-0.2,1.2-0.3,1-1s-0.6-1.5-0.9-2.5h-3.8c-0.3,0.8-0.5,1.5-0.8,2.1c-0.4,1-0.2,1.2,1.1,1.4v0.5h-3.9
		v-0.5c1.1-0.2,1.4-0.3,2-1.8l3.7-8.9l0.6-0.2c1.1,3,2.2,6.1,3.4,9.1c0.6,1.5,0.8,1.7,1.9,1.8v0.5L189.4,228.2L189.4,228.2z
		 M187.7,219.1L187.7,219.1c-0.6,1.4-1.1,2.9-1.7,4.3h3.2L187.7,219.1z"/>
	<path d="M204.7,228.2v-0.5c1.4-0.1,1.5-0.3,1.5-2.1l-0.1-6.9H206l-4.3,9.3h-0.4l-3.9-9.1l0,0l-0.3,4.8c-0.1,1.4-0.1,2.1,0,2.8
		c0,0.8,0.4,0.9,1.6,1v0.5h-4.1v-0.5c1-0.1,1.3-0.3,1.5-1c0.1-0.6,0.2-1.3,0.3-3.2l0.3-3.4c0.2-2.2,0-2.3-1.5-2.5V217h3l4,8.4l4-8.4
		h3.1v0.5c-1.5,0.1-1.6,0.2-1.6,1.9l0.2,6.2c0.1,1.8,0.1,1.9,1.6,2.1v0.5H204.7z"/>
	<path d="M217.5,228.2v-0.5c1.1-0.2,1.2-0.3,1-1s-0.6-1.5-0.9-2.5h-3.8c-0.3,0.8-0.5,1.5-0.8,2.1c-0.4,1-0.2,1.2,1.1,1.4v0.5h-3.9
		v-0.5c1.1-0.2,1.4-0.3,2-1.8l3.7-8.9l0.6-0.2c1.1,3,2.2,6.1,3.4,9.1c0.6,1.5,0.8,1.7,1.9,1.8v0.5L217.5,228.2L217.5,228.2z
		 M215.8,219.1L215.8,219.1c-0.6,1.4-1.1,2.9-1.7,4.3h3.2L215.8,219.1z"/>
	<path d="M220,250.1c-1.2,0.1-1.5,0.4-2.1,1.3c-0.5,0.6-0.9,1.3-1.5,2.2c0.8,0.8,2.3,2.4,2.9,3.5l-0.1,0.2c-1.1-0.1-2.1-0.5-2.3-0.7
		s-0.9-1-1.5-1.6c-1.3,1.6-2.4,2.2-3.7,2.2c-2.2,0-3.5-1.6-3.5-3.1c0-1.6,1.1-2.2,2.6-3.3c-0.8-0.7-1.3-1.4-1.3-2.4
		c0-1.5,1.4-2.7,2.9-2.7s2.7,1,2.7,2.4c0,0.7-0.3,1.2-0.7,1.5c-0.3,0.3-0.8,0.6-1.4,1c0.6,0.5,1.8,1.5,2.9,2.6
		c0.4-0.6,0.7-1.2,1-1.9c0.3-0.8,0.2-1-1.1-1.2v-0.5h4.1v0.5H220z M212.3,256c1.1,0,2.2-0.7,2.7-1.5c-1-1-2.1-2.1-3.7-3.3
		c-1.1,0.7-1.5,1.5-1.5,2.3C209.8,255.2,211.1,256,212.3,256L212.3,256z M212.3,246.3c-0.8,0-1.4,0.7-1.4,1.7c0,0.9,0.5,1.5,1.6,2.3
		c0.8-0.6,1.2-1.2,1.2-2.2C213.8,247.1,213.2,246.3,212.3,246.3L212.3,246.3z"/>
	<path d="M231.2,251c1.8,0.2,3.2,1,3.2,2.7c0,1.1-0.6,2-1.7,2.6c-0.9,0.5-2.1,0.7-3.5,0.7h-4v-0.5c1.5-0.1,1.6-0.2,1.6-1.7V248
		c0-1.5-0.1-1.6-1.5-1.7v-0.5h4.6c1.3,0,2.1,0.2,2.7,0.6c0.6,0.4,1,1.2,1,2C233.6,250,232.2,250.7,231.2,251L231.2,251z
		 M229.2,250.8c1.9,0,2.7-0.7,2.7-2.2c0-1.2-0.7-2.2-2.3-2.2c-0.4,0-0.8,0.1-1,0.2c-0.2,0.1-0.2,0.3-0.2,0.8v3.3L229.2,250.8
		L229.2,250.8z M228.4,254.8c0,1.3,0.3,1.6,1.4,1.6c1.4,0,2.6-0.7,2.6-2.5c0-1.7-1.2-2.5-3.3-2.5h-0.7V254.8z"/>
	<path d="M242.6,257v-0.5c1.1-0.2,1.2-0.3,1-1c-0.2-0.7-0.6-1.5-0.9-2.5h-3.8c-0.3,0.8-0.5,1.5-0.8,2.1c-0.4,1-0.2,1.2,1.1,1.4v0.5
		h-3.9v-0.5c1.1-0.2,1.4-0.3,2-1.8l3.7-8.9l0.6-0.2c1.1,3,2.2,6.1,3.4,9.1c0.6,1.5,0.8,1.7,1.9,1.8v0.5H242.6z M240.9,247.9
		L240.9,247.9c-0.6,1.4-1.1,2.9-1.7,4.3h3.2L240.9,247.9z"/>
	<path d="M254,251c1.8,0.2,3.2,1,3.2,2.7c0,1.1-0.6,2-1.7,2.6c-0.9,0.5-2.1,0.7-3.5,0.7h-4v-0.5c1.5-0.1,1.6-0.2,1.6-1.7V248
		c0-1.5-0.1-1.6-1.5-1.7v-0.5h4.6c1.3,0,2.1,0.2,2.7,0.6c0.6,0.4,1,1.2,1,2C256.5,250,255.1,250.7,254,251L254,251z M252,250.8
		c1.9,0,2.7-0.7,2.7-2.2c0-1.2-0.7-2.2-2.3-2.2c-0.4,0-0.8,0.1-1,0.2c-0.2,0.1-0.2,0.3-0.2,0.8v3.3L252,250.8L252,250.8z
		 M251.3,254.8c0,1.3,0.3,1.6,1.4,1.6c1.4,0,2.6-0.7,2.6-2.5c0-1.7-1.2-2.5-3.3-2.5h-0.7V254.8z"/>
	<path d="M265.5,257v-0.5c1.1-0.2,1.2-0.3,1-1c-0.2-0.7-0.6-1.5-0.9-2.5h-3.8c-0.3,0.8-0.5,1.5-0.8,2.1c-0.4,1-0.2,1.2,1.1,1.4v0.5
		h-3.9v-0.5c1.1-0.2,1.4-0.3,2-1.8l3.7-8.9l0.6-0.2c1.1,3,2.2,6.1,3.4,9.1c0.6,1.5,0.8,1.7,1.9,1.8v0.5H265.5z M263.7,247.9
		L263.7,247.9c-0.6,1.4-1.1,2.9-1.7,4.3h3.2L263.7,247.9z"/>
</g>
</svg>
