<?xml version="1.0" encoding="utf-8"?>
<!-- Generator: Adobe Illustrator 22.1.0, SVG Export Plug-In . SVG Version: 6.00 Build 0)  -->
<svg version="1.1" id="Layer_1" xmlns="http://www.w3.org/2000/svg" xmlns:xlink="http://www.w3.org/1999/xlink" x="0px" y="0px"
	 viewBox="0 0 576 720" style="enable-background:new 0 0 576 720;" xml:space="preserve">
<style type="text/css">
	.st0{fill:none;stroke:#020203;stroke-width:2;stroke-miterlimit:10;}
	.st1{fill:#010202;stroke:#020203;stroke-width:2;stroke-miterlimit:10;}
</style>
<path class="st0" d="M351.3,448.1l-0.1-175.9l-125,124.2C226.1,396.4,270.1,449.8,351.3,448.1z"/>
<path class="st0" d="M340.5,382.8c0,20.6-16.5,37.2-36.8,37.2S267,403.3,267,382.8c0-8.8,3-16.9,8-23.2c6.7-8.5,17.1-14,28.7-14
	C324,345.5,340.5,362.2,340.5,382.8z"/>
<path class="st1" d="M328,356c-28-22.5-53,3.5-53,3.5l17,11.5l22-0.5L328,356z"/>
<path class="st1" d="M278.4,408.8c27.1,23.6,53.1-1.4,53.1-1.4L315,395.2l-22-0.4L278.4,408.8z"/>
<path class="st1" d="M270,368.5l16,9v11l-12.5,11C273.5,399.5,264.5,393,270,368.5z"/>
<path class="st1" d="M333.5,362.5l-11.5,11l-0.5,13.5l14,12.5C335.5,399.5,346.5,378,333.5,362.5z"/>
<polygon class="st1" points="292.6,378.2 292.9,388.7 312.6,388.7 312.8,377.3 292.5,377.2 "/>
</svg>
