<?xml version="1.0" encoding="utf-8"?>
<!-- Generator: Adobe Illustrator 22.1.0, SVG Export Plug-In . SVG Version: 6.00 Build 0)  -->
<svg version="1.1" id="Layer_1" xmlns="http://www.w3.org/2000/svg" xmlns:xlink="http://www.w3.org/1999/xlink" x="0px" y="0px"
	 viewBox="0 0 576 720" style="enable-background:new 0 0 576 720;" xml:space="preserve">
<style type="text/css">
	.st0{fill:#86C7AA;stroke:#020203;stroke-width:2;stroke-miterlimit:10;}
</style>
<polygon class="st0" points="68.5,226.5 293.6,226.5 294,449.7 "/>
<g>
	<path d="M154.9,270.7v-0.6c1.8-0.1,2-0.3,2-2.2v-8.7c0-1.9-0.2-2.1-2-2.2v-0.7h6.2v0.7c-1.8,0.1-2,0.3-2,2.2v8.7c0,1.9,0.2,2,2,2.2
		v0.6H154.9z"/>
	<path d="M183.8,261.7c-1.1,0.2-1.3,0.4-1.8,1.6c-0.7,1.7-1.7,4.7-2.8,7.7h-0.7c-0.9-2.4-1.9-4.6-2.8-6.8c-0.9,2.2-1.8,4.4-2.6,6.8
		h-0.7c-0.8-2.6-1.7-5.2-2.6-7.9c-0.4-1.1-0.6-1.3-1.6-1.4v-0.6h4.8v0.6c-1.3,0.2-1.5,0.4-1.1,1.3c0.5,1.6,1.1,3.3,1.6,4.9h0
		c0.8-2.1,1.7-4.3,2.6-6.8h0.6c0.8,2.2,1.8,4.5,2.7,6.9h0c0.4-1.4,1.1-3.4,1.5-4.9c0.3-1.1,0.1-1.2-1.3-1.4v-0.6h4.1V261.7z"/>
	<path d="M191.4,271c-0.4,0-0.9-0.2-1.2-0.4c-0.3-0.3-0.4-0.6-0.5-0.9c-0.9,0.6-2,1.4-2.6,1.4c-1.7,0-2.8-1.3-2.8-2.7
		c0-1.1,0.6-1.8,1.8-2.2c1.4-0.5,3-1,3.5-1.4v-0.4c0-1.6-0.7-2.4-1.8-2.4c-0.4,0-0.7,0.2-1,0.4c-0.3,0.3-0.5,0.8-0.7,1.5
		c-0.1,0.4-0.4,0.5-0.7,0.5c-0.4,0-1-0.5-1-1c0-0.3,0.3-0.6,0.7-0.9c0.7-0.5,2.2-1.3,3.4-1.6c0.7,0,1.4,0.2,1.9,0.6
		c0.8,0.7,1.1,1.6,1.1,2.8v4c0,1,0.4,1.3,0.8,1.3c0.3,0,0.6-0.1,0.8-0.2l0.2,0.6L191.4,271z M189.6,265.4c-0.5,0.2-1.4,0.7-1.8,0.9
		c-0.9,0.4-1.4,0.8-1.4,1.6c0,1.2,0.9,1.7,1.5,1.7c0.5,0,1.3-0.3,1.6-0.7V265.4z"/>
	<path d="M200.2,263.8c-0.4-1.3-1.2-2.2-2.3-2.2c-0.8,0-1.4,0.6-1.4,1.5c0,0.9,0.8,1.4,1.9,1.8c1.7,0.7,2.9,1.5,2.9,3
		c0,2.1-1.9,3.1-3.8,3.1c-1.2,0-2.2-0.4-2.6-0.7c-0.2-0.3-0.4-1.8-0.4-2.7l0.6-0.1c0.4,1.5,1.4,2.8,2.8,2.8c0.8,0,1.5-0.6,1.5-1.5
		c0-0.9-0.6-1.4-1.7-1.9c-1.3-0.6-2.9-1.3-2.9-3.1c0-1.6,1.4-2.9,3.5-2.9c1,0,1.6,0.2,2,0.4c0.2,0.5,0.5,1.8,0.5,2.4L200.2,263.8z"
		/>
	<path d="M213.7,260.8c2.9,0,5,2.2,5,4.9c0,3.6-2.7,5.3-5,5.3c-3.2,0-5.1-2.4-5.1-4.9C208.6,262.5,211.6,260.8,213.7,260.8
		L213.7,260.8z M213.4,261.6c-1.3,0-2.5,1.3-2.5,3.8c0,2.8,1.2,4.8,3,4.8c1.3,0,2.5-0.9,2.5-4C216.4,263.6,215.4,261.6,213.4,261.6
		L213.4,261.6z"/>
	<path d="M226.7,270.7v-0.6c1.3-0.1,1.4-0.3,1.4-1.9v-3.6c0-1.5-0.6-2.5-2-2.5c-0.8,0-1.7,0.5-2.4,1.1v5.1c0,1.5,0.1,1.6,1.4,1.7
		v0.6h-5v-0.6c1.5-0.2,1.6-0.3,1.6-1.8v-4.5c0-1.4-0.2-1.5-1.3-1.7v-0.6c1.1-0.2,2.2-0.5,3.3-0.9v1.8c0.5-0.3,0.9-0.7,1.5-1.1
		c0.6-0.4,1.2-0.7,1.9-0.7c1.8,0,2.9,1.3,2.9,3.5v4.1c0,1.5,0.1,1.6,1.4,1.7v0.6H226.7z"/>
	<path d="M162.6,300.2c2.3,0.3,4.1,1.3,4.1,3.5c0,1.5-0.8,2.6-2.1,3.4c-1.2,0.6-2.7,0.9-4.5,0.9h-5.2v-0.6c1.9-0.1,2.1-0.3,2.1-2.1
		v-8.8c0-1.9-0.1-2-1.9-2.1v-0.7h6c1.7,0,2.7,0.3,3.5,0.8c0.8,0.5,1.3,1.5,1.3,2.5C165.7,299,163.9,299.8,162.6,300.2L162.6,300.2z
		 M160,299.9c2.5,0,3.5-1,3.5-2.8c0-1.6-0.9-2.8-3-2.8c-0.5,0-1.1,0.1-1.3,0.3c-0.2,0.1-0.3,0.4-0.3,1.1v4.3H160z M159,305.1
		c0,1.6,0.4,2.1,1.9,2.1c1.8,0,3.4-0.9,3.4-3.2c0-2.2-1.5-3.2-4.3-3.2H159V305.1z"/>
	<path d="M168.4,307.9v-0.6c1.8-0.1,2-0.3,2-2.2v-8.7c0-1.9-0.2-2.1-2-2.2v-0.7h6.2v0.7c-1.8,0.1-2,0.3-2,2.2v8.7c0,1.9,0.2,2,2,2.2
		v0.6H168.4z"/>
	<path d="M187.5,304.4c-0.2,0.8-0.6,2.9-0.8,3.6h-10.4v-0.6c1.9-0.1,2.1-0.3,2.1-2.2v-8.7c0-1.9-0.2-2.1-2-2.2v-0.7h6.1v0.7
		c-1.8,0.1-2,0.2-2,2.2v8.6c0,1.2,0.1,1.6,0.5,1.9c0.4,0.2,1.2,0.3,2.1,0.3c1.2,0,2-0.1,2.5-0.7c0.4-0.4,0.8-1.2,1.2-2.2
		L187.5,304.4z"/>
	<path d="M199.8,304.4c-0.2,0.8-0.6,2.9-0.8,3.6h-10.4v-0.6c1.9-0.1,2.1-0.3,2.1-2.2v-8.7c0-1.9-0.2-2.1-2-2.2v-0.7h6.1v0.7
		c-1.8,0.1-2,0.2-2,2.2v8.6c0,1.2,0.1,1.6,0.5,1.9c0.4,0.2,1.2,0.3,2.1,0.3c1.2,0,2-0.1,2.5-0.7c0.4-0.4,0.8-1.2,1.2-2.2
		L199.8,304.4z"/>
	<path d="M208.7,300.2c2.3,0.3,4.1,1.3,4.1,3.5c0,1.5-0.8,2.6-2.1,3.4c-1.2,0.6-2.7,0.9-4.5,0.9h-5.2v-0.6c1.9-0.1,2.1-0.3,2.1-2.1
		v-8.8c0-1.9-0.1-2-1.9-2.1v-0.7h6c1.7,0,2.7,0.3,3.5,0.8c0.8,0.5,1.3,1.5,1.3,2.5C211.8,299,210,299.8,208.7,300.2L208.7,300.2z
		 M206.1,299.9c2.5,0,3.5-1,3.5-2.8c0-1.6-0.9-2.8-3-2.8c-0.5,0-1.1,0.1-1.3,0.3c-0.2,0.1-0.3,0.4-0.3,1.1v4.3H206.1z M205.1,305.1
		c0,1.6,0.4,2.1,1.9,2.1c1.8,0,3.4-0.9,3.4-3.2c0-2.2-1.5-3.2-4.3-3.2h-0.9V305.1z"/>
	<path d="M222.6,293.2c4,0,7.6,2.9,7.6,7.3c0,4.8-3.6,7.7-7.9,7.7c-4.3,0-7.6-3.1-7.6-7.4C214.7,296.9,217.7,293.2,222.6,293.2
		L222.6,293.2z M222.1,294c-2.5,0-5,2.1-5,6.3c0,4.1,2.4,7.1,5.7,7.1c2.5,0,4.9-2,4.9-6.3C227.7,296.5,225.1,294,222.1,294
		L222.1,294z"/>
	<path d="M241,307.9v-0.6c1.4-0.2,1.6-0.4,1.3-1.3c-0.3-0.9-0.7-2-1.2-3.3h-4.9c-0.4,1-0.7,1.9-1,2.8c-0.5,1.3-0.3,1.6,1.4,1.8v0.6
		h-5v-0.6c1.5-0.2,1.8-0.4,2.6-2.3l4.8-11.5l0.8-0.2c1.5,3.9,2.9,7.9,4.4,11.7c0.7,2,1,2.2,2.5,2.3v0.6H241z M238.8,296.3
		L238.8,296.3c-0.8,1.8-1.5,3.7-2.2,5.5h4.1L238.8,296.3z"/>
	<path d="M261.5,308.1c-0.3,0-0.5,0-0.8,0c-1.8-0.1-2.8-0.6-3.8-2c-0.8-1.1-1.5-2.4-2.2-3.5c-0.4-0.6-0.8-0.9-2-0.9h-0.6v3.5
		c0,1.9,0.2,2,2,2.2v0.6H248v-0.6c1.8-0.2,2-0.3,2-2.2v-8.8c0-1.9-0.2-2-2-2.1v-0.7h5.8c1.7,0,2.8,0.2,3.7,0.8
		c0.9,0.6,1.5,1.6,1.5,2.9c0,1.9-1.2,3.1-2.9,3.8c0.4,0.7,1.3,2.2,2,3.2c0.8,1.2,1.3,1.8,1.8,2.3c0.6,0.7,1.1,0.9,1.6,1L261.5,308.1
		z M253.1,300.9c1.1,0,1.9-0.2,2.5-0.6c0.9-0.7,1.2-1.5,1.2-2.7c0-2.4-1.6-3.3-3.2-3.3c-0.7,0-1,0.1-1.2,0.2c-0.2,0.1-0.2,0.4-0.2,1
		v5.4H253.1z"/>
	<path d="M269.1,293.5c2.9,0,5.1,0.6,6.5,1.9c1.1,1.1,1.9,2.7,1.9,4.8c0,2.6-1.1,4.6-2.8,5.9c-1.7,1.3-4.1,1.8-6.9,1.8h-5.6v-0.6
		c1.9-0.1,2.1-0.3,2.1-2.2v-8.8c0-1.9-0.2-2-1.9-2.1v-0.7H269.1z M266.4,304.9c0,1.8,0.8,2.2,2.4,2.2c4.2,0,6.3-3.1,6.3-6.6
		c0-2.3-0.9-4.2-2.6-5.2c-1-0.7-2.4-1-4-1c-1,0-1.6,0.2-1.8,0.3c-0.2,0.2-0.3,0.4-0.3,1.3V304.9z"/>
	<path d="M287.3,297c-0.4-1.4-1.1-3-3-3c-1.7,0-2.5,1.2-2.5,2.4c0,1.6,1,2.3,2.9,3.2c1.9,0.9,3.9,2,3.9,4.4c0,2.4-2,4.3-5.1,4.3
		c-0.9,0-1.7-0.2-2.3-0.4c-0.6-0.2-0.9-0.4-1.1-0.5c-0.2-0.4-0.5-2.5-0.6-3.5l0.7-0.2c0.4,1.4,1.5,3.7,3.8,3.7c1.6,0,2.6-1,2.6-2.6
		c0-1.6-1.2-2.4-2.9-3.3c-1.6-0.8-3.7-1.9-3.7-4.3c0-2.2,1.8-4,4.7-4c1.1,0,2.1,0.3,2.9,0.5c0.1,0.8,0.2,1.7,0.4,3.1L287.3,297z"/>
	<path d="M211.3,330.4c0.9,0,1.3,0.2,1.3,0.7c0,0.4-0.1,0.8-0.2,1.8c-0.3,2.5-0.5,5.1-0.7,7.8c-0.1,0.2-0.7,0.2-0.8,0
		c-0.2-2.8-0.4-5.3-0.7-7.8c-0.1-0.9-0.2-1.4-0.2-1.8C210,330.6,210.4,330.4,211.3,330.4L211.3,330.4z M211.3,345.4
		c-0.7,0-1.3-0.5-1.3-1.4c0-0.8,0.5-1.4,1.3-1.4c0.8,0,1.3,0.6,1.3,1.4C212.6,344.9,212.1,345.4,211.3,345.4L211.3,345.4z"/>
	<path d="M217.6,330.4c0.9,0,1.3,0.2,1.3,0.7c0,0.4-0.1,0.8-0.2,1.8c-0.3,2.5-0.5,5.1-0.7,7.8c-0.1,0.2-0.7,0.2-0.8,0
		c-0.2-2.8-0.4-5.3-0.7-7.8c-0.1-0.9-0.2-1.4-0.2-1.8C216.3,330.6,216.7,330.4,217.6,330.4L217.6,330.4z M217.6,345.4
		c-0.7,0-1.3-0.5-1.3-1.4c0-0.8,0.5-1.4,1.3-1.4c0.8,0,1.3,0.6,1.3,1.4C219,344.9,218.4,345.4,217.6,345.4L217.6,345.4z"/>
	<path d="M223.9,330.4c0.9,0,1.3,0.2,1.3,0.7c0,0.4-0.1,0.8-0.2,1.8c-0.3,2.5-0.5,5.1-0.7,7.8c-0.1,0.2-0.7,0.2-0.8,0
		c-0.2-2.8-0.4-5.3-0.7-7.8c-0.1-0.9-0.2-1.4-0.2-1.8C222.6,330.6,223,330.4,223.9,330.4L223.9,330.4z M223.9,345.4
		c-0.7,0-1.3-0.5-1.3-1.4c0-0.8,0.5-1.4,1.3-1.4c0.8,0,1.3,0.6,1.3,1.4C225.3,344.9,224.7,345.4,223.9,345.4L223.9,345.4z"/>
	<path d="M230.2,330.4c0.9,0,1.3,0.2,1.3,0.7c0,0.4-0.1,0.8-0.2,1.8c-0.3,2.5-0.5,5.1-0.7,7.8c-0.1,0.2-0.7,0.2-0.8,0
		c-0.2-2.8-0.4-5.3-0.7-7.8c-0.1-0.9-0.2-1.4-0.2-1.8C228.9,330.6,229.3,330.4,230.2,330.4L230.2,330.4z M230.2,345.4
		c-0.7,0-1.3-0.5-1.3-1.4c0-0.8,0.5-1.4,1.3-1.4c0.8,0,1.3,0.6,1.3,1.4C231.6,344.9,231,345.4,230.2,345.4L230.2,345.4z"/>
	<path d="M236.5,330.4c0.9,0,1.3,0.2,1.3,0.7c0,0.4-0.1,0.8-0.2,1.8c-0.3,2.5-0.5,5.1-0.7,7.8c-0.1,0.2-0.7,0.2-0.8,0
		c-0.2-2.8-0.4-5.3-0.7-7.8c-0.1-0.9-0.2-1.4-0.2-1.8C235.2,330.6,235.6,330.4,236.5,330.4L236.5,330.4z M236.5,345.4
		c-0.7,0-1.3-0.5-1.3-1.4c0-0.8,0.5-1.4,1.3-1.4c0.8,0,1.3,0.6,1.3,1.4C237.9,344.9,237.3,345.4,236.5,345.4L236.5,345.4z"/>
</g>
</svg>
