<?xml version="1.0" encoding="utf-8"?>
<!-- Generator: Adobe Illustrator 22.1.0, SVG Export Plug-In . SVG Version: 6.00 Build 0)  -->
<svg version="1.1" id="Layer_1" xmlns="http://www.w3.org/2000/svg" xmlns:xlink="http://www.w3.org/1999/xlink" x="0px" y="0px"
	 viewBox="0 0 576 720" style="enable-background:new 0 0 576 720;" xml:space="preserve">
<style type="text/css">
	.st0{fill:#B089BD;stroke:#020203;stroke-width:2;stroke-miterlimit:10;}
</style>
<path class="st0" d="M320.7,298.1l-121,121.1l172.7,1.7C372.4,421,378.5,353.6,320.7,298.1z"/>
<g>
	<path d="M245.7,404.7c0.1,1,0.2,2.7,0.1,3.5c-0.5,0.4-2.1,1.5-3.5,2.1c-5,2.1-8.7-0.3-10-3.3c-1.7-4,0.4-8,5-9.9
		c1.7-0.7,3.3-0.8,3.9-1c0.6,1,1.1,1.8,1.7,2.8l-0.5,0.4c-1.4-1.9-3.1-2.2-5.2-1.3c-3.3,1.4-4,4.8-2.8,7.7c1.5,3.6,4.7,5.1,7.8,3.8
		c2-0.9,2.7-2.4,2.9-4.8L245.7,404.7z"/>
	<path d="M249.9,391.9c3.4-1.4,7.6-0.3,9.2,3.6c1.7,4.1-0.3,8-4,9.5c-3.7,1.5-7.7,0.1-9.3-3.6C244.4,397.9,245.6,393.7,249.9,391.9
		L249.9,391.9z M249.7,392.8c-2.2,0.9-3.5,3.6-2,7.2c1.5,3.5,4.7,5.3,7.5,4.1c2.2-0.9,3.5-3.5,1.9-7.2
		C255.4,392.9,252.3,391.7,249.7,392.8L249.7,392.8z"/>
	<path d="M274.4,396.5l-0.2-0.5c1.5-0.8,1.5-1,0.7-3l-3.3-7.6l-0.1,0l-0.4,12.4l-0.4,0.2l-8.7-8.3l-0.1,0l2,5.5
		c0.6,1.6,0.9,2.4,1.3,3.2c0.4,0.9,0.9,0.8,2.3,0.4l0.2,0.6l-4.6,1.9l-0.2-0.6c1.1-0.6,1.3-1,1.2-1.8c-0.2-0.7-0.4-1.6-1.1-3.7
		l-1.3-4c-0.9-2.5-1-2.6-2.9-2l-0.2-0.6l3.3-1.4l8.4,7.5l0.5-11.3l3.4-1.4l0.2,0.6c-1.6,0.9-1.7,1-0.9,2.8l3.1,6.8
		c0.9,2,1,2.1,2.8,1.5l0.2,0.5L274.4,396.5z"/>
	<path d="M286.8,376.7c2.5-1.1,4.6-1.3,6.3-0.7c1.4,0.5,2.7,1.6,3.4,3.4c1,2.3,0.7,4.4-0.3,6.1c-1,1.7-2.8,3.1-5.2,4.1l-4.9,2
		l-0.2-0.5c1.6-0.8,1.7-1,1.1-2.6l-3.2-7.6c-0.7-1.6-0.9-1.7-2.4-1.1l-0.2-0.6L286.8,376.7z M288.6,387.4c0.6,1.5,1.5,1.6,2.9,1
		c3.6-1.5,4.3-4.9,3-7.9c-0.8-2-2.3-3.3-4.1-3.6c-1.2-0.2-2.4,0-3.8,0.6c-0.9,0.4-1.3,0.7-1.5,0.9c-0.1,0.2-0.1,0.5,0.2,1.2
		L288.6,387.4z"/>
	<path d="M309.7,378c0.2,0.8,0.5,2.7,0.6,3.4l-9.6,4l-0.2-0.5c1.7-0.9,1.8-1.1,1.1-2.7l-3.2-7.5c-0.7-1.7-0.9-1.7-2.5-1.2l-0.2-0.6
		l8.8-3.7c0.2,0.5,0.8,1.7,1.4,2.8l-0.6,0.3c-0.5-0.7-0.9-1.1-1.3-1.4c-0.5-0.3-1.1-0.2-2.4,0.4l-1.4,0.6c-0.6,0.3-0.7,0.3-0.4,0.9
		l1.8,4.3l1.8-0.8c1.7-0.7,1.8-1,1.5-2.3l0.6-0.2l1.6,3.7l-0.6,0.2c-0.9-1.3-1.1-1.3-2.8-0.6l-1.8,0.8l1.5,3.5
		c0.4,0.9,0.7,1.3,1.1,1.4c0.5,0.1,1.2-0.2,2.1-0.6c1.4-0.6,2-1,2.2-1.7c0.2-0.5,0.3-1.4,0.2-2.3L309.7,378z"/>
	<path d="M314.9,368.3c-0.9-1.1-2-2.2-3.7-1.5c-1.5,0.6-1.7,1.9-1.3,3c0.6,1.3,1.7,1.6,3.7,1.7c2,0.1,4.1,0.3,5,2.4
		c0.9,2-0.2,4.4-2.9,5.5c-0.8,0.3-1.5,0.5-2.1,0.5c-0.6,0.1-0.9,0-1.1,0c-0.3-0.3-1.3-1.9-1.8-2.8l0.5-0.4c0.8,1.1,2.6,2.7,4.6,1.8
		c1.4-0.6,1.9-1.8,1.3-3.2c-0.6-1.4-1.9-1.6-3.7-1.7c-1.6-0.1-3.9-0.3-4.8-2.4c-0.8-1.9,0.1-4.1,2.6-5.2c0.9-0.4,1.9-0.5,2.7-0.6
		c0.4,0.6,0.8,1.4,1.5,2.6L314.9,368.3z"/>
	<path d="M321.5,376.6l-0.2-0.5c1.5-0.8,1.7-1,1-2.6l-3.2-7.5c-0.7-1.7-0.9-1.7-2.6-1.1l-0.2-0.6l5.3-2.2l0.2,0.6
		c-1.5,0.8-1.7,1-1,2.6l3.2,7.5c0.7,1.6,0.9,1.7,2.5,1.1l0.2,0.5L321.5,376.6z"/>
	<path d="M339.3,363c-1.1,0.7-1.1,0.8-0.6,2l0.7,1.6c0.3,0.7,0.6,1.3,0.9,1.7c-1.1,0.8-2.6,2-4.2,2.7c-4.4,1.9-8.5,0.5-10.1-3.3
		c-1.9-4.4,0.9-8.1,4.9-9.8c1.7-0.7,3.5-1,4.2-1.1c0.3,0.6,0.9,1.7,1.6,3L336,360c-1.5-2.2-3.3-2.2-5.3-1.4c-3,1.3-4.3,4.3-2.8,7.8
		c1.2,2.8,4.2,5.3,8,3.6c0.6-0.3,1.2-0.7,1.5-1c0.3-0.4,0.4-0.8,0.1-1.5l-0.7-1.6c-0.6-1.4-0.8-1.5-2.8-0.8l-0.2-0.5l5.2-2.2
		L339.3,363z"/>
	<path d="M351.2,350.1c-1.1,0.5-1.4,0.9-1.2,1.8c0.2,0.6,0.5,1.5,1.3,3.3l3.2,7.6l-0.6,0.3l-12.8-6.3l0,0l2,4.7
		c0.7,1.8,1.2,2.6,1.5,3.2c0.5,1,1.1,1,2.4,0.5l0.2,0.5l-4.7,2l-0.2-0.5c1.1-0.6,1.5-1,1.2-2c-0.2-0.6-0.5-1.6-1.2-3.3l-1.7-4.1
		c-0.6-1.4-0.7-1.5-1.2-1.8c-0.6-0.3-1.1-0.3-2,0l-0.2-0.6l3-1.3l12.3,5.9l0.1,0l-1.9-4.4c-0.7-1.8-1.2-2.6-1.5-3.1
		c-0.5-0.9-1-0.9-2.5-0.4l-0.2-0.6l4.7-2L351.2,350.1z"/>
</g>
</svg>
