<?xml version="1.0" encoding="utf-8"?>
<!-- Generator: Adobe Illustrator 22.1.0, SVG Export Plug-In . SVG Version: 6.00 Build 0)  -->
<svg version="1.1" id="Layer_1" xmlns="http://www.w3.org/2000/svg" xmlns:xlink="http://www.w3.org/1999/xlink" x="0px" y="0px"
	 viewBox="0 0 576 720" style="enable-background:new 0 0 576 720;" xml:space="preserve">
<style type="text/css">
	.st0{fill:none;stroke:#020203;stroke-miterlimit:10;}
	.st1{fill:#EAB081;stroke:#020203;stroke-width:2;stroke-miterlimit:10;}
</style>
<path class="st0" d="M218.3,289.8"/>
<path class="st0" d="M217.5,430.1l0.8-140.4L217.5,430.1z"/>
<polygon class="st1" points="357.8,430.1 217.5,430.1 218.3,289.8 "/>
<g>
	<path d="M236.8,368.7c-0.3-1.1-0.8-2.3-2.3-2.3c-1.3,0-1.9,0.9-1.9,1.9c0,1.2,0.8,1.8,2.2,2.5c1.5,0.7,3,1.5,3,3.4
		c0,1.8-1.6,3.3-4,3.3c-0.7,0-1.3-0.1-1.8-0.3c-0.4-0.1-0.7-0.3-0.9-0.4c-0.1-0.3-0.4-1.9-0.5-2.7l0.5-0.2c0.3,1.1,1.1,2.9,2.9,2.9
		c1.3,0,2-0.8,2-2c0-1.2-0.9-1.8-2.3-2.5c-1.2-0.6-2.9-1.5-2.9-3.4c0-1.7,1.4-3.1,3.7-3.1c0.8,0,1.6,0.2,2.3,0.4
		c0.1,0.6,0.2,1.3,0.3,2.4L236.8,368.7z"/>
	<path d="M245.3,365.8c3.1,0,5.9,2.2,5.9,5.7c0,3.7-2.8,6-6.1,6c-3.3,0-5.9-2.4-5.9-5.7C239.2,368.6,241.5,365.8,245.3,365.8
		L245.3,365.8z M245,366.4c-2,0-3.8,1.6-3.8,4.9c0,3.2,1.9,5.5,4.4,5.5c2,0,3.8-1.6,3.8-4.9C249.3,368.3,247.3,366.4,245,366.4
		L245,366.4z"/>
	<path d="M265.1,366.6c-1.5,0.1-1.6,0.2-1.6,1.7v6.8c0,1.5,0.2,1.5,1.6,1.7v0.5h-4.9v-0.5c1.5-0.1,1.7-0.2,1.7-1.7v-3.4h-6v3.4
		c0,1.4,0.1,1.5,1.6,1.7v0.5h-4.8v-0.5c1.4-0.1,1.5-0.2,1.5-1.7v-6.8c0-1.5-0.1-1.5-1.6-1.7V366h4.7v0.5c-1.4,0.1-1.5,0.2-1.5,1.7
		v2.7h6v-2.7c0-1.4-0.1-1.5-1.5-1.7V366h4.7V366.6z"/>
	<path d="M272.7,365.8c3.1,0,5.9,2.2,5.9,5.7c0,3.7-2.8,6-6.1,6c-3.3,0-5.9-2.4-5.9-5.7C266.5,368.6,268.8,365.8,272.7,365.8
		L272.7,365.8z M272.3,366.4c-2,0-3.8,1.6-3.8,4.9c0,3.2,1.9,5.5,4.4,5.5c2,0,3.8-1.6,3.8-4.9C276.6,368.3,274.6,366.4,272.3,366.4
		L272.3,366.4z"/>
</g>
</svg>
