<?xml version="1.0" encoding="utf-8"?>
<!-- Generator: Adobe Illustrator 22.1.0, SVG Export Plug-In . SVG Version: 6.00 Build 0)  -->
<svg version="1.1" id="Layer_1" xmlns="http://www.w3.org/2000/svg" xmlns:xlink="http://www.w3.org/1999/xlink" x="0px" y="0px"
	 viewBox="0 0 576 720" style="enable-background:new 0 0 576 720;" xml:space="preserve">
<style type="text/css">
	.st0{fill:#8394CB;stroke:#020203;stroke-width:2;stroke-miterlimit:10;}
</style>
<path class="st0" d="M144.8,378.1v83.3l288-0.7c0,0-87.5,4.6-145.8-75c0,0-38.9-48.2-29.5-129.7L144.8,378.1z"/>
<g>
	<path d="M164,406.6c-1.2,0.2-1.4,0.3-1.9,1.8c-0.4,1.1-1.5,4.3-2.9,9h-0.6c-1-2.7-2.2-6-3.1-8.4h0c-1,2.9-2,5.7-2.9,8.4H152
		c-0.9-3.1-1.9-6.1-2.9-9.1c-0.4-1.4-0.7-1.6-1.8-1.7V406h4.4v0.5c-1.3,0.2-1.3,0.3-1.1,1.2c0.7,2.2,1.4,4.5,2.1,6.9h0
		c0.9-2.8,1.9-5.7,2.8-8.5h0.6c1,2.8,2,5.6,3.1,8.5h0c0.8-2.3,1.7-5.6,2-6.7c0.2-1,0.2-1.2-1.2-1.4V406h3.9V406.6z"/>
	<path d="M175.4,417.3c-0.2,0-0.4,0-0.6,0c-1.4-0.1-2.1-0.4-3-1.6c-0.6-0.8-1.2-1.9-1.7-2.7c-0.3-0.5-0.6-0.7-1.5-0.7h-0.5v2.7
		c0,1.4,0.2,1.6,1.6,1.7v0.5h-4.7v-0.5c1.4-0.1,1.6-0.2,1.6-1.7v-6.8c0-1.5-0.2-1.6-1.5-1.7V406h4.5c1.3,0,2.2,0.2,2.8,0.6
		c0.7,0.4,1.2,1.2,1.2,2.2c0,1.5-1,2.4-2.2,2.9c0.3,0.6,1,1.7,1.5,2.5c0.6,0.9,1,1.4,1.4,1.8c0.4,0.5,0.8,0.7,1.2,0.8L175.4,417.3z
		 M168.9,411.8c0.9,0,1.5-0.1,1.9-0.5c0.7-0.5,0.9-1.2,0.9-2.1c0-1.8-1.2-2.5-2.5-2.5c-0.5,0-0.8,0.1-0.9,0.2
		c-0.1,0.1-0.2,0.3-0.2,0.7v4.2H168.9z"/>
	<path d="M185.1,414.4c-0.1,0.6-0.5,2.2-0.6,2.8h-8.6v-0.5c1.6-0.1,1.7-0.3,1.7-1.7v-6.7c0-1.6-0.2-1.6-1.5-1.7V406h7.9
		c0,0.4,0.1,1.6,0.2,2.5l-0.5,0.1c-0.2-0.7-0.4-1.1-0.6-1.5c-0.3-0.4-0.7-0.5-1.9-0.5h-1.3c-0.6,0-0.6,0-0.6,0.6v3.8h1.6
		c1.6,0,1.7-0.1,1.9-1.3h0.5v3.4h-0.5c-0.2-1.3-0.4-1.3-1.9-1.3h-1.6v3.2c0,0.8,0.1,1.2,0.4,1.4c0.3,0.2,1,0.2,1.8,0.2
		c1.3,0,1.8-0.1,2.2-0.6c0.3-0.4,0.6-1,0.9-1.7L185.1,414.4z"/>
	<path d="M192.2,408.7c-0.3-1.1-0.8-2.3-2.3-2.3c-1.3,0-1.9,0.9-1.9,1.9c0,1.2,0.8,1.8,2.2,2.5c1.5,0.7,3,1.5,3,3.4
		c0,1.8-1.6,3.3-4,3.3c-0.7,0-1.3-0.1-1.8-0.3c-0.4-0.1-0.7-0.3-0.9-0.4c-0.1-0.3-0.4-1.9-0.5-2.7l0.5-0.2c0.3,1.1,1.1,2.9,2.9,2.9
		c1.3,0,2-0.8,2-2c0-1.2-0.9-1.8-2.3-2.5c-1.2-0.6-2.9-1.5-2.9-3.4c0-1.7,1.4-3.1,3.7-3.1c0.8,0,1.6,0.2,2.3,0.4
		c0.1,0.6,0.2,1.3,0.3,2.4L192.2,408.7z"/>
	<path d="M203.9,408.8c-0.2-0.9-0.4-1.3-0.6-1.6c-0.3-0.4-0.6-0.5-1.9-0.5h-1.2v8.4c0,1.4,0.2,1.6,1.8,1.7v0.5h-5.2v-0.5
		c1.6-0.1,1.8-0.3,1.8-1.7v-8.4h-1c-1.5,0-1.9,0.2-2.1,0.5c-0.2,0.3-0.4,0.8-0.6,1.6h-0.5c0.1-1.1,0.2-2.2,0.2-3.2h0.4
		c0.3,0.4,0.5,0.4,1,0.4h7.1c0.5,0,0.6-0.1,0.9-0.4h0.4c0,0.8,0.1,2.1,0.2,3.1L203.9,408.8z"/>
	<path d="M214.2,414.4c-0.1,0.6-0.5,2.2-0.7,2.8h-8.1v-0.5c1.5-0.1,1.7-0.2,1.7-1.7v-6.7c0-1.5-0.1-1.6-1.6-1.7V406h4.7v0.5
		c-1.4,0.1-1.5,0.2-1.5,1.7v6.7c0,0.9,0.1,1.3,0.4,1.4c0.3,0.2,0.9,0.2,1.6,0.2c0.9,0,1.5-0.1,1.9-0.6c0.3-0.3,0.7-0.9,0.9-1.7
		L214.2,414.4z"/>
	<path d="M215.1,417.2v-0.5c1.4-0.1,1.6-0.2,1.6-1.7v-6.8c0-1.5-0.2-1.6-1.6-1.7V406h4.8v0.5c-1.4,0.1-1.6,0.2-1.6,1.7v6.8
		c0,1.5,0.2,1.6,1.6,1.7v0.5H215.1z"/>
	<path d="M233.4,406.6c-1,0-1.4,0.2-1.5,1c-0.1,0.6-0.1,1.3-0.1,2.9v6.9h-0.6l-7.7-8.9h0l0,4.2c0,1.6,0.1,2.4,0.1,2.9
		c0.1,0.9,0.5,1.1,1.7,1.2v0.5h-4.2v-0.5c1-0.1,1.5-0.3,1.5-1.1c0.1-0.5,0.1-1.3,0.1-2.9v-3.7c0-1.3-0.1-1.3-0.4-1.8
		c-0.4-0.4-0.7-0.6-1.6-0.6V406h2.7l7.5,8.5h0v-4c0-1.6-0.1-2.4-0.1-2.9c-0.1-0.8-0.5-1-1.7-1.1V406h4.2V406.6z"/>
	<path d="M246.3,412.5c-1,0.2-1.1,0.2-1.1,1.3v1.4c0,0.6,0,1.1,0.1,1.6c-1.1,0.3-2.6,0.7-4.1,0.7c-4,0-6.7-2.4-6.7-5.8
		c0-3.9,3.3-5.9,6.9-5.9c1.5,0,2.9,0.4,3.5,0.5c0,0.6,0.1,1.5,0.3,2.8l-0.5,0.1c-0.4-2.1-1.8-2.8-3.6-2.8c-2.7,0-4.7,1.9-4.7,5.1
		c0,2.5,1.5,5.4,4.9,5.4c0.6,0,1.1-0.1,1.5-0.3c0.4-0.2,0.6-0.4,0.6-1.1V414c0-1.3-0.1-1.4-1.9-1.5V412h4.6V412.5z"/>
	<path d="M268.4,406.6c-1.2,0.2-1.4,0.3-1.9,1.8c-0.4,1.1-1.5,4.3-2.9,9H263c-1-2.7-2.2-6-3.1-8.4h0c-1,2.9-2,5.7-2.9,8.4h-0.6
		c-0.9-3.1-1.9-6.1-2.9-9.1c-0.4-1.4-0.7-1.6-1.8-1.7V406h4.4v0.5c-1.3,0.2-1.3,0.3-1.1,1.2c0.7,2.2,1.4,4.5,2.1,6.9h0
		c0.9-2.8,1.9-5.7,2.8-8.5h0.6c1,2.8,2,5.6,3.1,8.5h0c0.8-2.3,1.7-5.6,2-6.7c0.2-1,0.2-1.2-1.2-1.4V406h3.9V406.6z"/>
	<path d="M269.4,417.2v-0.5c1.4-0.1,1.6-0.2,1.6-1.7v-6.8c0-1.5-0.2-1.6-1.6-1.7V406h4.8v0.5c-1.4,0.1-1.6,0.2-1.6,1.7v6.8
		c0,1.5,0.2,1.6,1.6,1.7v0.5H269.4z"/>
	<path d="M284.9,408.8c-0.2-0.9-0.4-1.3-0.6-1.6c-0.3-0.4-0.6-0.5-1.9-0.5h-1.2v8.4c0,1.4,0.2,1.6,1.8,1.7v0.5h-5.2v-0.5
		c1.6-0.1,1.8-0.3,1.8-1.7v-8.4h-1c-1.5,0-1.9,0.2-2.1,0.5c-0.2,0.3-0.4,0.8-0.6,1.6h-0.5c0.1-1.1,0.2-2.2,0.2-3.2h0.4
		c0.3,0.4,0.5,0.4,1,0.4h7.1c0.5,0,0.6-0.1,0.9-0.4h0.4c0,0.8,0.1,2.1,0.2,3.1L284.9,408.8z"/>
	<path d="M299,406.6c-1.5,0.1-1.6,0.2-1.6,1.7v6.8c0,1.5,0.2,1.5,1.6,1.7v0.5h-4.9v-0.5c1.5-0.1,1.7-0.2,1.7-1.7v-3.4h-6v3.4
		c0,1.4,0.1,1.5,1.6,1.7v0.5h-4.8v-0.5c1.4-0.1,1.5-0.2,1.5-1.7v-6.8c0-1.5-0.1-1.5-1.6-1.7V406h4.7v0.5c-1.4,0.1-1.5,0.2-1.5,1.7
		v2.7h6v-2.7c0-1.4-0.1-1.5-1.5-1.7V406h4.7V406.6z"/>
	<path d="M153.7,440c1.8,0.2,3.2,1,3.2,2.7c0,1.1-0.6,2-1.7,2.6c-0.9,0.5-2.1,0.7-3.5,0.7h-4v-0.5c1.5-0.1,1.6-0.2,1.6-1.7V437
		c0-1.5-0.1-1.6-1.5-1.7v-0.5h4.6c1.3,0,2.1,0.2,2.7,0.6c0.6,0.4,1,1.2,1,2C156.1,439,154.7,439.7,153.7,440L153.7,440z
		 M151.6,439.8c1.9,0,2.7-0.7,2.7-2.2c0-1.2-0.7-2.2-2.3-2.2c-0.4,0-0.8,0.1-1,0.2c-0.2,0.1-0.2,0.3-0.2,0.8v3.3H151.6z
		 M150.9,443.8c0,1.3,0.3,1.6,1.4,1.6c1.4,0,2.6-0.7,2.6-2.5c0-1.7-1.2-2.5-3.3-2.5h-0.7V443.8z"/>
	<path d="M168.6,446.1c-0.2,0-0.4,0-0.6,0c-1.4-0.1-2.1-0.4-3-1.6c-0.6-0.8-1.2-1.9-1.7-2.7c-0.3-0.5-0.6-0.7-1.5-0.7h-0.5v2.7
		c0,1.4,0.2,1.6,1.6,1.7v0.5h-4.7v-0.5c1.4-0.1,1.6-0.2,1.6-1.7V437c0-1.5-0.2-1.6-1.5-1.7v-0.5h4.5c1.3,0,2.2,0.2,2.8,0.6
		c0.7,0.4,1.2,1.2,1.2,2.2c0,1.5-1,2.4-2.2,2.9c0.3,0.6,1,1.7,1.5,2.5c0.6,0.9,1,1.4,1.4,1.8c0.4,0.5,0.8,0.7,1.2,0.8L168.6,446.1z
		 M162.1,440.6c0.9,0,1.5-0.1,1.9-0.5c0.7-0.5,0.9-1.2,0.9-2.1c0-1.8-1.2-2.5-2.5-2.5c-0.5,0-0.8,0.1-0.9,0.2
		c-0.1,0.1-0.2,0.3-0.2,0.7v4.2H162.1z"/>
	<path d="M175.5,434.6c3.1,0,5.9,2.2,5.9,5.7c0,3.7-2.8,6-6.1,6c-3.3,0-5.9-2.4-5.9-5.7C169.3,437.4,171.7,434.6,175.5,434.6
		L175.5,434.6z M175.1,435.2c-2,0-3.8,1.6-3.8,4.9c0,3.2,1.9,5.5,4.4,5.5c2,0,3.8-1.6,3.8-4.9C179.4,437.1,177.4,435.2,175.1,435.2
		L175.1,435.2z"/>
	<path d="M192.2,437.6c-0.2-0.9-0.4-1.3-0.6-1.6c-0.3-0.4-0.6-0.5-1.9-0.5h-1.2v8.4c0,1.4,0.2,1.6,1.8,1.7v0.5h-5.2v-0.5
		c1.6-0.1,1.8-0.3,1.8-1.7v-8.4h-1c-1.5,0-1.9,0.2-2.1,0.5c-0.2,0.3-0.4,0.8-0.6,1.6h-0.5c0.1-1.1,0.2-2.2,0.2-3.2h0.4
		c0.3,0.4,0.5,0.4,1,0.4h7.1c0.5,0,0.6-0.1,0.9-0.4h0.4c0,0.8,0.1,2.1,0.2,3.1L192.2,437.6z"/>
	<path d="M206.3,435.4c-1.5,0.1-1.6,0.2-1.6,1.7v6.8c0,1.5,0.2,1.5,1.6,1.7v0.5h-4.9v-0.5c1.5-0.1,1.7-0.2,1.7-1.7v-3.4h-6v3.4
		c0,1.4,0.1,1.5,1.6,1.7v0.5h-4.8v-0.5c1.4-0.1,1.5-0.2,1.5-1.7V437c0-1.5-0.1-1.5-1.6-1.7v-0.5h4.7v0.5c-1.4,0.1-1.5,0.2-1.5,1.7
		v2.7h6V437c0-1.4-0.1-1.5-1.5-1.7v-0.5h4.7V435.4z"/>
	<path d="M216.7,443.2c-0.1,0.6-0.5,2.2-0.6,2.8h-8.6v-0.5c1.6-0.1,1.7-0.3,1.7-1.7v-6.7c0-1.6-0.2-1.6-1.5-1.7v-0.5h7.9
		c0,0.4,0.1,1.6,0.2,2.5l-0.5,0.1c-0.2-0.7-0.4-1.1-0.6-1.5c-0.3-0.4-0.7-0.5-1.9-0.5h-1.3c-0.6,0-0.6,0-0.6,0.6v3.8h1.6
		c1.6,0,1.7-0.1,1.9-1.3h0.5v3.4h-0.5c-0.2-1.3-0.4-1.3-1.9-1.3h-1.6v3.2c0,0.8,0.1,1.2,0.4,1.4c0.3,0.2,1,0.2,1.8,0.2
		c1.3,0,1.8-0.1,2.2-0.6c0.3-0.4,0.6-1,0.9-1.7L216.7,443.2z"/>
	<path d="M228.2,446.1c-0.2,0-0.4,0-0.6,0c-1.4-0.1-2.1-0.4-3-1.6c-0.6-0.8-1.2-1.9-1.7-2.7c-0.3-0.5-0.6-0.7-1.5-0.7h-0.5v2.7
		c0,1.4,0.2,1.6,1.6,1.7v0.5h-4.7v-0.5c1.4-0.1,1.6-0.2,1.6-1.7V437c0-1.5-0.2-1.6-1.5-1.7v-0.5h4.5c1.3,0,2.2,0.2,2.8,0.6
		c0.7,0.4,1.2,1.2,1.2,2.2c0,1.5-1,2.4-2.2,2.9c0.3,0.6,1,1.7,1.5,2.5c0.6,0.9,1,1.4,1.4,1.8c0.4,0.5,0.8,0.7,1.2,0.8L228.2,446.1z
		 M221.7,440.6c0.9,0,1.5-0.1,1.9-0.5c0.7-0.5,0.9-1.2,0.9-2.1c0-1.8-1.2-2.5-2.5-2.5c-0.5,0-0.8,0.1-0.9,0.2
		c-0.1,0.1-0.2,0.3-0.2,0.7v4.2H221.7z"/>
	<path d="M234.9,437.5c-0.3-1.1-0.8-2.3-2.3-2.3c-1.3,0-1.9,0.9-1.9,1.9c0,1.2,0.8,1.8,2.2,2.5c1.5,0.7,3,1.5,3,3.4
		c0,1.8-1.6,3.3-4,3.3c-0.7,0-1.3-0.1-1.8-0.3c-0.4-0.1-0.7-0.3-0.9-0.4c-0.1-0.3-0.4-1.9-0.5-2.7l0.5-0.2c0.3,1.1,1.1,2.9,2.9,2.9
		c1.3,0,2-0.8,2-2c0-1.2-0.9-1.8-2.3-2.5c-1.2-0.6-2.9-1.5-2.9-3.4c0-1.7,1.4-3.1,3.7-3.1c0.8,0,1.6,0.2,2.3,0.4
		c0.1,0.6,0.2,1.3,0.3,2.4L234.9,437.5z"/>
</g>
</svg>
