<?xml version="1.0" encoding="utf-8"?>
<!-- Generator: Adobe Illustrator 22.1.0, SVG Export Plug-In . SVG Version: 6.00 Build 0)  -->
<svg version="1.1" id="Layer_1" xmlns="http://www.w3.org/2000/svg" xmlns:xlink="http://www.w3.org/1999/xlink" x="0px" y="0px"
	 viewBox="0 0 576 720" style="enable-background:new 0 0 576 720;" xml:space="preserve">
<style type="text/css">
	.st0{fill:#E97979;stroke:#020203;stroke-width:2;stroke-miterlimit:10;}
</style>
<polygon class="st0" points="44.1,252.7 203.4,330.5 391.7,331.4 234.3,252.7 "/>
<g>
	<path d="M144.9,257.4c3.9,0,6.9,0.8,8.8,2.6c1.5,1.5,2.6,3.7,2.6,6.5c0,3.5-1.5,6.2-3.9,8c-2.4,1.7-5.5,2.5-9.3,2.5h-7.6v-1
		c2.6-0.2,2.9-0.4,2.9-2.9v-11.9c0-2.6-0.3-2.7-2.6-2.9v-0.9L144.9,257.4L144.9,257.4z M141.3,272.8c0,2.4,1,2.9,3.3,2.9
		c5.7,0,8.5-4.2,8.5-8.9c0-3.1-1.2-5.6-3.5-7.1c-1.4-0.9-3.3-1.4-5.5-1.4c-1.4,0-2.1,0.2-2.5,0.4c-0.3,0.2-0.4,0.6-0.4,1.7
		L141.3,272.8L141.3,272.8z"/>
	<path d="M180.1,258.3c-1.8,0.1-2.6,0.6-2.7,1.8c-0.1,0.8-0.2,2.1-0.2,4.8v2.4c0,3.5-0.6,6.2-2.4,8c-1.4,1.5-3.5,2.1-5.6,2.1
		c-1.9,0-3.7-0.4-5-1.5c-1.9-1.4-2.8-3.7-2.8-7.3v-7.2c0-2.8-0.3-2.9-2.7-3.1v-0.9h8.2v0.9c-2.4,0.1-2.7,0.3-2.7,3.1v6.5
		c0,4.9,2.1,7.6,5.8,7.6c4.3,0,5.8-3.5,5.8-8.5v-2.3c0-2.7-0.1-3.9-0.2-4.8c-0.2-1.1-0.9-1.6-3-1.7v-0.9h7.4L180.1,258.3
		L180.1,258.3z"/>
	<path d="M192.3,266.4c3.1,0.4,5.5,1.7,5.5,4.7c0,2-1.1,3.6-2.9,4.6c-1.6,0.8-3.7,1.2-6.1,1.2h-7.1V276c2.6-0.2,2.8-0.4,2.8-2.9
		v-11.9c0-2.6-0.1-2.7-2.6-2.9v-0.9h8.1c2.3,0,3.7,0.3,4.7,1c1.1,0.7,1.7,2,1.7,3.4c0,2.9-2.5,4-4.3,4.5v0.1H192.3z M188.8,266
		c3.3,0,4.7-1.3,4.7-3.8c0-2.2-1.2-3.9-4-3.9c-0.7,0-1.4,0.2-1.7,0.4c-0.3,0.2-0.3,0.5-0.3,1.5v5.8H188.8z M187.4,273
		c0,2.2,0.6,2.8,2.5,2.8c2.4,0,4.6-1.3,4.6-4.4c0-3-2.1-4.4-5.8-4.4h-1.3V273z"/>
	<path d="M212.3,276.9V276c1.9-0.3,2.2-0.5,1.8-1.7s-1-2.7-1.6-4.4h-6.6c-0.5,1.4-0.9,2.5-1.3,3.7c-0.7,1.8-0.4,2.2,1.9,2.4v0.9
		h-6.8V276c2-0.3,2.4-0.5,3.5-3.2l6.4-15.6l1.1-0.3c2,5.3,3.9,10.6,6,15.9c1,2.6,1.4,3,3.4,3.2v0.9H212.3z M209.3,261L209.3,261
		c-1,2.5-2,5-2.9,7.5h5.6L209.3,261z"/>
	<path d="M221.8,276.9V276c2.5-0.2,2.8-0.4,2.8-3v-11.8c0-2.6-0.3-2.8-2.8-3v-0.9h8.4v0.9c-2.5,0.2-2.7,0.3-2.7,3V273
		c0,2.6,0.3,2.8,2.7,3v0.9H221.8z"/>
	<path d="M265,308.7c-1.7,0.1-2.4,0.4-2.6,1.8c-0.1,1-0.2,2.3-0.2,5.1v12h-1L247.8,312l0,0v7.3c0,2.8,0.1,4.2,0.2,5
		c0.1,1.6,0.8,1.9,3,2.1v0.9h-7.3v-0.9c1.8-0.1,2.5-0.5,2.7-2c0.1-0.9,0.2-2.4,0.2-5.1v-6.4c0-2.2-0.1-2.4-0.7-3.1
		c-0.6-0.7-1.3-1-2.7-1.1v-0.9h4.7l13.1,14.8h0.1v-7c0-2.8-0.1-4.1-0.2-5c-0.1-1.4-0.9-1.8-3.1-1.9v-0.9h7.3L265,308.7L265,308.7z"
		/>
	<path d="M285.2,308.7c-2.1,0.2-2.5,0.6-3.7,2.4c-1.4,2.1-2.4,3.7-3.9,6.4c-0.5,0.8-0.5,1.1-0.5,2v3.9c0,2.6,0.2,2.8,3.1,3v0.9h-8.9
		v-0.9c2.7-0.2,3-0.4,3-3v-3.8c0-0.6-0.1-0.9-0.7-1.8c-1-1.7-2.1-3.7-3.9-6.5c-1.2-2-1.6-2.4-3.4-2.6v-0.9h7.6v0.9
		c-2.2,0.3-2.1,0.7-1.6,1.7c1.3,2.3,2.8,4.8,4.1,7c1.1-1.9,2.8-4.9,3.7-6.7c0.7-1.4,0.6-1.7-1.8-1.9v-0.9h6.9L285.2,308.7
		L285.2,308.7z"/>
	<path d="M306,322.1c-0.4,1.4-1.3,3.8-1.8,4.8c-0.9,0.2-3.6,0.9-5.9,0.9c-7.9,0-11.4-5.2-11.4-10c0-6.3,5.1-10.5,12.2-10.5
		c2.6,0,4.8,0.7,5.7,0.9c0.2,1.7,0.5,3,0.7,4.7l-0.9,0.2c-0.8-3.3-2.9-4.6-6.2-4.6c-5.2,0-8,4.2-8,8.7c0,5.7,3.5,9.4,8.3,9.4
		c3.2,0,4.9-1.7,6.5-4.8L306,322.1z"/>
</g>
</svg>
