<?xml version="1.0" encoding="utf-8"?>
<!-- Generator: Adobe Illustrator 22.1.0, SVG Export Plug-In . SVG Version: 6.00 Build 0)  -->
<svg version="1.1" id="Layer_1" xmlns="http://www.w3.org/2000/svg" xmlns:xlink="http://www.w3.org/1999/xlink" x="0px" y="0px"
	 viewBox="0 0 576 720" style="enable-background:new 0 0 576 720;" xml:space="preserve">
<style type="text/css">
	.st0{fill:#E0DE17;stroke:#020203;stroke-width:2;stroke-miterlimit:10;}
</style>
<path class="st0" d="M214,328.7c0,0,15.5-122,158.3-146.2l-158.5,1L214,328.7z"/>
<g>
	<path d="M239.4,192.1c-1,0-1.4,0.2-1.5,1c-0.1,0.6-0.1,1.3-0.1,2.9v6.9h-0.6l-7.7-8.9h0l0,4.2c0,1.6,0.1,2.4,0.1,2.9
		c0.1,0.9,0.5,1.1,1.7,1.2v0.5h-4.2v-0.5c1-0.1,1.5-0.3,1.5-1.1c0.1-0.5,0.1-1.3,0.1-2.9v-3.7c0-1.3-0.1-1.3-0.4-1.8
		c-0.4-0.4-0.7-0.6-1.6-0.6v-0.5h2.7l7.5,8.5h0v-4c0-1.6-0.1-2.4-0.1-2.9c-0.1-0.8-0.5-1-1.7-1.1v-0.5h4.2V192.1z"/>
	<path d="M246.7,191.3c3.1,0,5.9,2.2,5.9,5.7c0,3.7-2.8,6-6.1,6c-3.3,0-5.9-2.4-5.9-5.7C240.6,194.1,242.9,191.3,246.7,191.3
		L246.7,191.3z M246.3,191.9c-2,0-3.8,1.6-3.8,4.9c0,3.2,1.9,5.5,4.4,5.5c2,0,3.8-1.6,3.8-4.9C250.6,193.8,248.6,191.9,246.3,191.9
		L246.3,191.9z"/>
	<path d="M263.3,191.5c1.3,0,2.3,0.2,3,0.7s1.1,1.3,1.1,2.4c0,2.2-1.7,3.3-3.4,3.5c-0.3,0-0.6,0-0.8,0l-1.3-0.3v2.6
		c0,1.5,0.2,1.6,1.7,1.7v0.5h-4.9v-0.5c1.4-0.1,1.5-0.3,1.5-1.7v-6.8c0-1.5-0.2-1.6-1.5-1.7v-0.5H263.3z M261.9,197.3
		c0.2,0.1,0.7,0.2,1.3,0.2c1.1,0,2.5-0.6,2.5-2.8c0-1.9-1.2-2.6-2.6-2.6c-0.5,0-0.8,0.1-1,0.2s-0.2,0.3-0.2,0.8V197.3z"/>
	<path d="M277.8,199.9c-0.1,0.6-0.5,2.2-0.6,2.8h-8.6v-0.5c1.6-0.1,1.7-0.3,1.7-1.7v-6.7c0-1.6-0.2-1.6-1.5-1.7v-0.5h7.9
		c0,0.4,0.1,1.6,0.2,2.5l-0.5,0.1c-0.2-0.7-0.4-1.1-0.6-1.5c-0.3-0.4-0.7-0.5-1.9-0.5h-1.3c-0.6,0-0.6,0-0.6,0.6v3.8h1.6
		c1.6,0,1.7-0.1,1.9-1.3h0.5v3.4h-0.5c-0.2-1.3-0.4-1.3-1.9-1.3h-1.6v3.2c0,0.8,0.1,1.2,0.4,1.4c0.3,0.2,1,0.2,1.8,0.2
		c1.3,0,1.8-0.1,2.2-0.6c0.3-0.4,0.6-1,0.9-1.7L277.8,199.9z"/>
	<path d="M288.2,194.3c-0.2-0.9-0.4-1.3-0.6-1.6c-0.3-0.4-0.6-0.5-1.9-0.5h-1.2v8.4c0,1.4,0.2,1.6,1.8,1.7v0.5h-5.2v-0.5
		c1.6-0.1,1.8-0.3,1.8-1.7v-8.4h-1c-1.5,0-1.9,0.2-2.1,0.5c-0.2,0.3-0.4,0.8-0.6,1.6h-0.5c0.1-1.1,0.2-2.2,0.2-3.2h0.4
		c0.3,0.4,0.5,0.4,1,0.4h7.1c0.5,0,0.6-0.1,0.9-0.4h0.4c0,0.8,0.1,2.1,0.2,3.1L288.2,194.3z"/>
	<path d="M296,194.2c-0.3-1.1-0.8-2.3-2.3-2.3c-1.3,0-1.9,0.9-1.9,1.9c0,1.2,0.8,1.8,2.2,2.5c1.5,0.7,3,1.5,3,3.4
		c0,1.8-1.6,3.3-4,3.3c-0.7,0-1.3-0.1-1.8-0.3c-0.4-0.1-0.7-0.3-0.9-0.4c-0.1-0.3-0.4-1.9-0.5-2.7l0.5-0.2c0.3,1.1,1.1,2.9,2.9,2.9
		c1.3,0,2-0.8,2-2c0-1.2-0.9-1.8-2.3-2.5c-1.2-0.6-2.9-1.5-2.9-3.4c0-1.7,1.4-3.1,3.7-3.1c0.8,0,1.6,0.2,2.3,0.4
		c0.1,0.6,0.2,1.3,0.3,2.4L296,194.2z"/>
	<path d="M228.5,224.5c0.6,0,1,0.4,1,1c0,0.6-0.4,1-1,1c-0.6,0-1-0.4-1-1C227.5,224.9,227.9,224.5,228.5,224.5L228.5,224.5z
		 M228.5,231.7c-0.6,0-1-0.4-1-1c0-0.6,0.4-1,1-1s1,0.4,1,1C229.6,231.3,229.1,231.7,228.5,231.7L228.5,231.7z"/>
	<path d="M235.5,234.4c-2.5-1.7-3.7-4.4-3.7-7.5v0c0-3.1,1.1-5.8,3.7-7.5l0.4,0.4c-1.7,1.5-2.7,4.2-2.7,7.1c0,2.9,1,5.7,2.7,7.1
		L235.5,234.4z"/>
</g>
</svg>
