<?xml version="1.0" encoding="utf-8"?>
<!-- Generator: Adobe Illustrator 22.1.0, SVG Export Plug-In . SVG Version: 6.00 Build 0)  -->
<svg version="1.1" id="Layer_1" xmlns="http://www.w3.org/2000/svg" xmlns:xlink="http://www.w3.org/1999/xlink" x="0px" y="0px"
	 viewBox="0 0 576 720" style="enable-background:new 0 0 576 720;" xml:space="preserve">
<style type="text/css">
	.st0{fill:#F3E600;stroke:#020203;stroke-width:2;stroke-miterlimit:10;}
</style>
<polygon class="st0" points="229.5,256.1 229.5,460.9 341.4,461.4 341.8,378.6 "/>
<g>
	<path d="M242.6,373.2v-0.5c1.1-0.2,1.2-0.3,1-1c-0.2-0.7-0.6-1.5-0.9-2.5h-3.8c-0.3,0.8-0.5,1.5-0.8,2.1c-0.4,1-0.2,1.2,1.1,1.4
		v0.5h-3.9v-0.5c1.1-0.2,1.4-0.3,2-1.8l3.7-8.9l0.6-0.2c1.1,3,2.2,6.1,3.4,9.1c0.6,1.5,0.8,1.7,1.9,1.8v0.5H242.6z M240.9,364.1
		L240.9,364.1c-0.6,1.4-1.1,2.9-1.7,4.3h3.2L240.9,364.1z"/>
	<path d="M257.9,373.2v-0.5c1.4-0.1,1.5-0.3,1.5-2.1l-0.1-6.9h-0.1l-4.3,9.3h-0.4l-3.9-9.1h0l-0.3,4.8c-0.1,1.4-0.1,2.1,0,2.8
		c0,0.8,0.4,0.9,1.6,1v0.5h-4.1v-0.5c1-0.1,1.3-0.3,1.5-1c0.1-0.6,0.2-1.3,0.3-3.2l0.3-3.4c0.2-2.2,0-2.3-1.5-2.5V362h3l4,8.4l4-8.4
		h3.1v0.5c-1.5,0.1-1.6,0.2-1.6,1.9l0.2,6.2c0.1,1.8,0.1,1.9,1.6,2.1v0.5H257.9z"/>
	<path d="M270.7,373.2v-0.5c1.1-0.2,1.2-0.3,1-1c-0.2-0.7-0.6-1.5-0.9-2.5H267c-0.3,0.8-0.5,1.5-0.8,2.1c-0.4,1-0.2,1.2,1.1,1.4v0.5
		h-3.9v-0.5c1.1-0.2,1.4-0.3,2-1.8l3.7-8.9l0.6-0.2c1.1,3,2.2,6.1,3.4,9.1c0.6,1.5,0.8,1.7,1.9,1.8v0.5H270.7z M269,364.1L269,364.1
		c-0.6,1.4-1.1,2.9-1.7,4.3h3.2L269,364.1z"/>
	<path d="M286.1,370.2c-0.1,0.7-0.4,2.3-0.6,3h-9.3l-0.2-0.3c2.5-3.4,4.9-6.7,7.4-10.2h-3.1c-1.9,0-2.2,0.2-2.5,0.6
		c-0.2,0.3-0.4,0.8-0.6,1.5l-0.5,0c0.1-1.2,0.2-2.5,0.2-3.2h0.4c0.2,0.4,0.4,0.4,0.9,0.4h7.2l0.1,0.3c-2.5,3.4-4.9,6.7-7.3,10.1
		c0.6,0.1,1.6,0.1,2.8,0.1c2.1,0,2.9-0.1,3.4-0.7c0.4-0.4,0.6-0.9,1-1.8L286.1,370.2z"/>
	<path d="M286.9,373.2v-0.5c1.4-0.1,1.6-0.2,1.6-1.7v-6.8c0-1.5-0.2-1.6-1.6-1.7V362h4.8v0.5c-1.4,0.1-1.6,0.2-1.6,1.7v6.8
		c0,1.5,0.2,1.6,1.6,1.7v0.5H286.9z"/>
	<path d="M305.3,362.6c-1,0-1.4,0.2-1.5,1c-0.1,0.6-0.1,1.3-0.1,2.9v6.9h-0.6l-7.7-8.9h0l0,4.2c0,1.6,0.1,2.4,0.1,2.9
		c0.1,0.9,0.5,1.1,1.7,1.2v0.5H293v-0.5c1-0.1,1.5-0.3,1.5-1.1c0.1-0.5,0.1-1.3,0.1-2.9v-3.7c0-1.3-0.1-1.3-0.4-1.8
		c-0.4-0.4-0.7-0.6-1.6-0.6V362h2.7l7.5,8.5h0v-4c0-1.6-0.1-2.4-0.1-2.9c-0.1-0.8-0.5-1-1.7-1.1V362h4.2V362.6z"/>
	<path d="M318.2,368.5c-1,0.2-1.1,0.2-1.1,1.3v1.4c0,0.6,0,1.1,0.1,1.6c-1.1,0.3-2.6,0.7-4.1,0.7c-4,0-6.7-2.4-6.7-5.8
		c0-3.9,3.3-5.9,6.9-5.9c1.5,0,2.9,0.4,3.5,0.5c0,0.6,0.1,1.5,0.3,2.8l-0.5,0.1c-0.4-2.1-1.8-2.8-3.6-2.8c-2.7,0-4.7,1.9-4.7,5.1
		c0,2.5,1.5,5.4,4.9,5.4c0.6,0,1.1-0.1,1.5-0.3c0.4-0.2,0.6-0.4,0.6-1.1V370c0-1.3-0.1-1.4-1.9-1.5V368h4.6V368.5z"/>
	<path d="M242.6,402v-0.5c1.1-0.2,1.2-0.3,1-1c-0.2-0.7-0.6-1.5-0.9-2.5h-3.8c-0.3,0.8-0.5,1.5-0.8,2.1c-0.4,1-0.2,1.2,1.1,1.4v0.5
		h-3.9v-0.5c1.1-0.2,1.4-0.3,2-1.8l3.7-8.9l0.6-0.2c1.1,3,2.2,6.1,3.4,9.1c0.6,1.5,0.8,1.7,1.9,1.8v0.5H242.6z M240.9,392.9
		L240.9,392.9c-0.6,1.4-1.1,2.9-1.7,4.3h3.2L240.9,392.9z"/>
	<path d="M260.2,391.4c-1,0-1.4,0.2-1.5,1c-0.1,0.6-0.1,1.3-0.1,2.9v6.9h-0.6l-7.7-8.9h0l0,4.2c0,1.6,0.1,2.4,0.1,2.9
		c0.1,0.9,0.5,1.1,1.7,1.2v0.5h-4.2v-0.5c1-0.1,1.5-0.3,1.5-1.1c0.1-0.5,0.1-1.3,0.1-2.9v-3.7c0-1.3-0.1-1.3-0.4-1.8
		c-0.4-0.4-0.7-0.6-1.6-0.6v-0.5h2.7l7.5,8.5h0v-4c0-1.6-0.1-2.4-0.1-2.9c-0.1-0.8-0.5-1-1.7-1.1v-0.5h4.2V391.4z"/>
	<path d="M266.5,390.8c2.2,0,3.9,0.5,5,1.5c0.9,0.8,1.5,2.1,1.5,3.7c0,2-0.8,3.6-2.2,4.6c-1.3,1-3.1,1.4-5.3,1.4h-4.4v-0.5
		c1.5-0.1,1.7-0.2,1.7-1.7V393c0-1.5-0.2-1.5-1.5-1.7v-0.5H266.5z M264.5,399.7c0,1.4,0.6,1.7,1.9,1.7c3.3,0,4.8-2.4,4.8-5.1
		c0-1.8-0.7-3.2-2-4c-0.8-0.5-1.9-0.8-3.1-0.8c-0.8,0-1.2,0.1-1.4,0.2c-0.2,0.1-0.2,0.3-0.2,1V399.7z"/>
	<path d="M286.8,393.5c-0.2-0.7-0.3-1.1-0.5-1.4c-0.3-0.5-0.7-0.6-2-0.6H283c-0.6,0-0.6,0-0.6,0.6v4h1.8c1.6,0,1.7-0.2,1.9-1.3h0.5
		v3.4h-0.5c-0.2-1.2-0.3-1.4-1.9-1.4h-1.8v3c0,1.5,0.2,1.6,1.8,1.7v0.5h-4.9v-0.5c1.4-0.1,1.5-0.2,1.5-1.7v-6.7
		c0-1.5-0.2-1.6-1.5-1.7v-0.5h7.9c0,0.6,0.1,1.7,0.2,2.6L286.8,393.5z"/>
	<path d="M300.7,391.4c-1,0.1-1.5,0.3-1.5,1c0,0.5-0.1,1.2-0.1,2.7v1.3c0,2-0.3,3.5-1.3,4.6c-0.8,0.8-2,1.2-3.2,1.2
		c-1.1,0-2.1-0.2-2.9-0.8c-1.1-0.8-1.6-2.1-1.6-4.2v-4.1c0-1.6-0.2-1.7-1.5-1.8v-0.5h4.7v0.5c-1.4,0.1-1.5,0.2-1.5,1.8v3.7
		c0,2.8,1.2,4.4,3.3,4.4c2.5,0,3.3-2,3.3-4.8v-1.3c0-1.5,0-2.2-0.1-2.8c-0.1-0.7-0.5-0.9-1.7-1v-0.5h4.2V391.4z"/>
	<path d="M313.9,391.4c-1,0-1.4,0.2-1.5,1c-0.1,0.6-0.1,1.3-0.1,2.9v6.9h-0.6l-7.7-8.9h0l0,4.2c0,1.6,0.1,2.4,0.1,2.9
		c0.1,0.9,0.5,1.1,1.7,1.2v0.5h-4.2v-0.5c1-0.1,1.5-0.3,1.5-1.1c0.1-0.5,0.1-1.3,0.1-2.9v-3.7c0-1.3-0.1-1.3-0.4-1.8
		c-0.4-0.4-0.7-0.6-1.6-0.6v-0.5h2.7l7.5,8.5h0v-4c0-1.6-0.1-2.4-0.1-2.9c-0.1-0.8-0.5-1-1.7-1.1v-0.5h4.2V391.4z"/>
	<path d="M316.8,390.6c0.7,0,1,0.2,1,0.6c0,0.3-0.1,0.7-0.1,1.4c-0.2,1.9-0.4,3.9-0.6,6c-0.1,0.1-0.6,0.1-0.6,0
		c-0.2-2.1-0.3-4.1-0.6-6c-0.1-0.7-0.1-1.1-0.1-1.4C315.7,390.8,316.1,390.6,316.8,390.6L316.8,390.6z M316.8,402.2
		c-0.6,0-1-0.4-1-1.1c0-0.6,0.4-1.1,1-1.1c0.6,0,1,0.5,1,1.1C317.8,401.8,317.4,402.2,316.8,402.2L316.8,402.2z"/>
	<path d="M321.7,390.6c0.7,0,1,0.2,1,0.6c0,0.3-0.1,0.7-0.1,1.4c-0.2,1.9-0.4,3.9-0.6,6c-0.1,0.1-0.6,0.1-0.6,0
		c-0.2-2.1-0.3-4.1-0.6-6c-0.1-0.7-0.1-1.1-0.1-1.4C320.6,390.8,320.9,390.6,321.7,390.6L321.7,390.6z M321.6,402.2
		c-0.6,0-1-0.4-1-1.1c0-0.6,0.4-1.1,1-1.1c0.6,0,1,0.5,1,1.1C322.7,401.8,322.3,402.2,321.6,402.2L321.6,402.2z"/>
	<path d="M326.5,390.6c0.7,0,1,0.2,1,0.6c0,0.3-0.1,0.7-0.1,1.4c-0.2,1.9-0.4,3.9-0.6,6c-0.1,0.1-0.6,0.1-0.6,0
		c-0.2-2.1-0.3-4.1-0.6-6c-0.1-0.7-0.1-1.1-0.1-1.4C325.5,390.8,325.8,390.6,326.5,390.6L326.5,390.6z M326.5,402.2
		c-0.6,0-1-0.4-1-1.1c0-0.6,0.4-1.1,1-1.1c0.6,0,1,0.5,1,1.1C327.6,401.8,327.2,402.2,326.5,402.2L326.5,402.2z"/>
	<path d="M331.4,390.6c0.7,0,1,0.2,1,0.6c0,0.3-0.1,0.7-0.1,1.4c-0.2,1.9-0.4,3.9-0.6,6c-0.1,0.1-0.6,0.1-0.6,0
		c-0.2-2.1-0.3-4.1-0.6-6c-0.1-0.7-0.1-1.1-0.1-1.4C330.4,390.8,330.7,390.6,331.4,390.6L331.4,390.6z M331.4,402.2
		c-0.6,0-1-0.4-1-1.1c0-0.6,0.4-1.1,1-1.1c0.6,0,1,0.5,1,1.1C332.5,401.8,332,402.2,331.4,402.2L331.4,402.2z"/>
	<path d="M237,423.8c0.6,0,1,0.4,1,1c0,0.6-0.4,1-1,1c-0.6,0-1-0.4-1-1C236,424.2,236.4,423.8,237,423.8L237,423.8z M237,431
		c-0.6,0-1-0.4-1-1c0-0.6,0.4-1,1-1s1,0.4,1,1C238.1,430.6,237.6,431,237,431L237,431z"/>
	<path d="M243.8,426.2c0,3.1-1.1,5.8-3.7,7.5l-0.3-0.4c1.8-1.5,2.7-4.2,2.7-7.1c0-2.9-1-5.7-2.7-7.1l0.3-0.4
		C242.7,420.4,243.8,423.1,243.8,426.2L243.8,426.2z"/>
	<path d="M249.9,426.2c0,3.1-1.1,5.8-3.7,7.5l-0.3-0.4c1.8-1.5,2.7-4.2,2.7-7.1c0-2.9-1-5.7-2.7-7.1l0.3-0.4
		C248.8,420.4,249.9,423.1,249.9,426.2L249.9,426.2z"/>
	<path d="M256,426.2c0,3.1-1.1,5.8-3.7,7.5l-0.3-0.4c1.8-1.5,2.7-4.2,2.7-7.1c0-2.9-1-5.7-2.7-7.1l0.3-0.4
		C254.8,420.4,256,423.1,256,426.2L256,426.2z"/>
	<path d="M262,426.2c0,3.1-1.1,5.8-3.7,7.5l-0.3-0.4c1.8-1.5,2.7-4.2,2.7-7.1c0-2.9-1-5.7-2.7-7.1l0.3-0.4
		C260.9,420.4,262,423.1,262,426.2L262,426.2z"/>
	<path d="M268.1,426.2c0,3.1-1.1,5.8-3.7,7.5l-0.3-0.4c1.8-1.5,2.7-4.2,2.7-7.1c0-2.9-1-5.7-2.7-7.1l0.3-0.4
		C267,420.4,268.1,423.1,268.1,426.2L268.1,426.2z"/>
</g>
</svg>
